G04 #@! TF.GenerationSoftware,KiCad,Pcbnew,5.1.10*
G04 #@! TF.CreationDate,2021-08-01T14:45:19-04:00*
G04 #@! TF.ProjectId,dac,6461632e-6b69-4636-9164-5f7063625858,rev?*
G04 #@! TF.SameCoordinates,Original*
G04 #@! TF.FileFunction,Copper,L2,Bot*
G04 #@! TF.FilePolarity,Positive*
%FSLAX46Y46*%
G04 Gerber Fmt 4.6, Leading zero omitted, Abs format (unit mm)*
G04 Created by KiCad (PCBNEW 5.1.10) date 2021-08-01 14:45:19*
%MOMM*%
%LPD*%
G01*
G04 APERTURE LIST*
G04 #@! TA.AperFunction,NonConductor*
%ADD10C,0.150000*%
G04 #@! TD*
G04 #@! TA.AperFunction,ComponentPad*
%ADD11O,3.200000X1.600000*%
G04 #@! TD*
G04 #@! TA.AperFunction,SMDPad,CuDef*
%ADD12R,1.500000X1.500000*%
G04 #@! TD*
G04 #@! TA.AperFunction,ComponentPad*
%ADD13C,1.346200*%
G04 #@! TD*
G04 #@! TA.AperFunction,ComponentPad*
%ADD14O,2.216000X1.108000*%
G04 #@! TD*
G04 #@! TA.AperFunction,ComponentPad*
%ADD15C,0.650000*%
G04 #@! TD*
G04 #@! TA.AperFunction,ViaPad*
%ADD16C,0.800000*%
G04 #@! TD*
G04 #@! TA.AperFunction,Conductor*
%ADD17C,0.400000*%
G04 #@! TD*
G04 #@! TA.AperFunction,Conductor*
%ADD18C,0.250000*%
G04 #@! TD*
G04 #@! TA.AperFunction,Conductor*
%ADD19C,0.800000*%
G04 #@! TD*
G04 #@! TA.AperFunction,Conductor*
%ADD20C,0.500000*%
G04 #@! TD*
G04 #@! TA.AperFunction,Conductor*
%ADD21C,1.000000*%
G04 #@! TD*
G04 #@! TA.AperFunction,Conductor*
%ADD22C,0.200000*%
G04 #@! TD*
G04 #@! TA.AperFunction,Conductor*
%ADD23C,0.100000*%
G04 #@! TD*
G04 APERTURE END LIST*
D10*
X117035714Y-106047619D02*
X117702380Y-106047619D01*
X117130952Y-106047619D02*
X117083333Y-106095238D01*
X117035714Y-106190476D01*
X117035714Y-106333333D01*
X117083333Y-106428571D01*
X117178571Y-106476190D01*
X117702380Y-106476190D01*
X117702380Y-106952380D02*
X116702380Y-106952380D01*
X117083333Y-106952380D02*
X117035714Y-107047619D01*
X117035714Y-107238095D01*
X117083333Y-107333333D01*
X117130952Y-107380952D01*
X117226190Y-107428571D01*
X117511904Y-107428571D01*
X117607142Y-107380952D01*
X117654761Y-107333333D01*
X117702380Y-107238095D01*
X117702380Y-107047619D01*
X117654761Y-106952380D01*
X116797619Y-108571428D02*
X116750000Y-108619047D01*
X116702380Y-108714285D01*
X116702380Y-108952380D01*
X116750000Y-109047619D01*
X116797619Y-109095238D01*
X116892857Y-109142857D01*
X116988095Y-109142857D01*
X117130952Y-109095238D01*
X117702380Y-108523809D01*
X117702380Y-109142857D01*
X116702380Y-109761904D02*
X116702380Y-109857142D01*
X116750000Y-109952380D01*
X116797619Y-110000000D01*
X116892857Y-110047619D01*
X117083333Y-110095238D01*
X117321428Y-110095238D01*
X117511904Y-110047619D01*
X117607142Y-110000000D01*
X117654761Y-109952380D01*
X117702380Y-109857142D01*
X117702380Y-109761904D01*
X117654761Y-109666666D01*
X117607142Y-109619047D01*
X117511904Y-109571428D01*
X117321428Y-109523809D01*
X117083333Y-109523809D01*
X116892857Y-109571428D01*
X116797619Y-109619047D01*
X116750000Y-109666666D01*
X116702380Y-109761904D01*
X116797619Y-110476190D02*
X116750000Y-110523809D01*
X116702380Y-110619047D01*
X116702380Y-110857142D01*
X116750000Y-110952380D01*
X116797619Y-111000000D01*
X116892857Y-111047619D01*
X116988095Y-111047619D01*
X117130952Y-111000000D01*
X117702380Y-110428571D01*
X117702380Y-111047619D01*
X117702380Y-112000000D02*
X117702380Y-111428571D01*
X117702380Y-111714285D02*
X116702380Y-111714285D01*
X116845238Y-111619047D01*
X116940476Y-111523809D01*
X116988095Y-111428571D01*
D11*
X176150000Y-104775000D03*
X169350000Y-113225000D03*
X176150000Y-113225000D03*
X169350000Y-104775000D03*
D12*
X136300000Y-110300000D03*
D13*
X150750000Y-114799600D03*
X153750000Y-114799600D03*
D14*
X117165000Y-104675000D03*
X117165000Y-113325000D03*
X120545000Y-113325000D03*
X120545000Y-104675000D03*
D15*
X120175000Y-106025000D03*
X120175000Y-106875000D03*
X120175000Y-107725000D03*
X120175000Y-108575000D03*
X120175000Y-109425000D03*
X120175000Y-110275000D03*
X120175000Y-111125000D03*
X120175000Y-111975000D03*
X121525000Y-111975000D03*
X121525000Y-111125000D03*
X121525000Y-110275000D03*
X121525000Y-109425000D03*
X121525000Y-108575000D03*
X121525000Y-107725000D03*
X121525000Y-106875000D03*
X121525000Y-106025000D03*
D16*
X152833162Y-108059818D03*
X138631018Y-111740144D03*
X157500387Y-110634198D03*
X161800000Y-108300000D03*
X160300000Y-107785016D03*
X148699982Y-112400000D03*
X127300000Y-105900000D03*
X156300000Y-112300000D03*
X163100000Y-110100000D03*
X155500000Y-106300000D03*
X166400000Y-113100000D03*
X165300000Y-113100000D03*
X165800000Y-113900000D03*
X164700000Y-113900000D03*
X166900000Y-113900000D03*
X151400000Y-106700000D03*
X147200000Y-105000000D03*
X148000000Y-111400000D03*
X162250000Y-115500000D03*
X159500000Y-115500000D03*
X155250000Y-114750000D03*
X149250000Y-114750000D03*
X152100003Y-107099997D03*
X157100000Y-112300000D03*
X162300000Y-110100000D03*
X165000000Y-102500000D03*
X164000000Y-102500000D03*
X164500000Y-103250000D03*
X163500000Y-103250000D03*
X163000000Y-102500000D03*
X138325000Y-105050000D03*
X138325000Y-105875000D03*
X150100000Y-103800000D03*
X138560000Y-108100000D03*
X137300000Y-103500000D03*
X144350000Y-104450000D03*
X144350000Y-105300000D03*
X136250000Y-105750000D03*
X135000000Y-103750000D03*
X151000000Y-109250000D03*
X126500000Y-115730000D03*
X131350000Y-109675000D03*
X130000000Y-109350000D03*
X126800000Y-110025000D03*
X126800000Y-110850000D03*
X129300000Y-106700000D03*
X128700000Y-107300000D03*
X128400000Y-109300000D03*
X125000000Y-104800000D03*
X125000000Y-103900000D03*
X115650000Y-110750000D03*
X115650000Y-109750000D03*
X115650000Y-108750000D03*
X115650000Y-107750000D03*
X122400000Y-102250000D03*
X125300000Y-107300000D03*
X122250000Y-114000000D03*
X125750000Y-114750000D03*
X122250000Y-115000000D03*
X124250000Y-112000000D03*
X124250000Y-112750000D03*
X139700000Y-112875014D03*
X145450000Y-113750000D03*
X134500000Y-111475000D03*
X134493471Y-109518457D03*
X141900000Y-103600000D03*
X136300000Y-104400000D03*
X138250000Y-109500000D03*
X131250000Y-112750000D03*
X135100000Y-108400000D03*
X137300000Y-106800000D03*
X160500000Y-114500000D03*
X171000000Y-102500000D03*
X153300000Y-103700000D03*
X123707532Y-110859204D03*
X124792468Y-110859204D03*
X123450089Y-105949901D03*
X125300000Y-102300000D03*
X122250000Y-107750000D03*
X125000000Y-106250000D03*
X126250000Y-106000000D03*
X128350000Y-106000000D03*
X156900000Y-105300000D03*
X154200000Y-102500000D03*
X144800000Y-114875000D03*
X127000000Y-114749988D03*
X139500000Y-114325015D03*
X129000000Y-114524990D03*
X160347504Y-110261185D03*
X158602821Y-113147170D03*
D17*
X145840182Y-108059818D02*
X152833162Y-108059818D01*
X142500000Y-111400000D02*
X145840182Y-108059818D01*
X138971162Y-111400000D02*
X142500000Y-111400000D01*
X138631018Y-111740144D02*
X138971162Y-111400000D01*
X161500001Y-108599999D02*
X161800000Y-108300000D01*
X159534586Y-108599999D02*
X161500001Y-108599999D01*
X157500387Y-110634198D02*
X159534586Y-108599999D01*
X155300000Y-111200000D02*
X149899982Y-111200000D01*
X160300000Y-107785016D02*
X158714984Y-107785016D01*
X149899982Y-111200000D02*
X148699982Y-112400000D01*
X158714984Y-107785016D02*
X155300000Y-111200000D01*
D18*
X139700000Y-112875014D02*
X144575014Y-112875014D01*
X144575014Y-112875014D02*
X145450000Y-113750000D01*
D17*
X134511928Y-109500000D02*
X134493471Y-109518457D01*
D18*
X134500000Y-109524986D02*
X134493471Y-109518457D01*
D19*
X135518457Y-109518457D02*
X136300000Y-110300000D01*
X134493471Y-109518457D02*
X135518457Y-109518457D01*
X135125000Y-111475000D02*
X136300000Y-110300000D01*
X134500000Y-111475000D02*
X135125000Y-111475000D01*
D17*
X141900000Y-103600000D02*
X138540998Y-103600000D01*
X137740998Y-104400000D02*
X136300000Y-104400000D01*
X138540998Y-103600000D02*
X137740998Y-104400000D01*
D19*
X137000000Y-109600000D02*
X138150000Y-109600000D01*
X136300000Y-110300000D02*
X137000000Y-109600000D01*
X138150000Y-109600000D02*
X138250000Y-109500000D01*
X133225000Y-112750000D02*
X134500000Y-111475000D01*
X124250000Y-112750000D02*
X131250000Y-112750000D01*
X131250000Y-112750000D02*
X133225000Y-112750000D01*
D18*
X136700000Y-106800000D02*
X137300000Y-106800000D01*
X135100000Y-108400000D02*
X136700000Y-106800000D01*
D20*
X166800000Y-102500000D02*
X171000000Y-102500000D01*
X164000000Y-105300000D02*
X166800000Y-102500000D01*
X164000000Y-113200000D02*
X164000000Y-105300000D01*
X162700000Y-114500000D02*
X164000000Y-113200000D01*
X160500000Y-114500000D02*
X162700000Y-114500000D01*
D19*
X124792468Y-110859204D02*
X123707532Y-110859204D01*
D20*
X120175000Y-111125000D02*
X121525000Y-111125000D01*
X123441736Y-111125000D02*
X123707532Y-110859204D01*
X121525000Y-111125000D02*
X123441736Y-111125000D01*
X121525000Y-106875000D02*
X120175000Y-106875000D01*
D21*
X153300000Y-103700000D02*
X151900000Y-102300000D01*
D18*
X128500000Y-102500000D02*
X128300000Y-102300000D01*
D21*
X151900000Y-102300000D02*
X128300000Y-102300000D01*
D20*
X121525000Y-106875000D02*
X122524990Y-106875000D01*
X122524990Y-106875000D02*
X123450089Y-105949901D01*
D21*
X123450000Y-105949812D02*
X123450089Y-105949901D01*
X123450000Y-102800000D02*
X123450000Y-105949812D01*
X123950000Y-102300000D02*
X123450000Y-102800000D01*
X125300000Y-102300000D02*
X123950000Y-102300000D01*
X128300000Y-102300000D02*
X125300000Y-102300000D01*
D18*
X123500000Y-107750000D02*
X125000000Y-106250000D01*
X122250000Y-107750000D02*
X123500000Y-107750000D01*
X121412998Y-108575000D02*
X121525000Y-108575000D01*
X120562998Y-109425000D02*
X121412998Y-108575000D01*
X120175000Y-109425000D02*
X120562998Y-109425000D01*
D22*
X124938603Y-108775000D02*
X126250000Y-107463603D01*
X121725000Y-108775000D02*
X124938603Y-108775000D01*
X121525000Y-108575000D02*
X121725000Y-108775000D01*
X126250000Y-107463603D02*
X126250000Y-106000000D01*
X126568198Y-107781802D02*
X128350000Y-106000000D01*
X124925000Y-109425000D02*
X126568198Y-107781802D01*
X121525000Y-109425000D02*
X124925000Y-109425000D01*
D18*
X154600000Y-102500000D02*
X154200000Y-102500000D01*
X156900000Y-104800000D02*
X154600000Y-102500000D01*
X156900000Y-105300000D02*
X156900000Y-104800000D01*
X127500012Y-115250000D02*
X127000000Y-114749988D01*
X144425000Y-115250000D02*
X127500012Y-115250000D01*
X144800000Y-114875000D02*
X144425000Y-115250000D01*
X129275010Y-114800000D02*
X129000000Y-114524990D01*
X139025015Y-114800000D02*
X129275010Y-114800000D01*
X139500000Y-114325015D02*
X139025015Y-114800000D01*
X160347504Y-111402487D02*
X158602821Y-113147170D01*
X160347504Y-110261185D02*
X160347504Y-111402487D01*
X122861681Y-102150883D02*
X122828288Y-102178288D01*
X122718944Y-102311525D01*
X122637696Y-102463532D01*
X122637695Y-102463533D01*
X122587661Y-102628471D01*
X122570767Y-102800000D01*
X122575000Y-102842979D01*
X122575001Y-105906823D01*
X122571256Y-105944851D01*
X122266108Y-106250000D01*
X121845304Y-106250000D01*
X121729182Y-106201901D01*
X121593944Y-106175000D01*
X121456056Y-106175000D01*
X121320818Y-106201901D01*
X121204696Y-106250000D01*
X120495304Y-106250000D01*
X120379182Y-106201901D01*
X120243944Y-106175000D01*
X120106056Y-106175000D01*
X119970818Y-106201901D01*
X119843426Y-106254668D01*
X119728776Y-106331274D01*
X119631274Y-106428776D01*
X119554668Y-106543426D01*
X119501901Y-106670818D01*
X119475000Y-106806056D01*
X119475000Y-106943944D01*
X119501901Y-107079182D01*
X119554668Y-107206574D01*
X119617093Y-107300000D01*
X119554668Y-107393426D01*
X119501901Y-107520818D01*
X119475000Y-107656056D01*
X119475000Y-107793944D01*
X119501901Y-107929182D01*
X119554668Y-108056574D01*
X119617093Y-108150000D01*
X119554668Y-108243426D01*
X119501901Y-108370818D01*
X119475000Y-108506056D01*
X119475000Y-108643944D01*
X119501901Y-108779182D01*
X119554668Y-108906574D01*
X119617093Y-109000000D01*
X119554668Y-109093426D01*
X119501901Y-109220818D01*
X119475000Y-109356056D01*
X119475000Y-109493944D01*
X119501901Y-109629182D01*
X119554668Y-109756574D01*
X119617093Y-109850000D01*
X119554668Y-109943426D01*
X119501901Y-110070818D01*
X119475000Y-110206056D01*
X119475000Y-110343944D01*
X119501901Y-110479182D01*
X119554668Y-110606574D01*
X119617093Y-110700000D01*
X119554668Y-110793426D01*
X119501901Y-110920818D01*
X119475000Y-111056056D01*
X119475000Y-111193944D01*
X119501901Y-111329182D01*
X119554668Y-111456574D01*
X119631274Y-111571224D01*
X119728776Y-111668726D01*
X119843426Y-111745332D01*
X119970818Y-111798099D01*
X120106056Y-111825000D01*
X120243944Y-111825000D01*
X120379182Y-111798099D01*
X120495304Y-111750000D01*
X121204696Y-111750000D01*
X121320818Y-111798099D01*
X121456056Y-111825000D01*
X121593944Y-111825000D01*
X121729182Y-111798099D01*
X121845304Y-111750000D01*
X123411042Y-111750000D01*
X123441736Y-111753023D01*
X123472430Y-111750000D01*
X123472440Y-111750000D01*
X123516497Y-111745661D01*
X123504783Y-111773941D01*
X123475000Y-111923669D01*
X123475000Y-112076331D01*
X123504783Y-112226059D01*
X123563204Y-112367100D01*
X123568483Y-112375000D01*
X123563204Y-112382900D01*
X123548560Y-112418255D01*
X123530530Y-112451986D01*
X123519427Y-112488587D01*
X123504783Y-112523941D01*
X123497318Y-112561469D01*
X123486214Y-112598074D01*
X123482465Y-112636141D01*
X123475000Y-112673669D01*
X123475000Y-112711935D01*
X123471251Y-112750000D01*
X123475000Y-112788065D01*
X123475000Y-112826331D01*
X123482465Y-112863859D01*
X123486214Y-112901926D01*
X123497318Y-112938531D01*
X123504783Y-112976059D01*
X123519427Y-113011413D01*
X123530530Y-113048014D01*
X123548560Y-113081745D01*
X123563204Y-113117100D01*
X123584464Y-113148918D01*
X123602494Y-113182650D01*
X123626758Y-113212216D01*
X123648018Y-113244034D01*
X123675077Y-113271093D01*
X123699341Y-113300659D01*
X123728907Y-113324923D01*
X123755966Y-113351982D01*
X123787784Y-113373242D01*
X123817350Y-113397506D01*
X123851082Y-113415536D01*
X123882900Y-113436796D01*
X123918255Y-113451440D01*
X123951986Y-113469470D01*
X123988587Y-113480573D01*
X124023941Y-113495217D01*
X124061469Y-113502682D01*
X124098074Y-113513786D01*
X124136141Y-113517535D01*
X124173669Y-113525000D01*
X133186937Y-113525000D01*
X133225000Y-113528749D01*
X133263063Y-113525000D01*
X133263065Y-113525000D01*
X133376926Y-113513786D01*
X133523014Y-113469470D01*
X133657650Y-113397506D01*
X133775659Y-113300659D01*
X133799932Y-113271082D01*
X134821015Y-112250000D01*
X135086937Y-112250000D01*
X135125000Y-112253749D01*
X135163063Y-112250000D01*
X135163065Y-112250000D01*
X135276926Y-112238786D01*
X135423014Y-112194470D01*
X135557650Y-112122506D01*
X135675659Y-112025659D01*
X135699932Y-111996082D01*
X136032201Y-111663813D01*
X137856018Y-111663813D01*
X137856018Y-111816475D01*
X137885801Y-111966203D01*
X137944222Y-112107244D01*
X138029036Y-112234178D01*
X138136984Y-112342126D01*
X138263918Y-112426940D01*
X138404959Y-112485361D01*
X138554687Y-112515144D01*
X138707349Y-112515144D01*
X138857077Y-112485361D01*
X138998118Y-112426940D01*
X139125052Y-112342126D01*
X139233000Y-112234178D01*
X139317814Y-112107244D01*
X139372591Y-111975000D01*
X142471757Y-111975000D01*
X142500000Y-111977782D01*
X142528243Y-111975000D01*
X142528246Y-111975000D01*
X142612720Y-111966680D01*
X142721108Y-111933801D01*
X142820998Y-111880408D01*
X142908554Y-111808554D01*
X142926565Y-111786607D01*
X146078355Y-108634818D01*
X152312146Y-108634818D01*
X152339128Y-108661800D01*
X152466062Y-108746614D01*
X152607103Y-108805035D01*
X152756831Y-108834818D01*
X152909493Y-108834818D01*
X153059221Y-108805035D01*
X153200262Y-108746614D01*
X153327196Y-108661800D01*
X153435144Y-108553852D01*
X153519958Y-108426918D01*
X153578379Y-108285877D01*
X153608162Y-108136149D01*
X153608162Y-107983487D01*
X153578379Y-107833759D01*
X153519958Y-107692718D01*
X153435144Y-107565784D01*
X153327196Y-107457836D01*
X153200262Y-107373022D01*
X153059221Y-107314601D01*
X152909493Y-107284818D01*
X152756831Y-107284818D01*
X152607103Y-107314601D01*
X152466062Y-107373022D01*
X152339128Y-107457836D01*
X152312146Y-107484818D01*
X145868425Y-107484818D01*
X145840182Y-107482036D01*
X145811939Y-107484818D01*
X145811936Y-107484818D01*
X145727462Y-107493138D01*
X145619074Y-107526017D01*
X145519184Y-107579410D01*
X145431628Y-107651264D01*
X145413621Y-107673206D01*
X142261828Y-110825000D01*
X138999404Y-110825000D01*
X138971161Y-110822218D01*
X138942918Y-110825000D01*
X138942916Y-110825000D01*
X138858442Y-110833320D01*
X138760049Y-110863167D01*
X138750054Y-110866199D01*
X138650163Y-110919592D01*
X138630737Y-110935535D01*
X138594658Y-110965144D01*
X138554687Y-110965144D01*
X138404959Y-110994927D01*
X138263918Y-111053348D01*
X138136984Y-111138162D01*
X138029036Y-111246110D01*
X137944222Y-111373044D01*
X137885801Y-111514085D01*
X137856018Y-111663813D01*
X136032201Y-111663813D01*
X136269201Y-111426814D01*
X137050000Y-111426814D01*
X137123513Y-111419574D01*
X137194200Y-111398131D01*
X137259347Y-111363309D01*
X137316448Y-111316448D01*
X137363309Y-111259347D01*
X137398131Y-111194200D01*
X137419574Y-111123513D01*
X137426814Y-111050000D01*
X137426814Y-110375000D01*
X138111937Y-110375000D01*
X138150000Y-110378749D01*
X138188063Y-110375000D01*
X138188065Y-110375000D01*
X138301926Y-110363786D01*
X138448014Y-110319470D01*
X138582650Y-110247506D01*
X138700659Y-110150659D01*
X138724933Y-110121081D01*
X138744028Y-110101986D01*
X138744034Y-110101982D01*
X138851982Y-109994034D01*
X138873248Y-109962208D01*
X138897505Y-109932650D01*
X138915531Y-109898926D01*
X138936796Y-109867100D01*
X138951444Y-109831737D01*
X138969469Y-109798014D01*
X138980569Y-109761422D01*
X138995217Y-109726059D01*
X139002684Y-109688521D01*
X139013785Y-109651926D01*
X139017534Y-109613866D01*
X139025000Y-109576331D01*
X139025000Y-109538063D01*
X139028749Y-109500001D01*
X139025000Y-109461938D01*
X139025000Y-109423669D01*
X139017534Y-109386133D01*
X139013785Y-109348075D01*
X139002684Y-109311481D01*
X138995217Y-109273941D01*
X138980569Y-109238578D01*
X138969469Y-109201986D01*
X138951444Y-109168263D01*
X138936796Y-109132900D01*
X138915531Y-109101074D01*
X138897505Y-109067350D01*
X138873247Y-109037792D01*
X138851982Y-109005966D01*
X138824914Y-108978898D01*
X138800658Y-108949342D01*
X138771102Y-108925086D01*
X138744034Y-108898018D01*
X138712208Y-108876753D01*
X138682650Y-108852495D01*
X138648926Y-108834469D01*
X138617100Y-108813204D01*
X138581737Y-108798556D01*
X138548014Y-108780531D01*
X138511422Y-108769431D01*
X138476059Y-108754783D01*
X138438519Y-108747316D01*
X138401925Y-108736215D01*
X138363867Y-108732466D01*
X138326331Y-108725000D01*
X138288062Y-108725000D01*
X138249999Y-108721251D01*
X138211937Y-108725000D01*
X138173669Y-108725000D01*
X138136134Y-108732466D01*
X138098074Y-108736215D01*
X138061479Y-108747316D01*
X138023941Y-108754783D01*
X137988578Y-108769431D01*
X137951986Y-108780531D01*
X137918263Y-108798556D01*
X137882900Y-108813204D01*
X137865246Y-108825000D01*
X137038062Y-108825000D01*
X136999999Y-108821251D01*
X136961936Y-108825000D01*
X136961935Y-108825000D01*
X136848074Y-108836214D01*
X136701986Y-108880530D01*
X136567350Y-108952494D01*
X136449341Y-109049341D01*
X136425076Y-109078908D01*
X136330798Y-109173186D01*
X136269200Y-109173186D01*
X136093389Y-108997375D01*
X136069116Y-108967798D01*
X135951107Y-108870951D01*
X135816471Y-108798987D01*
X135774082Y-108786128D01*
X135786796Y-108767100D01*
X135845217Y-108626059D01*
X135875000Y-108476331D01*
X135875000Y-108332106D01*
X136805545Y-107401561D01*
X136805966Y-107401982D01*
X136932900Y-107486796D01*
X137073941Y-107545217D01*
X137223669Y-107575000D01*
X137376331Y-107575000D01*
X137526059Y-107545217D01*
X137667100Y-107486796D01*
X137794034Y-107401982D01*
X137901982Y-107294034D01*
X137986796Y-107167100D01*
X138045217Y-107026059D01*
X138075000Y-106876331D01*
X138075000Y-106723669D01*
X138045217Y-106573941D01*
X137986796Y-106432900D01*
X137901982Y-106305966D01*
X137794034Y-106198018D01*
X137667100Y-106113204D01*
X137526059Y-106054783D01*
X137376331Y-106025000D01*
X137223669Y-106025000D01*
X137073941Y-106054783D01*
X136932900Y-106113204D01*
X136805966Y-106198018D01*
X136705829Y-106298155D01*
X136700000Y-106297581D01*
X136675440Y-106300000D01*
X136601983Y-106307235D01*
X136507733Y-106335825D01*
X136420871Y-106382254D01*
X136344736Y-106444736D01*
X136329080Y-106463813D01*
X135167894Y-107625000D01*
X135023669Y-107625000D01*
X134873941Y-107654783D01*
X134732900Y-107713204D01*
X134605966Y-107798018D01*
X134498018Y-107905966D01*
X134413204Y-108032900D01*
X134354783Y-108173941D01*
X134325000Y-108323669D01*
X134325000Y-108476331D01*
X134354783Y-108626059D01*
X134404456Y-108745980D01*
X134379612Y-108750922D01*
X134341545Y-108754671D01*
X134304940Y-108765775D01*
X134267412Y-108773240D01*
X134232058Y-108787884D01*
X134195457Y-108798987D01*
X134161726Y-108817017D01*
X134126371Y-108831661D01*
X134094553Y-108852921D01*
X134060821Y-108870951D01*
X134031255Y-108895215D01*
X133999437Y-108916475D01*
X133972378Y-108943534D01*
X133942812Y-108967798D01*
X133918548Y-108997364D01*
X133891489Y-109024423D01*
X133870229Y-109056241D01*
X133845965Y-109085807D01*
X133827935Y-109119539D01*
X133806675Y-109151357D01*
X133792031Y-109186712D01*
X133774001Y-109220443D01*
X133762898Y-109257044D01*
X133748254Y-109292398D01*
X133740789Y-109329926D01*
X133729685Y-109366531D01*
X133725936Y-109404598D01*
X133718471Y-109442126D01*
X133718471Y-109480392D01*
X133714722Y-109518457D01*
X133718471Y-109556522D01*
X133718471Y-109594788D01*
X133725936Y-109632316D01*
X133729685Y-109670383D01*
X133740789Y-109706988D01*
X133748254Y-109744516D01*
X133762898Y-109779870D01*
X133774001Y-109816471D01*
X133792031Y-109850202D01*
X133806675Y-109885557D01*
X133827935Y-109917375D01*
X133845965Y-109951107D01*
X133870229Y-109980673D01*
X133891489Y-110012491D01*
X133918546Y-110039548D01*
X133942812Y-110069116D01*
X133972378Y-110093380D01*
X133999437Y-110120439D01*
X134031255Y-110141699D01*
X134060821Y-110165963D01*
X134094553Y-110183993D01*
X134126371Y-110205253D01*
X134161726Y-110219897D01*
X134195457Y-110237927D01*
X134232058Y-110249030D01*
X134267412Y-110263674D01*
X134304940Y-110271139D01*
X134341545Y-110282243D01*
X134379612Y-110285992D01*
X134417140Y-110293457D01*
X135173186Y-110293457D01*
X135173186Y-110330799D01*
X134803986Y-110700000D01*
X134538062Y-110700000D01*
X134499999Y-110696251D01*
X134461936Y-110700000D01*
X134423669Y-110700000D01*
X134386141Y-110707465D01*
X134348074Y-110711214D01*
X134311469Y-110722318D01*
X134273941Y-110729783D01*
X134238587Y-110744427D01*
X134201986Y-110755530D01*
X134168255Y-110773560D01*
X134132900Y-110788204D01*
X134101082Y-110809464D01*
X134067350Y-110827494D01*
X134037784Y-110851758D01*
X134005966Y-110873018D01*
X133978907Y-110900077D01*
X133949341Y-110924341D01*
X133925077Y-110953907D01*
X133898018Y-110980966D01*
X133898016Y-110980969D01*
X132903986Y-111975000D01*
X125025000Y-111975000D01*
X125025000Y-111923669D01*
X124995217Y-111773941D01*
X124936796Y-111632900D01*
X124931052Y-111624304D01*
X124944394Y-111622990D01*
X124980999Y-111611886D01*
X125018527Y-111604421D01*
X125053881Y-111589777D01*
X125090482Y-111578674D01*
X125124213Y-111560644D01*
X125159568Y-111546000D01*
X125191386Y-111524740D01*
X125225118Y-111506710D01*
X125254684Y-111482446D01*
X125286502Y-111461186D01*
X125313561Y-111434127D01*
X125343127Y-111409863D01*
X125367391Y-111380297D01*
X125394450Y-111353238D01*
X125415710Y-111321420D01*
X125439974Y-111291854D01*
X125458004Y-111258122D01*
X125479264Y-111226304D01*
X125493908Y-111190949D01*
X125511938Y-111157218D01*
X125523041Y-111120617D01*
X125537685Y-111085263D01*
X125545150Y-111047735D01*
X125556254Y-111011130D01*
X125560003Y-110973063D01*
X125567468Y-110935535D01*
X125567468Y-110897269D01*
X125571217Y-110859204D01*
X125567468Y-110821139D01*
X125567468Y-110782873D01*
X125560003Y-110745345D01*
X125556254Y-110707278D01*
X125545150Y-110670673D01*
X125537685Y-110633145D01*
X125523041Y-110597791D01*
X125511938Y-110561190D01*
X125493908Y-110527459D01*
X125479264Y-110492104D01*
X125458004Y-110460286D01*
X125439974Y-110426554D01*
X125415710Y-110396988D01*
X125394450Y-110365170D01*
X125367391Y-110338111D01*
X125343127Y-110308545D01*
X125313561Y-110284281D01*
X125286502Y-110257222D01*
X125254684Y-110235962D01*
X125225118Y-110211698D01*
X125191386Y-110193668D01*
X125159568Y-110172408D01*
X125124213Y-110157764D01*
X125090482Y-110139734D01*
X125053881Y-110128631D01*
X125018527Y-110113987D01*
X124980999Y-110106522D01*
X124944394Y-110095418D01*
X124906327Y-110091669D01*
X124868799Y-110084204D01*
X123631201Y-110084204D01*
X123593673Y-110091669D01*
X123555606Y-110095418D01*
X123519001Y-110106522D01*
X123481473Y-110113987D01*
X123446119Y-110128631D01*
X123409518Y-110139734D01*
X123375787Y-110157764D01*
X123340432Y-110172408D01*
X123308614Y-110193668D01*
X123274882Y-110211698D01*
X123245316Y-110235962D01*
X123213498Y-110257222D01*
X123186439Y-110284281D01*
X123156873Y-110308545D01*
X123132609Y-110338111D01*
X123105550Y-110365170D01*
X123084290Y-110396988D01*
X123060026Y-110426554D01*
X123041996Y-110460286D01*
X123020736Y-110492104D01*
X123017465Y-110500000D01*
X122189476Y-110500000D01*
X122198099Y-110479182D01*
X122225000Y-110343944D01*
X122225000Y-110206056D01*
X122198099Y-110070818D01*
X122145332Y-109943426D01*
X122116316Y-109900000D01*
X124901668Y-109900000D01*
X124925000Y-109902298D01*
X124948332Y-109900000D01*
X124968487Y-109898015D01*
X125018116Y-109893127D01*
X125031147Y-109889174D01*
X125107654Y-109865966D01*
X125190173Y-109821859D01*
X125262501Y-109762501D01*
X125277384Y-109744366D01*
X126920572Y-108101180D01*
X126920581Y-108101169D01*
X128251217Y-106770534D01*
X128273669Y-106775000D01*
X128426331Y-106775000D01*
X128576059Y-106745217D01*
X128717100Y-106686796D01*
X128844034Y-106601982D01*
X128951982Y-106494034D01*
X129036796Y-106367100D01*
X129095217Y-106226059D01*
X129125000Y-106076331D01*
X129125000Y-105923669D01*
X129095217Y-105773941D01*
X129036796Y-105632900D01*
X128951982Y-105505966D01*
X128844034Y-105398018D01*
X128717100Y-105313204D01*
X128576059Y-105254783D01*
X128426331Y-105225000D01*
X128273669Y-105225000D01*
X128123941Y-105254783D01*
X127982900Y-105313204D01*
X127855966Y-105398018D01*
X127748018Y-105505966D01*
X127663204Y-105632900D01*
X127604783Y-105773941D01*
X127575000Y-105923669D01*
X127575000Y-106076331D01*
X127579466Y-106098783D01*
X126725000Y-106953249D01*
X126725000Y-106614700D01*
X126744034Y-106601982D01*
X126851982Y-106494034D01*
X126936796Y-106367100D01*
X126995217Y-106226059D01*
X127025000Y-106076331D01*
X127025000Y-105923669D01*
X126995217Y-105773941D01*
X126936796Y-105632900D01*
X126851982Y-105505966D01*
X126744034Y-105398018D01*
X126617100Y-105313204D01*
X126476059Y-105254783D01*
X126326331Y-105225000D01*
X126173669Y-105225000D01*
X126023941Y-105254783D01*
X125882900Y-105313204D01*
X125755966Y-105398018D01*
X125648018Y-105505966D01*
X125563204Y-105632900D01*
X125538517Y-105692501D01*
X125494034Y-105648018D01*
X125367100Y-105563204D01*
X125226059Y-105504783D01*
X125076331Y-105475000D01*
X124923669Y-105475000D01*
X124773941Y-105504783D01*
X124632900Y-105563204D01*
X124505966Y-105648018D01*
X124398018Y-105755966D01*
X124325000Y-105865246D01*
X124325000Y-103175000D01*
X138152484Y-103175000D01*
X138132444Y-103191446D01*
X138114437Y-103213388D01*
X137502826Y-103825000D01*
X136821016Y-103825000D01*
X136794034Y-103798018D01*
X136667100Y-103713204D01*
X136526059Y-103654783D01*
X136376331Y-103625000D01*
X136223669Y-103625000D01*
X136073941Y-103654783D01*
X135932900Y-103713204D01*
X135805966Y-103798018D01*
X135698018Y-103905966D01*
X135613204Y-104032900D01*
X135554783Y-104173941D01*
X135525000Y-104323669D01*
X135525000Y-104476331D01*
X135554783Y-104626059D01*
X135613204Y-104767100D01*
X135698018Y-104894034D01*
X135805966Y-105001982D01*
X135932900Y-105086796D01*
X136073941Y-105145217D01*
X136223669Y-105175000D01*
X136376331Y-105175000D01*
X136526059Y-105145217D01*
X136667100Y-105086796D01*
X136794034Y-105001982D01*
X136821016Y-104975000D01*
X137712755Y-104975000D01*
X137740998Y-104977782D01*
X137769241Y-104975000D01*
X137769244Y-104975000D01*
X137853718Y-104966680D01*
X137962106Y-104933801D01*
X138061996Y-104880408D01*
X138149552Y-104808554D01*
X138167563Y-104786607D01*
X138779171Y-104175000D01*
X141378984Y-104175000D01*
X141405966Y-104201982D01*
X141532900Y-104286796D01*
X141673941Y-104345217D01*
X141823669Y-104375000D01*
X141976331Y-104375000D01*
X142126059Y-104345217D01*
X142267100Y-104286796D01*
X142394034Y-104201982D01*
X142501982Y-104094034D01*
X142586796Y-103967100D01*
X142645217Y-103826059D01*
X142675000Y-103676331D01*
X142675000Y-103523669D01*
X142645217Y-103373941D01*
X142586796Y-103232900D01*
X142548109Y-103175000D01*
X147965477Y-103175000D01*
X147946132Y-103203952D01*
X147899019Y-103317694D01*
X147875000Y-103438443D01*
X147875000Y-103561557D01*
X147899019Y-103682306D01*
X147946132Y-103796048D01*
X148014531Y-103898414D01*
X148101586Y-103985469D01*
X148203952Y-104053868D01*
X148317694Y-104100981D01*
X148438443Y-104125000D01*
X148561557Y-104125000D01*
X148682306Y-104100981D01*
X148796048Y-104053868D01*
X148898414Y-103985469D01*
X148985469Y-103898414D01*
X149053868Y-103796048D01*
X149100981Y-103682306D01*
X149125000Y-103561557D01*
X149125000Y-103438443D01*
X149100981Y-103317694D01*
X149053868Y-103203952D01*
X149034523Y-103175000D01*
X151537564Y-103175000D01*
X152711672Y-104349109D01*
X152811524Y-104431055D01*
X152963532Y-104512305D01*
X153128470Y-104562339D01*
X153300000Y-104579233D01*
X153471529Y-104562339D01*
X153636467Y-104512305D01*
X153788475Y-104431055D01*
X153921711Y-104321711D01*
X154031055Y-104188475D01*
X154112305Y-104036467D01*
X154162339Y-103871529D01*
X154179233Y-103700000D01*
X154162339Y-103528470D01*
X154112305Y-103363532D01*
X154058002Y-103261938D01*
X154123669Y-103275000D01*
X154276331Y-103275000D01*
X154426059Y-103245217D01*
X154567100Y-103186796D01*
X154574648Y-103181753D01*
X156258301Y-104865407D01*
X156213204Y-104932900D01*
X156154783Y-105073941D01*
X156125000Y-105223669D01*
X156125000Y-105376331D01*
X156154783Y-105526059D01*
X156213204Y-105667100D01*
X156298018Y-105794034D01*
X156405966Y-105901982D01*
X156532900Y-105986796D01*
X156673941Y-106045217D01*
X156823669Y-106075000D01*
X156976331Y-106075000D01*
X157126059Y-106045217D01*
X157267100Y-105986796D01*
X157394034Y-105901982D01*
X157501982Y-105794034D01*
X157586796Y-105667100D01*
X157645217Y-105526059D01*
X157675000Y-105376331D01*
X157675000Y-105223669D01*
X157645217Y-105073941D01*
X157586796Y-104932900D01*
X157501982Y-104805966D01*
X157394034Y-104698018D01*
X157390934Y-104695947D01*
X157364175Y-104607733D01*
X157317746Y-104520871D01*
X157255264Y-104444736D01*
X157236181Y-104429075D01*
X154970929Y-102163824D01*
X154955264Y-102144736D01*
X154879129Y-102082254D01*
X154838415Y-102060492D01*
X154801982Y-102005966D01*
X154696016Y-101900000D01*
X166624876Y-101900000D01*
X166559666Y-101919781D01*
X166451089Y-101977817D01*
X166355920Y-102055920D01*
X166336346Y-102079771D01*
X163579772Y-104836346D01*
X163555921Y-104855920D01*
X163536348Y-104879770D01*
X163477818Y-104951089D01*
X163419782Y-105059666D01*
X163384044Y-105177479D01*
X163371977Y-105300000D01*
X163375001Y-105330704D01*
X163375000Y-112941116D01*
X162441118Y-113875000D01*
X160959585Y-113875000D01*
X160867100Y-113813204D01*
X160726059Y-113754783D01*
X160576331Y-113725000D01*
X160423669Y-113725000D01*
X160273941Y-113754783D01*
X160132900Y-113813204D01*
X160005966Y-113898018D01*
X159898018Y-114005966D01*
X159813204Y-114132900D01*
X159754783Y-114273941D01*
X159725000Y-114423669D01*
X159725000Y-114576331D01*
X159754783Y-114726059D01*
X159813204Y-114867100D01*
X159898018Y-114994034D01*
X160005966Y-115101982D01*
X160132900Y-115186796D01*
X160273941Y-115245217D01*
X160423669Y-115275000D01*
X160576331Y-115275000D01*
X160726059Y-115245217D01*
X160867100Y-115186796D01*
X160959585Y-115125000D01*
X162669306Y-115125000D01*
X162700000Y-115128023D01*
X162730694Y-115125000D01*
X162730704Y-115125000D01*
X162822521Y-115115957D01*
X162940334Y-115080219D01*
X163048911Y-115022183D01*
X163144080Y-114944080D01*
X163163658Y-114920224D01*
X164420236Y-113663648D01*
X164444080Y-113644080D01*
X164463649Y-113620235D01*
X164463653Y-113620231D01*
X164522183Y-113548912D01*
X164553204Y-113490876D01*
X164580219Y-113440334D01*
X164615957Y-113322521D01*
X164625000Y-113230704D01*
X164625000Y-113230702D01*
X164628024Y-113200000D01*
X164625000Y-113169298D01*
X164625000Y-112121461D01*
X164664816Y-112169591D01*
X164690561Y-112195156D01*
X164715905Y-112221037D01*
X164720203Y-112224592D01*
X164720210Y-112224599D01*
X164720218Y-112224604D01*
X164801123Y-112290590D01*
X164831338Y-112310665D01*
X164861234Y-112331135D01*
X164866147Y-112333792D01*
X164958338Y-112382811D01*
X164991874Y-112396634D01*
X165025179Y-112410908D01*
X165030511Y-112412559D01*
X165030517Y-112412561D01*
X165130472Y-112442739D01*
X165166057Y-112449785D01*
X165201497Y-112457318D01*
X165207052Y-112457902D01*
X165310966Y-112468091D01*
X165310970Y-112468091D01*
X165330353Y-112470000D01*
X177950000Y-112470000D01*
X177950001Y-113187759D01*
X177949603Y-113189878D01*
X177950001Y-113227163D01*
X177950001Y-113244647D01*
X177950210Y-113246772D01*
X177950444Y-113268666D01*
X177954064Y-113285902D01*
X177955789Y-113303414D01*
X177962140Y-113324350D01*
X177966640Y-113345776D01*
X177973552Y-113361971D01*
X177978661Y-113378814D01*
X177988978Y-113398115D01*
X177997569Y-113418245D01*
X178007506Y-113432778D01*
X178015804Y-113448303D01*
X178029685Y-113465218D01*
X178030898Y-113466991D01*
X178042196Y-113480462D01*
X178065790Y-113509211D01*
X178067453Y-113510576D01*
X178600000Y-114145536D01*
X178600001Y-116100000D01*
X115150000Y-116100000D01*
X115150000Y-114673657D01*
X126225000Y-114673657D01*
X126225000Y-114826319D01*
X126254783Y-114976047D01*
X126313204Y-115117088D01*
X126398018Y-115244022D01*
X126505966Y-115351970D01*
X126632900Y-115436784D01*
X126773941Y-115495205D01*
X126923669Y-115524988D01*
X127067893Y-115524988D01*
X127129091Y-115586186D01*
X127144748Y-115605264D01*
X127220883Y-115667746D01*
X127307745Y-115714175D01*
X127401995Y-115742765D01*
X127500012Y-115752419D01*
X127524572Y-115750000D01*
X144400440Y-115750000D01*
X144425000Y-115752419D01*
X144449560Y-115750000D01*
X144523017Y-115742765D01*
X144617267Y-115714175D01*
X144704129Y-115667746D01*
X144725753Y-115650000D01*
X144876331Y-115650000D01*
X145026059Y-115620217D01*
X145167100Y-115561796D01*
X145294034Y-115476982D01*
X145401982Y-115369034D01*
X145486796Y-115242100D01*
X145545217Y-115101059D01*
X145575000Y-114951331D01*
X145575000Y-114798669D01*
X145554652Y-114696371D01*
X149701900Y-114696371D01*
X149701900Y-114902829D01*
X149742178Y-115105319D01*
X149821186Y-115296061D01*
X149935888Y-115467725D01*
X150081875Y-115613712D01*
X150253539Y-115728414D01*
X150444281Y-115807422D01*
X150646771Y-115847700D01*
X150853229Y-115847700D01*
X151055719Y-115807422D01*
X151246461Y-115728414D01*
X151418125Y-115613712D01*
X151564112Y-115467725D01*
X151678814Y-115296061D01*
X151757822Y-115105319D01*
X151798100Y-114902829D01*
X151798100Y-114696371D01*
X152701900Y-114696371D01*
X152701900Y-114902829D01*
X152742178Y-115105319D01*
X152821186Y-115296061D01*
X152935888Y-115467725D01*
X153081875Y-115613712D01*
X153253539Y-115728414D01*
X153444281Y-115807422D01*
X153646771Y-115847700D01*
X153853229Y-115847700D01*
X154055719Y-115807422D01*
X154246461Y-115728414D01*
X154418125Y-115613712D01*
X154564112Y-115467725D01*
X154678814Y-115296061D01*
X154757822Y-115105319D01*
X154798100Y-114902829D01*
X154798100Y-114696371D01*
X154757822Y-114493881D01*
X154678814Y-114303139D01*
X154564112Y-114131475D01*
X154418125Y-113985488D01*
X154246461Y-113870786D01*
X154055719Y-113791778D01*
X153853229Y-113751500D01*
X153646771Y-113751500D01*
X153444281Y-113791778D01*
X153253539Y-113870786D01*
X153081875Y-113985488D01*
X152935888Y-114131475D01*
X152821186Y-114303139D01*
X152742178Y-114493881D01*
X152701900Y-114696371D01*
X151798100Y-114696371D01*
X151757822Y-114493881D01*
X151678814Y-114303139D01*
X151564112Y-114131475D01*
X151418125Y-113985488D01*
X151246461Y-113870786D01*
X151055719Y-113791778D01*
X150853229Y-113751500D01*
X150646771Y-113751500D01*
X150444281Y-113791778D01*
X150253539Y-113870786D01*
X150081875Y-113985488D01*
X149935888Y-114131475D01*
X149821186Y-114303139D01*
X149742178Y-114493881D01*
X149701900Y-114696371D01*
X145554652Y-114696371D01*
X145545217Y-114648941D01*
X145493879Y-114525000D01*
X145526331Y-114525000D01*
X145676059Y-114495217D01*
X145817100Y-114436796D01*
X145944034Y-114351982D01*
X146051982Y-114244034D01*
X146136796Y-114117100D01*
X146195217Y-113976059D01*
X146225000Y-113826331D01*
X146225000Y-113673669D01*
X146195217Y-113523941D01*
X146136796Y-113382900D01*
X146051982Y-113255966D01*
X145944034Y-113148018D01*
X145817100Y-113063204D01*
X145676059Y-113004783D01*
X145526331Y-112975000D01*
X145382106Y-112975000D01*
X144945943Y-112538838D01*
X144930278Y-112519750D01*
X144854143Y-112457268D01*
X144767281Y-112410839D01*
X144673031Y-112382249D01*
X144599574Y-112375014D01*
X144575014Y-112372595D01*
X144550454Y-112375014D01*
X140296016Y-112375014D01*
X140244671Y-112323669D01*
X147924982Y-112323669D01*
X147924982Y-112476331D01*
X147954765Y-112626059D01*
X148013186Y-112767100D01*
X148098000Y-112894034D01*
X148205948Y-113001982D01*
X148332882Y-113086796D01*
X148473923Y-113145217D01*
X148623651Y-113175000D01*
X148776313Y-113175000D01*
X148926041Y-113145217D01*
X149067082Y-113086796D01*
X149090963Y-113070839D01*
X157827821Y-113070839D01*
X157827821Y-113223501D01*
X157857604Y-113373229D01*
X157916025Y-113514270D01*
X158000839Y-113641204D01*
X158108787Y-113749152D01*
X158235721Y-113833966D01*
X158376762Y-113892387D01*
X158526490Y-113922170D01*
X158679152Y-113922170D01*
X158828880Y-113892387D01*
X158969921Y-113833966D01*
X159096855Y-113749152D01*
X159204803Y-113641204D01*
X159289617Y-113514270D01*
X159348038Y-113373229D01*
X159377821Y-113223501D01*
X159377821Y-113079275D01*
X160683691Y-111773407D01*
X160702768Y-111757751D01*
X160765250Y-111681616D01*
X160808465Y-111600767D01*
X160811678Y-111594756D01*
X160816397Y-111579199D01*
X160840269Y-111500504D01*
X160847504Y-111427047D01*
X160847504Y-111427038D01*
X160849922Y-111402488D01*
X160847504Y-111377938D01*
X160847504Y-110857201D01*
X160949486Y-110755219D01*
X161034300Y-110628285D01*
X161092721Y-110487244D01*
X161122504Y-110337516D01*
X161122504Y-110184854D01*
X161092721Y-110035126D01*
X161034300Y-109894085D01*
X160949486Y-109767151D01*
X160841538Y-109659203D01*
X160714604Y-109574389D01*
X160573563Y-109515968D01*
X160423835Y-109486185D01*
X160271173Y-109486185D01*
X160121445Y-109515968D01*
X159980404Y-109574389D01*
X159853470Y-109659203D01*
X159745522Y-109767151D01*
X159660708Y-109894085D01*
X159602287Y-110035126D01*
X159572504Y-110184854D01*
X159572504Y-110337516D01*
X159602287Y-110487244D01*
X159660708Y-110628285D01*
X159745522Y-110755219D01*
X159847505Y-110857202D01*
X159847505Y-111195379D01*
X158670716Y-112372170D01*
X158526490Y-112372170D01*
X158376762Y-112401953D01*
X158235721Y-112460374D01*
X158108787Y-112545188D01*
X158000839Y-112653136D01*
X157916025Y-112780070D01*
X157857604Y-112921111D01*
X157827821Y-113070839D01*
X149090963Y-113070839D01*
X149194016Y-113001982D01*
X149301964Y-112894034D01*
X149386778Y-112767100D01*
X149445199Y-112626059D01*
X149474982Y-112476331D01*
X149474982Y-112438172D01*
X150138155Y-111775000D01*
X155271757Y-111775000D01*
X155300000Y-111777782D01*
X155328243Y-111775000D01*
X155328246Y-111775000D01*
X155412720Y-111766680D01*
X155521108Y-111733801D01*
X155620998Y-111680408D01*
X155708554Y-111608554D01*
X155726565Y-111586607D01*
X156725387Y-110587785D01*
X156725387Y-110710529D01*
X156755170Y-110860257D01*
X156813591Y-111001298D01*
X156898405Y-111128232D01*
X157006353Y-111236180D01*
X157133287Y-111320994D01*
X157274328Y-111379415D01*
X157424056Y-111409198D01*
X157576718Y-111409198D01*
X157726446Y-111379415D01*
X157867487Y-111320994D01*
X157994421Y-111236180D01*
X158102369Y-111128232D01*
X158187183Y-111001298D01*
X158245604Y-110860257D01*
X158275387Y-110710529D01*
X158275387Y-110672370D01*
X159772759Y-109174999D01*
X161471758Y-109174999D01*
X161500001Y-109177781D01*
X161528244Y-109174999D01*
X161528247Y-109174999D01*
X161612721Y-109166679D01*
X161721109Y-109133800D01*
X161820999Y-109080407D01*
X161827588Y-109075000D01*
X161876331Y-109075000D01*
X162026059Y-109045217D01*
X162167100Y-108986796D01*
X162294034Y-108901982D01*
X162401982Y-108794034D01*
X162486796Y-108667100D01*
X162545217Y-108526059D01*
X162575000Y-108376331D01*
X162575000Y-108223669D01*
X162545217Y-108073941D01*
X162486796Y-107932900D01*
X162401982Y-107805966D01*
X162294034Y-107698018D01*
X162167100Y-107613204D01*
X162026059Y-107554783D01*
X161876331Y-107525000D01*
X161723669Y-107525000D01*
X161573941Y-107554783D01*
X161432900Y-107613204D01*
X161305966Y-107698018D01*
X161198018Y-107805966D01*
X161113204Y-107932900D01*
X161075055Y-108024999D01*
X161039449Y-108024999D01*
X161045217Y-108011075D01*
X161075000Y-107861347D01*
X161075000Y-107708685D01*
X161045217Y-107558957D01*
X160986796Y-107417916D01*
X160901982Y-107290982D01*
X160794034Y-107183034D01*
X160667100Y-107098220D01*
X160526059Y-107039799D01*
X160376331Y-107010016D01*
X160223669Y-107010016D01*
X160073941Y-107039799D01*
X159932900Y-107098220D01*
X159805966Y-107183034D01*
X159778984Y-107210016D01*
X158743227Y-107210016D01*
X158714984Y-107207234D01*
X158686741Y-107210016D01*
X158686738Y-107210016D01*
X158602264Y-107218336D01*
X158493876Y-107251215D01*
X158393986Y-107304608D01*
X158306430Y-107376462D01*
X158288423Y-107398404D01*
X155061828Y-110625000D01*
X149928224Y-110625000D01*
X149899981Y-110622218D01*
X149871738Y-110625000D01*
X149871736Y-110625000D01*
X149787262Y-110633320D01*
X149698202Y-110660336D01*
X149678874Y-110666199D01*
X149578983Y-110719592D01*
X149535572Y-110755219D01*
X149491428Y-110791446D01*
X149473422Y-110813387D01*
X148661810Y-111625000D01*
X148623651Y-111625000D01*
X148473923Y-111654783D01*
X148332882Y-111713204D01*
X148205948Y-111798018D01*
X148098000Y-111905966D01*
X148013186Y-112032900D01*
X147954765Y-112173941D01*
X147924982Y-112323669D01*
X140244671Y-112323669D01*
X140194034Y-112273032D01*
X140067100Y-112188218D01*
X139926059Y-112129797D01*
X139776331Y-112100014D01*
X139623669Y-112100014D01*
X139473941Y-112129797D01*
X139332900Y-112188218D01*
X139205966Y-112273032D01*
X139098018Y-112380980D01*
X139013204Y-112507914D01*
X138954783Y-112648955D01*
X138925000Y-112798683D01*
X138925000Y-112951345D01*
X138954783Y-113101073D01*
X139013204Y-113242114D01*
X139098018Y-113369048D01*
X139205966Y-113476996D01*
X139332900Y-113561810D01*
X139343110Y-113566039D01*
X139273941Y-113579798D01*
X139132900Y-113638219D01*
X139005966Y-113723033D01*
X138898018Y-113830981D01*
X138813204Y-113957915D01*
X138754783Y-114098956D01*
X138725000Y-114248684D01*
X138725000Y-114300000D01*
X129745430Y-114300000D01*
X129745217Y-114298931D01*
X129686796Y-114157890D01*
X129601982Y-114030956D01*
X129494034Y-113923008D01*
X129367100Y-113838194D01*
X129226059Y-113779773D01*
X129076331Y-113749990D01*
X128923669Y-113749990D01*
X128773941Y-113779773D01*
X128632900Y-113838194D01*
X128505966Y-113923008D01*
X128398018Y-114030956D01*
X128313204Y-114157890D01*
X128254783Y-114298931D01*
X128225000Y-114448659D01*
X128225000Y-114601321D01*
X128254574Y-114750000D01*
X127775000Y-114750000D01*
X127775000Y-114673657D01*
X127745217Y-114523929D01*
X127686796Y-114382888D01*
X127601982Y-114255954D01*
X127494034Y-114148006D01*
X127367100Y-114063192D01*
X127226059Y-114004771D01*
X127076331Y-113974988D01*
X126923669Y-113974988D01*
X126773941Y-114004771D01*
X126632900Y-114063192D01*
X126505966Y-114148006D01*
X126398018Y-114255954D01*
X126313204Y-114382888D01*
X126254783Y-114523929D01*
X126225000Y-114673657D01*
X115150000Y-114673657D01*
X115150000Y-105359524D01*
X116117500Y-105359524D01*
X116117500Y-112640476D01*
X118517500Y-112640476D01*
X118517500Y-105359524D01*
X116117500Y-105359524D01*
X115150000Y-105359524D01*
X115150000Y-101900000D01*
X123112564Y-101900000D01*
X122861681Y-102150883D01*
G04 #@! TA.AperFunction,Conductor*
D23*
G36*
X122861681Y-102150883D02*
G01*
X122828288Y-102178288D01*
X122718944Y-102311525D01*
X122637696Y-102463532D01*
X122637695Y-102463533D01*
X122587661Y-102628471D01*
X122570767Y-102800000D01*
X122575000Y-102842979D01*
X122575001Y-105906823D01*
X122571256Y-105944851D01*
X122266108Y-106250000D01*
X121845304Y-106250000D01*
X121729182Y-106201901D01*
X121593944Y-106175000D01*
X121456056Y-106175000D01*
X121320818Y-106201901D01*
X121204696Y-106250000D01*
X120495304Y-106250000D01*
X120379182Y-106201901D01*
X120243944Y-106175000D01*
X120106056Y-106175000D01*
X119970818Y-106201901D01*
X119843426Y-106254668D01*
X119728776Y-106331274D01*
X119631274Y-106428776D01*
X119554668Y-106543426D01*
X119501901Y-106670818D01*
X119475000Y-106806056D01*
X119475000Y-106943944D01*
X119501901Y-107079182D01*
X119554668Y-107206574D01*
X119617093Y-107300000D01*
X119554668Y-107393426D01*
X119501901Y-107520818D01*
X119475000Y-107656056D01*
X119475000Y-107793944D01*
X119501901Y-107929182D01*
X119554668Y-108056574D01*
X119617093Y-108150000D01*
X119554668Y-108243426D01*
X119501901Y-108370818D01*
X119475000Y-108506056D01*
X119475000Y-108643944D01*
X119501901Y-108779182D01*
X119554668Y-108906574D01*
X119617093Y-109000000D01*
X119554668Y-109093426D01*
X119501901Y-109220818D01*
X119475000Y-109356056D01*
X119475000Y-109493944D01*
X119501901Y-109629182D01*
X119554668Y-109756574D01*
X119617093Y-109850000D01*
X119554668Y-109943426D01*
X119501901Y-110070818D01*
X119475000Y-110206056D01*
X119475000Y-110343944D01*
X119501901Y-110479182D01*
X119554668Y-110606574D01*
X119617093Y-110700000D01*
X119554668Y-110793426D01*
X119501901Y-110920818D01*
X119475000Y-111056056D01*
X119475000Y-111193944D01*
X119501901Y-111329182D01*
X119554668Y-111456574D01*
X119631274Y-111571224D01*
X119728776Y-111668726D01*
X119843426Y-111745332D01*
X119970818Y-111798099D01*
X120106056Y-111825000D01*
X120243944Y-111825000D01*
X120379182Y-111798099D01*
X120495304Y-111750000D01*
X121204696Y-111750000D01*
X121320818Y-111798099D01*
X121456056Y-111825000D01*
X121593944Y-111825000D01*
X121729182Y-111798099D01*
X121845304Y-111750000D01*
X123411042Y-111750000D01*
X123441736Y-111753023D01*
X123472430Y-111750000D01*
X123472440Y-111750000D01*
X123516497Y-111745661D01*
X123504783Y-111773941D01*
X123475000Y-111923669D01*
X123475000Y-112076331D01*
X123504783Y-112226059D01*
X123563204Y-112367100D01*
X123568483Y-112375000D01*
X123563204Y-112382900D01*
X123548560Y-112418255D01*
X123530530Y-112451986D01*
X123519427Y-112488587D01*
X123504783Y-112523941D01*
X123497318Y-112561469D01*
X123486214Y-112598074D01*
X123482465Y-112636141D01*
X123475000Y-112673669D01*
X123475000Y-112711935D01*
X123471251Y-112750000D01*
X123475000Y-112788065D01*
X123475000Y-112826331D01*
X123482465Y-112863859D01*
X123486214Y-112901926D01*
X123497318Y-112938531D01*
X123504783Y-112976059D01*
X123519427Y-113011413D01*
X123530530Y-113048014D01*
X123548560Y-113081745D01*
X123563204Y-113117100D01*
X123584464Y-113148918D01*
X123602494Y-113182650D01*
X123626758Y-113212216D01*
X123648018Y-113244034D01*
X123675077Y-113271093D01*
X123699341Y-113300659D01*
X123728907Y-113324923D01*
X123755966Y-113351982D01*
X123787784Y-113373242D01*
X123817350Y-113397506D01*
X123851082Y-113415536D01*
X123882900Y-113436796D01*
X123918255Y-113451440D01*
X123951986Y-113469470D01*
X123988587Y-113480573D01*
X124023941Y-113495217D01*
X124061469Y-113502682D01*
X124098074Y-113513786D01*
X124136141Y-113517535D01*
X124173669Y-113525000D01*
X133186937Y-113525000D01*
X133225000Y-113528749D01*
X133263063Y-113525000D01*
X133263065Y-113525000D01*
X133376926Y-113513786D01*
X133523014Y-113469470D01*
X133657650Y-113397506D01*
X133775659Y-113300659D01*
X133799932Y-113271082D01*
X134821015Y-112250000D01*
X135086937Y-112250000D01*
X135125000Y-112253749D01*
X135163063Y-112250000D01*
X135163065Y-112250000D01*
X135276926Y-112238786D01*
X135423014Y-112194470D01*
X135557650Y-112122506D01*
X135675659Y-112025659D01*
X135699932Y-111996082D01*
X136032201Y-111663813D01*
X137856018Y-111663813D01*
X137856018Y-111816475D01*
X137885801Y-111966203D01*
X137944222Y-112107244D01*
X138029036Y-112234178D01*
X138136984Y-112342126D01*
X138263918Y-112426940D01*
X138404959Y-112485361D01*
X138554687Y-112515144D01*
X138707349Y-112515144D01*
X138857077Y-112485361D01*
X138998118Y-112426940D01*
X139125052Y-112342126D01*
X139233000Y-112234178D01*
X139317814Y-112107244D01*
X139372591Y-111975000D01*
X142471757Y-111975000D01*
X142500000Y-111977782D01*
X142528243Y-111975000D01*
X142528246Y-111975000D01*
X142612720Y-111966680D01*
X142721108Y-111933801D01*
X142820998Y-111880408D01*
X142908554Y-111808554D01*
X142926565Y-111786607D01*
X146078355Y-108634818D01*
X152312146Y-108634818D01*
X152339128Y-108661800D01*
X152466062Y-108746614D01*
X152607103Y-108805035D01*
X152756831Y-108834818D01*
X152909493Y-108834818D01*
X153059221Y-108805035D01*
X153200262Y-108746614D01*
X153327196Y-108661800D01*
X153435144Y-108553852D01*
X153519958Y-108426918D01*
X153578379Y-108285877D01*
X153608162Y-108136149D01*
X153608162Y-107983487D01*
X153578379Y-107833759D01*
X153519958Y-107692718D01*
X153435144Y-107565784D01*
X153327196Y-107457836D01*
X153200262Y-107373022D01*
X153059221Y-107314601D01*
X152909493Y-107284818D01*
X152756831Y-107284818D01*
X152607103Y-107314601D01*
X152466062Y-107373022D01*
X152339128Y-107457836D01*
X152312146Y-107484818D01*
X145868425Y-107484818D01*
X145840182Y-107482036D01*
X145811939Y-107484818D01*
X145811936Y-107484818D01*
X145727462Y-107493138D01*
X145619074Y-107526017D01*
X145519184Y-107579410D01*
X145431628Y-107651264D01*
X145413621Y-107673206D01*
X142261828Y-110825000D01*
X138999404Y-110825000D01*
X138971161Y-110822218D01*
X138942918Y-110825000D01*
X138942916Y-110825000D01*
X138858442Y-110833320D01*
X138760049Y-110863167D01*
X138750054Y-110866199D01*
X138650163Y-110919592D01*
X138630737Y-110935535D01*
X138594658Y-110965144D01*
X138554687Y-110965144D01*
X138404959Y-110994927D01*
X138263918Y-111053348D01*
X138136984Y-111138162D01*
X138029036Y-111246110D01*
X137944222Y-111373044D01*
X137885801Y-111514085D01*
X137856018Y-111663813D01*
X136032201Y-111663813D01*
X136269201Y-111426814D01*
X137050000Y-111426814D01*
X137123513Y-111419574D01*
X137194200Y-111398131D01*
X137259347Y-111363309D01*
X137316448Y-111316448D01*
X137363309Y-111259347D01*
X137398131Y-111194200D01*
X137419574Y-111123513D01*
X137426814Y-111050000D01*
X137426814Y-110375000D01*
X138111937Y-110375000D01*
X138150000Y-110378749D01*
X138188063Y-110375000D01*
X138188065Y-110375000D01*
X138301926Y-110363786D01*
X138448014Y-110319470D01*
X138582650Y-110247506D01*
X138700659Y-110150659D01*
X138724933Y-110121081D01*
X138744028Y-110101986D01*
X138744034Y-110101982D01*
X138851982Y-109994034D01*
X138873248Y-109962208D01*
X138897505Y-109932650D01*
X138915531Y-109898926D01*
X138936796Y-109867100D01*
X138951444Y-109831737D01*
X138969469Y-109798014D01*
X138980569Y-109761422D01*
X138995217Y-109726059D01*
X139002684Y-109688521D01*
X139013785Y-109651926D01*
X139017534Y-109613866D01*
X139025000Y-109576331D01*
X139025000Y-109538063D01*
X139028749Y-109500001D01*
X139025000Y-109461938D01*
X139025000Y-109423669D01*
X139017534Y-109386133D01*
X139013785Y-109348075D01*
X139002684Y-109311481D01*
X138995217Y-109273941D01*
X138980569Y-109238578D01*
X138969469Y-109201986D01*
X138951444Y-109168263D01*
X138936796Y-109132900D01*
X138915531Y-109101074D01*
X138897505Y-109067350D01*
X138873247Y-109037792D01*
X138851982Y-109005966D01*
X138824914Y-108978898D01*
X138800658Y-108949342D01*
X138771102Y-108925086D01*
X138744034Y-108898018D01*
X138712208Y-108876753D01*
X138682650Y-108852495D01*
X138648926Y-108834469D01*
X138617100Y-108813204D01*
X138581737Y-108798556D01*
X138548014Y-108780531D01*
X138511422Y-108769431D01*
X138476059Y-108754783D01*
X138438519Y-108747316D01*
X138401925Y-108736215D01*
X138363867Y-108732466D01*
X138326331Y-108725000D01*
X138288062Y-108725000D01*
X138249999Y-108721251D01*
X138211937Y-108725000D01*
X138173669Y-108725000D01*
X138136134Y-108732466D01*
X138098074Y-108736215D01*
X138061479Y-108747316D01*
X138023941Y-108754783D01*
X137988578Y-108769431D01*
X137951986Y-108780531D01*
X137918263Y-108798556D01*
X137882900Y-108813204D01*
X137865246Y-108825000D01*
X137038062Y-108825000D01*
X136999999Y-108821251D01*
X136961936Y-108825000D01*
X136961935Y-108825000D01*
X136848074Y-108836214D01*
X136701986Y-108880530D01*
X136567350Y-108952494D01*
X136449341Y-109049341D01*
X136425076Y-109078908D01*
X136330798Y-109173186D01*
X136269200Y-109173186D01*
X136093389Y-108997375D01*
X136069116Y-108967798D01*
X135951107Y-108870951D01*
X135816471Y-108798987D01*
X135774082Y-108786128D01*
X135786796Y-108767100D01*
X135845217Y-108626059D01*
X135875000Y-108476331D01*
X135875000Y-108332106D01*
X136805545Y-107401561D01*
X136805966Y-107401982D01*
X136932900Y-107486796D01*
X137073941Y-107545217D01*
X137223669Y-107575000D01*
X137376331Y-107575000D01*
X137526059Y-107545217D01*
X137667100Y-107486796D01*
X137794034Y-107401982D01*
X137901982Y-107294034D01*
X137986796Y-107167100D01*
X138045217Y-107026059D01*
X138075000Y-106876331D01*
X138075000Y-106723669D01*
X138045217Y-106573941D01*
X137986796Y-106432900D01*
X137901982Y-106305966D01*
X137794034Y-106198018D01*
X137667100Y-106113204D01*
X137526059Y-106054783D01*
X137376331Y-106025000D01*
X137223669Y-106025000D01*
X137073941Y-106054783D01*
X136932900Y-106113204D01*
X136805966Y-106198018D01*
X136705829Y-106298155D01*
X136700000Y-106297581D01*
X136675440Y-106300000D01*
X136601983Y-106307235D01*
X136507733Y-106335825D01*
X136420871Y-106382254D01*
X136344736Y-106444736D01*
X136329080Y-106463813D01*
X135167894Y-107625000D01*
X135023669Y-107625000D01*
X134873941Y-107654783D01*
X134732900Y-107713204D01*
X134605966Y-107798018D01*
X134498018Y-107905966D01*
X134413204Y-108032900D01*
X134354783Y-108173941D01*
X134325000Y-108323669D01*
X134325000Y-108476331D01*
X134354783Y-108626059D01*
X134404456Y-108745980D01*
X134379612Y-108750922D01*
X134341545Y-108754671D01*
X134304940Y-108765775D01*
X134267412Y-108773240D01*
X134232058Y-108787884D01*
X134195457Y-108798987D01*
X134161726Y-108817017D01*
X134126371Y-108831661D01*
X134094553Y-108852921D01*
X134060821Y-108870951D01*
X134031255Y-108895215D01*
X133999437Y-108916475D01*
X133972378Y-108943534D01*
X133942812Y-108967798D01*
X133918548Y-108997364D01*
X133891489Y-109024423D01*
X133870229Y-109056241D01*
X133845965Y-109085807D01*
X133827935Y-109119539D01*
X133806675Y-109151357D01*
X133792031Y-109186712D01*
X133774001Y-109220443D01*
X133762898Y-109257044D01*
X133748254Y-109292398D01*
X133740789Y-109329926D01*
X133729685Y-109366531D01*
X133725936Y-109404598D01*
X133718471Y-109442126D01*
X133718471Y-109480392D01*
X133714722Y-109518457D01*
X133718471Y-109556522D01*
X133718471Y-109594788D01*
X133725936Y-109632316D01*
X133729685Y-109670383D01*
X133740789Y-109706988D01*
X133748254Y-109744516D01*
X133762898Y-109779870D01*
X133774001Y-109816471D01*
X133792031Y-109850202D01*
X133806675Y-109885557D01*
X133827935Y-109917375D01*
X133845965Y-109951107D01*
X133870229Y-109980673D01*
X133891489Y-110012491D01*
X133918546Y-110039548D01*
X133942812Y-110069116D01*
X133972378Y-110093380D01*
X133999437Y-110120439D01*
X134031255Y-110141699D01*
X134060821Y-110165963D01*
X134094553Y-110183993D01*
X134126371Y-110205253D01*
X134161726Y-110219897D01*
X134195457Y-110237927D01*
X134232058Y-110249030D01*
X134267412Y-110263674D01*
X134304940Y-110271139D01*
X134341545Y-110282243D01*
X134379612Y-110285992D01*
X134417140Y-110293457D01*
X135173186Y-110293457D01*
X135173186Y-110330799D01*
X134803986Y-110700000D01*
X134538062Y-110700000D01*
X134499999Y-110696251D01*
X134461936Y-110700000D01*
X134423669Y-110700000D01*
X134386141Y-110707465D01*
X134348074Y-110711214D01*
X134311469Y-110722318D01*
X134273941Y-110729783D01*
X134238587Y-110744427D01*
X134201986Y-110755530D01*
X134168255Y-110773560D01*
X134132900Y-110788204D01*
X134101082Y-110809464D01*
X134067350Y-110827494D01*
X134037784Y-110851758D01*
X134005966Y-110873018D01*
X133978907Y-110900077D01*
X133949341Y-110924341D01*
X133925077Y-110953907D01*
X133898018Y-110980966D01*
X133898016Y-110980969D01*
X132903986Y-111975000D01*
X125025000Y-111975000D01*
X125025000Y-111923669D01*
X124995217Y-111773941D01*
X124936796Y-111632900D01*
X124931052Y-111624304D01*
X124944394Y-111622990D01*
X124980999Y-111611886D01*
X125018527Y-111604421D01*
X125053881Y-111589777D01*
X125090482Y-111578674D01*
X125124213Y-111560644D01*
X125159568Y-111546000D01*
X125191386Y-111524740D01*
X125225118Y-111506710D01*
X125254684Y-111482446D01*
X125286502Y-111461186D01*
X125313561Y-111434127D01*
X125343127Y-111409863D01*
X125367391Y-111380297D01*
X125394450Y-111353238D01*
X125415710Y-111321420D01*
X125439974Y-111291854D01*
X125458004Y-111258122D01*
X125479264Y-111226304D01*
X125493908Y-111190949D01*
X125511938Y-111157218D01*
X125523041Y-111120617D01*
X125537685Y-111085263D01*
X125545150Y-111047735D01*
X125556254Y-111011130D01*
X125560003Y-110973063D01*
X125567468Y-110935535D01*
X125567468Y-110897269D01*
X125571217Y-110859204D01*
X125567468Y-110821139D01*
X125567468Y-110782873D01*
X125560003Y-110745345D01*
X125556254Y-110707278D01*
X125545150Y-110670673D01*
X125537685Y-110633145D01*
X125523041Y-110597791D01*
X125511938Y-110561190D01*
X125493908Y-110527459D01*
X125479264Y-110492104D01*
X125458004Y-110460286D01*
X125439974Y-110426554D01*
X125415710Y-110396988D01*
X125394450Y-110365170D01*
X125367391Y-110338111D01*
X125343127Y-110308545D01*
X125313561Y-110284281D01*
X125286502Y-110257222D01*
X125254684Y-110235962D01*
X125225118Y-110211698D01*
X125191386Y-110193668D01*
X125159568Y-110172408D01*
X125124213Y-110157764D01*
X125090482Y-110139734D01*
X125053881Y-110128631D01*
X125018527Y-110113987D01*
X124980999Y-110106522D01*
X124944394Y-110095418D01*
X124906327Y-110091669D01*
X124868799Y-110084204D01*
X123631201Y-110084204D01*
X123593673Y-110091669D01*
X123555606Y-110095418D01*
X123519001Y-110106522D01*
X123481473Y-110113987D01*
X123446119Y-110128631D01*
X123409518Y-110139734D01*
X123375787Y-110157764D01*
X123340432Y-110172408D01*
X123308614Y-110193668D01*
X123274882Y-110211698D01*
X123245316Y-110235962D01*
X123213498Y-110257222D01*
X123186439Y-110284281D01*
X123156873Y-110308545D01*
X123132609Y-110338111D01*
X123105550Y-110365170D01*
X123084290Y-110396988D01*
X123060026Y-110426554D01*
X123041996Y-110460286D01*
X123020736Y-110492104D01*
X123017465Y-110500000D01*
X122189476Y-110500000D01*
X122198099Y-110479182D01*
X122225000Y-110343944D01*
X122225000Y-110206056D01*
X122198099Y-110070818D01*
X122145332Y-109943426D01*
X122116316Y-109900000D01*
X124901668Y-109900000D01*
X124925000Y-109902298D01*
X124948332Y-109900000D01*
X124968487Y-109898015D01*
X125018116Y-109893127D01*
X125031147Y-109889174D01*
X125107654Y-109865966D01*
X125190173Y-109821859D01*
X125262501Y-109762501D01*
X125277384Y-109744366D01*
X126920572Y-108101180D01*
X126920581Y-108101169D01*
X128251217Y-106770534D01*
X128273669Y-106775000D01*
X128426331Y-106775000D01*
X128576059Y-106745217D01*
X128717100Y-106686796D01*
X128844034Y-106601982D01*
X128951982Y-106494034D01*
X129036796Y-106367100D01*
X129095217Y-106226059D01*
X129125000Y-106076331D01*
X129125000Y-105923669D01*
X129095217Y-105773941D01*
X129036796Y-105632900D01*
X128951982Y-105505966D01*
X128844034Y-105398018D01*
X128717100Y-105313204D01*
X128576059Y-105254783D01*
X128426331Y-105225000D01*
X128273669Y-105225000D01*
X128123941Y-105254783D01*
X127982900Y-105313204D01*
X127855966Y-105398018D01*
X127748018Y-105505966D01*
X127663204Y-105632900D01*
X127604783Y-105773941D01*
X127575000Y-105923669D01*
X127575000Y-106076331D01*
X127579466Y-106098783D01*
X126725000Y-106953249D01*
X126725000Y-106614700D01*
X126744034Y-106601982D01*
X126851982Y-106494034D01*
X126936796Y-106367100D01*
X126995217Y-106226059D01*
X127025000Y-106076331D01*
X127025000Y-105923669D01*
X126995217Y-105773941D01*
X126936796Y-105632900D01*
X126851982Y-105505966D01*
X126744034Y-105398018D01*
X126617100Y-105313204D01*
X126476059Y-105254783D01*
X126326331Y-105225000D01*
X126173669Y-105225000D01*
X126023941Y-105254783D01*
X125882900Y-105313204D01*
X125755966Y-105398018D01*
X125648018Y-105505966D01*
X125563204Y-105632900D01*
X125538517Y-105692501D01*
X125494034Y-105648018D01*
X125367100Y-105563204D01*
X125226059Y-105504783D01*
X125076331Y-105475000D01*
X124923669Y-105475000D01*
X124773941Y-105504783D01*
X124632900Y-105563204D01*
X124505966Y-105648018D01*
X124398018Y-105755966D01*
X124325000Y-105865246D01*
X124325000Y-103175000D01*
X138152484Y-103175000D01*
X138132444Y-103191446D01*
X138114437Y-103213388D01*
X137502826Y-103825000D01*
X136821016Y-103825000D01*
X136794034Y-103798018D01*
X136667100Y-103713204D01*
X136526059Y-103654783D01*
X136376331Y-103625000D01*
X136223669Y-103625000D01*
X136073941Y-103654783D01*
X135932900Y-103713204D01*
X135805966Y-103798018D01*
X135698018Y-103905966D01*
X135613204Y-104032900D01*
X135554783Y-104173941D01*
X135525000Y-104323669D01*
X135525000Y-104476331D01*
X135554783Y-104626059D01*
X135613204Y-104767100D01*
X135698018Y-104894034D01*
X135805966Y-105001982D01*
X135932900Y-105086796D01*
X136073941Y-105145217D01*
X136223669Y-105175000D01*
X136376331Y-105175000D01*
X136526059Y-105145217D01*
X136667100Y-105086796D01*
X136794034Y-105001982D01*
X136821016Y-104975000D01*
X137712755Y-104975000D01*
X137740998Y-104977782D01*
X137769241Y-104975000D01*
X137769244Y-104975000D01*
X137853718Y-104966680D01*
X137962106Y-104933801D01*
X138061996Y-104880408D01*
X138149552Y-104808554D01*
X138167563Y-104786607D01*
X138779171Y-104175000D01*
X141378984Y-104175000D01*
X141405966Y-104201982D01*
X141532900Y-104286796D01*
X141673941Y-104345217D01*
X141823669Y-104375000D01*
X141976331Y-104375000D01*
X142126059Y-104345217D01*
X142267100Y-104286796D01*
X142394034Y-104201982D01*
X142501982Y-104094034D01*
X142586796Y-103967100D01*
X142645217Y-103826059D01*
X142675000Y-103676331D01*
X142675000Y-103523669D01*
X142645217Y-103373941D01*
X142586796Y-103232900D01*
X142548109Y-103175000D01*
X147965477Y-103175000D01*
X147946132Y-103203952D01*
X147899019Y-103317694D01*
X147875000Y-103438443D01*
X147875000Y-103561557D01*
X147899019Y-103682306D01*
X147946132Y-103796048D01*
X148014531Y-103898414D01*
X148101586Y-103985469D01*
X148203952Y-104053868D01*
X148317694Y-104100981D01*
X148438443Y-104125000D01*
X148561557Y-104125000D01*
X148682306Y-104100981D01*
X148796048Y-104053868D01*
X148898414Y-103985469D01*
X148985469Y-103898414D01*
X149053868Y-103796048D01*
X149100981Y-103682306D01*
X149125000Y-103561557D01*
X149125000Y-103438443D01*
X149100981Y-103317694D01*
X149053868Y-103203952D01*
X149034523Y-103175000D01*
X151537564Y-103175000D01*
X152711672Y-104349109D01*
X152811524Y-104431055D01*
X152963532Y-104512305D01*
X153128470Y-104562339D01*
X153300000Y-104579233D01*
X153471529Y-104562339D01*
X153636467Y-104512305D01*
X153788475Y-104431055D01*
X153921711Y-104321711D01*
X154031055Y-104188475D01*
X154112305Y-104036467D01*
X154162339Y-103871529D01*
X154179233Y-103700000D01*
X154162339Y-103528470D01*
X154112305Y-103363532D01*
X154058002Y-103261938D01*
X154123669Y-103275000D01*
X154276331Y-103275000D01*
X154426059Y-103245217D01*
X154567100Y-103186796D01*
X154574648Y-103181753D01*
X156258301Y-104865407D01*
X156213204Y-104932900D01*
X156154783Y-105073941D01*
X156125000Y-105223669D01*
X156125000Y-105376331D01*
X156154783Y-105526059D01*
X156213204Y-105667100D01*
X156298018Y-105794034D01*
X156405966Y-105901982D01*
X156532900Y-105986796D01*
X156673941Y-106045217D01*
X156823669Y-106075000D01*
X156976331Y-106075000D01*
X157126059Y-106045217D01*
X157267100Y-105986796D01*
X157394034Y-105901982D01*
X157501982Y-105794034D01*
X157586796Y-105667100D01*
X157645217Y-105526059D01*
X157675000Y-105376331D01*
X157675000Y-105223669D01*
X157645217Y-105073941D01*
X157586796Y-104932900D01*
X157501982Y-104805966D01*
X157394034Y-104698018D01*
X157390934Y-104695947D01*
X157364175Y-104607733D01*
X157317746Y-104520871D01*
X157255264Y-104444736D01*
X157236181Y-104429075D01*
X154970929Y-102163824D01*
X154955264Y-102144736D01*
X154879129Y-102082254D01*
X154838415Y-102060492D01*
X154801982Y-102005966D01*
X154696016Y-101900000D01*
X166624876Y-101900000D01*
X166559666Y-101919781D01*
X166451089Y-101977817D01*
X166355920Y-102055920D01*
X166336346Y-102079771D01*
X163579772Y-104836346D01*
X163555921Y-104855920D01*
X163536348Y-104879770D01*
X163477818Y-104951089D01*
X163419782Y-105059666D01*
X163384044Y-105177479D01*
X163371977Y-105300000D01*
X163375001Y-105330704D01*
X163375000Y-112941116D01*
X162441118Y-113875000D01*
X160959585Y-113875000D01*
X160867100Y-113813204D01*
X160726059Y-113754783D01*
X160576331Y-113725000D01*
X160423669Y-113725000D01*
X160273941Y-113754783D01*
X160132900Y-113813204D01*
X160005966Y-113898018D01*
X159898018Y-114005966D01*
X159813204Y-114132900D01*
X159754783Y-114273941D01*
X159725000Y-114423669D01*
X159725000Y-114576331D01*
X159754783Y-114726059D01*
X159813204Y-114867100D01*
X159898018Y-114994034D01*
X160005966Y-115101982D01*
X160132900Y-115186796D01*
X160273941Y-115245217D01*
X160423669Y-115275000D01*
X160576331Y-115275000D01*
X160726059Y-115245217D01*
X160867100Y-115186796D01*
X160959585Y-115125000D01*
X162669306Y-115125000D01*
X162700000Y-115128023D01*
X162730694Y-115125000D01*
X162730704Y-115125000D01*
X162822521Y-115115957D01*
X162940334Y-115080219D01*
X163048911Y-115022183D01*
X163144080Y-114944080D01*
X163163658Y-114920224D01*
X164420236Y-113663648D01*
X164444080Y-113644080D01*
X164463649Y-113620235D01*
X164463653Y-113620231D01*
X164522183Y-113548912D01*
X164553204Y-113490876D01*
X164580219Y-113440334D01*
X164615957Y-113322521D01*
X164625000Y-113230704D01*
X164625000Y-113230702D01*
X164628024Y-113200000D01*
X164625000Y-113169298D01*
X164625000Y-112121461D01*
X164664816Y-112169591D01*
X164690561Y-112195156D01*
X164715905Y-112221037D01*
X164720203Y-112224592D01*
X164720210Y-112224599D01*
X164720218Y-112224604D01*
X164801123Y-112290590D01*
X164831338Y-112310665D01*
X164861234Y-112331135D01*
X164866147Y-112333792D01*
X164958338Y-112382811D01*
X164991874Y-112396634D01*
X165025179Y-112410908D01*
X165030511Y-112412559D01*
X165030517Y-112412561D01*
X165130472Y-112442739D01*
X165166057Y-112449785D01*
X165201497Y-112457318D01*
X165207052Y-112457902D01*
X165310966Y-112468091D01*
X165310970Y-112468091D01*
X165330353Y-112470000D01*
X177950000Y-112470000D01*
X177950001Y-113187759D01*
X177949603Y-113189878D01*
X177950001Y-113227163D01*
X177950001Y-113244647D01*
X177950210Y-113246772D01*
X177950444Y-113268666D01*
X177954064Y-113285902D01*
X177955789Y-113303414D01*
X177962140Y-113324350D01*
X177966640Y-113345776D01*
X177973552Y-113361971D01*
X177978661Y-113378814D01*
X177988978Y-113398115D01*
X177997569Y-113418245D01*
X178007506Y-113432778D01*
X178015804Y-113448303D01*
X178029685Y-113465218D01*
X178030898Y-113466991D01*
X178042196Y-113480462D01*
X178065790Y-113509211D01*
X178067453Y-113510576D01*
X178600000Y-114145536D01*
X178600001Y-116100000D01*
X115150000Y-116100000D01*
X115150000Y-114673657D01*
X126225000Y-114673657D01*
X126225000Y-114826319D01*
X126254783Y-114976047D01*
X126313204Y-115117088D01*
X126398018Y-115244022D01*
X126505966Y-115351970D01*
X126632900Y-115436784D01*
X126773941Y-115495205D01*
X126923669Y-115524988D01*
X127067893Y-115524988D01*
X127129091Y-115586186D01*
X127144748Y-115605264D01*
X127220883Y-115667746D01*
X127307745Y-115714175D01*
X127401995Y-115742765D01*
X127500012Y-115752419D01*
X127524572Y-115750000D01*
X144400440Y-115750000D01*
X144425000Y-115752419D01*
X144449560Y-115750000D01*
X144523017Y-115742765D01*
X144617267Y-115714175D01*
X144704129Y-115667746D01*
X144725753Y-115650000D01*
X144876331Y-115650000D01*
X145026059Y-115620217D01*
X145167100Y-115561796D01*
X145294034Y-115476982D01*
X145401982Y-115369034D01*
X145486796Y-115242100D01*
X145545217Y-115101059D01*
X145575000Y-114951331D01*
X145575000Y-114798669D01*
X145554652Y-114696371D01*
X149701900Y-114696371D01*
X149701900Y-114902829D01*
X149742178Y-115105319D01*
X149821186Y-115296061D01*
X149935888Y-115467725D01*
X150081875Y-115613712D01*
X150253539Y-115728414D01*
X150444281Y-115807422D01*
X150646771Y-115847700D01*
X150853229Y-115847700D01*
X151055719Y-115807422D01*
X151246461Y-115728414D01*
X151418125Y-115613712D01*
X151564112Y-115467725D01*
X151678814Y-115296061D01*
X151757822Y-115105319D01*
X151798100Y-114902829D01*
X151798100Y-114696371D01*
X152701900Y-114696371D01*
X152701900Y-114902829D01*
X152742178Y-115105319D01*
X152821186Y-115296061D01*
X152935888Y-115467725D01*
X153081875Y-115613712D01*
X153253539Y-115728414D01*
X153444281Y-115807422D01*
X153646771Y-115847700D01*
X153853229Y-115847700D01*
X154055719Y-115807422D01*
X154246461Y-115728414D01*
X154418125Y-115613712D01*
X154564112Y-115467725D01*
X154678814Y-115296061D01*
X154757822Y-115105319D01*
X154798100Y-114902829D01*
X154798100Y-114696371D01*
X154757822Y-114493881D01*
X154678814Y-114303139D01*
X154564112Y-114131475D01*
X154418125Y-113985488D01*
X154246461Y-113870786D01*
X154055719Y-113791778D01*
X153853229Y-113751500D01*
X153646771Y-113751500D01*
X153444281Y-113791778D01*
X153253539Y-113870786D01*
X153081875Y-113985488D01*
X152935888Y-114131475D01*
X152821186Y-114303139D01*
X152742178Y-114493881D01*
X152701900Y-114696371D01*
X151798100Y-114696371D01*
X151757822Y-114493881D01*
X151678814Y-114303139D01*
X151564112Y-114131475D01*
X151418125Y-113985488D01*
X151246461Y-113870786D01*
X151055719Y-113791778D01*
X150853229Y-113751500D01*
X150646771Y-113751500D01*
X150444281Y-113791778D01*
X150253539Y-113870786D01*
X150081875Y-113985488D01*
X149935888Y-114131475D01*
X149821186Y-114303139D01*
X149742178Y-114493881D01*
X149701900Y-114696371D01*
X145554652Y-114696371D01*
X145545217Y-114648941D01*
X145493879Y-114525000D01*
X145526331Y-114525000D01*
X145676059Y-114495217D01*
X145817100Y-114436796D01*
X145944034Y-114351982D01*
X146051982Y-114244034D01*
X146136796Y-114117100D01*
X146195217Y-113976059D01*
X146225000Y-113826331D01*
X146225000Y-113673669D01*
X146195217Y-113523941D01*
X146136796Y-113382900D01*
X146051982Y-113255966D01*
X145944034Y-113148018D01*
X145817100Y-113063204D01*
X145676059Y-113004783D01*
X145526331Y-112975000D01*
X145382106Y-112975000D01*
X144945943Y-112538838D01*
X144930278Y-112519750D01*
X144854143Y-112457268D01*
X144767281Y-112410839D01*
X144673031Y-112382249D01*
X144599574Y-112375014D01*
X144575014Y-112372595D01*
X144550454Y-112375014D01*
X140296016Y-112375014D01*
X140244671Y-112323669D01*
X147924982Y-112323669D01*
X147924982Y-112476331D01*
X147954765Y-112626059D01*
X148013186Y-112767100D01*
X148098000Y-112894034D01*
X148205948Y-113001982D01*
X148332882Y-113086796D01*
X148473923Y-113145217D01*
X148623651Y-113175000D01*
X148776313Y-113175000D01*
X148926041Y-113145217D01*
X149067082Y-113086796D01*
X149090963Y-113070839D01*
X157827821Y-113070839D01*
X157827821Y-113223501D01*
X157857604Y-113373229D01*
X157916025Y-113514270D01*
X158000839Y-113641204D01*
X158108787Y-113749152D01*
X158235721Y-113833966D01*
X158376762Y-113892387D01*
X158526490Y-113922170D01*
X158679152Y-113922170D01*
X158828880Y-113892387D01*
X158969921Y-113833966D01*
X159096855Y-113749152D01*
X159204803Y-113641204D01*
X159289617Y-113514270D01*
X159348038Y-113373229D01*
X159377821Y-113223501D01*
X159377821Y-113079275D01*
X160683691Y-111773407D01*
X160702768Y-111757751D01*
X160765250Y-111681616D01*
X160808465Y-111600767D01*
X160811678Y-111594756D01*
X160816397Y-111579199D01*
X160840269Y-111500504D01*
X160847504Y-111427047D01*
X160847504Y-111427038D01*
X160849922Y-111402488D01*
X160847504Y-111377938D01*
X160847504Y-110857201D01*
X160949486Y-110755219D01*
X161034300Y-110628285D01*
X161092721Y-110487244D01*
X161122504Y-110337516D01*
X161122504Y-110184854D01*
X161092721Y-110035126D01*
X161034300Y-109894085D01*
X160949486Y-109767151D01*
X160841538Y-109659203D01*
X160714604Y-109574389D01*
X160573563Y-109515968D01*
X160423835Y-109486185D01*
X160271173Y-109486185D01*
X160121445Y-109515968D01*
X159980404Y-109574389D01*
X159853470Y-109659203D01*
X159745522Y-109767151D01*
X159660708Y-109894085D01*
X159602287Y-110035126D01*
X159572504Y-110184854D01*
X159572504Y-110337516D01*
X159602287Y-110487244D01*
X159660708Y-110628285D01*
X159745522Y-110755219D01*
X159847505Y-110857202D01*
X159847505Y-111195379D01*
X158670716Y-112372170D01*
X158526490Y-112372170D01*
X158376762Y-112401953D01*
X158235721Y-112460374D01*
X158108787Y-112545188D01*
X158000839Y-112653136D01*
X157916025Y-112780070D01*
X157857604Y-112921111D01*
X157827821Y-113070839D01*
X149090963Y-113070839D01*
X149194016Y-113001982D01*
X149301964Y-112894034D01*
X149386778Y-112767100D01*
X149445199Y-112626059D01*
X149474982Y-112476331D01*
X149474982Y-112438172D01*
X150138155Y-111775000D01*
X155271757Y-111775000D01*
X155300000Y-111777782D01*
X155328243Y-111775000D01*
X155328246Y-111775000D01*
X155412720Y-111766680D01*
X155521108Y-111733801D01*
X155620998Y-111680408D01*
X155708554Y-111608554D01*
X155726565Y-111586607D01*
X156725387Y-110587785D01*
X156725387Y-110710529D01*
X156755170Y-110860257D01*
X156813591Y-111001298D01*
X156898405Y-111128232D01*
X157006353Y-111236180D01*
X157133287Y-111320994D01*
X157274328Y-111379415D01*
X157424056Y-111409198D01*
X157576718Y-111409198D01*
X157726446Y-111379415D01*
X157867487Y-111320994D01*
X157994421Y-111236180D01*
X158102369Y-111128232D01*
X158187183Y-111001298D01*
X158245604Y-110860257D01*
X158275387Y-110710529D01*
X158275387Y-110672370D01*
X159772759Y-109174999D01*
X161471758Y-109174999D01*
X161500001Y-109177781D01*
X161528244Y-109174999D01*
X161528247Y-109174999D01*
X161612721Y-109166679D01*
X161721109Y-109133800D01*
X161820999Y-109080407D01*
X161827588Y-109075000D01*
X161876331Y-109075000D01*
X162026059Y-109045217D01*
X162167100Y-108986796D01*
X162294034Y-108901982D01*
X162401982Y-108794034D01*
X162486796Y-108667100D01*
X162545217Y-108526059D01*
X162575000Y-108376331D01*
X162575000Y-108223669D01*
X162545217Y-108073941D01*
X162486796Y-107932900D01*
X162401982Y-107805966D01*
X162294034Y-107698018D01*
X162167100Y-107613204D01*
X162026059Y-107554783D01*
X161876331Y-107525000D01*
X161723669Y-107525000D01*
X161573941Y-107554783D01*
X161432900Y-107613204D01*
X161305966Y-107698018D01*
X161198018Y-107805966D01*
X161113204Y-107932900D01*
X161075055Y-108024999D01*
X161039449Y-108024999D01*
X161045217Y-108011075D01*
X161075000Y-107861347D01*
X161075000Y-107708685D01*
X161045217Y-107558957D01*
X160986796Y-107417916D01*
X160901982Y-107290982D01*
X160794034Y-107183034D01*
X160667100Y-107098220D01*
X160526059Y-107039799D01*
X160376331Y-107010016D01*
X160223669Y-107010016D01*
X160073941Y-107039799D01*
X159932900Y-107098220D01*
X159805966Y-107183034D01*
X159778984Y-107210016D01*
X158743227Y-107210016D01*
X158714984Y-107207234D01*
X158686741Y-107210016D01*
X158686738Y-107210016D01*
X158602264Y-107218336D01*
X158493876Y-107251215D01*
X158393986Y-107304608D01*
X158306430Y-107376462D01*
X158288423Y-107398404D01*
X155061828Y-110625000D01*
X149928224Y-110625000D01*
X149899981Y-110622218D01*
X149871738Y-110625000D01*
X149871736Y-110625000D01*
X149787262Y-110633320D01*
X149698202Y-110660336D01*
X149678874Y-110666199D01*
X149578983Y-110719592D01*
X149535572Y-110755219D01*
X149491428Y-110791446D01*
X149473422Y-110813387D01*
X148661810Y-111625000D01*
X148623651Y-111625000D01*
X148473923Y-111654783D01*
X148332882Y-111713204D01*
X148205948Y-111798018D01*
X148098000Y-111905966D01*
X148013186Y-112032900D01*
X147954765Y-112173941D01*
X147924982Y-112323669D01*
X140244671Y-112323669D01*
X140194034Y-112273032D01*
X140067100Y-112188218D01*
X139926059Y-112129797D01*
X139776331Y-112100014D01*
X139623669Y-112100014D01*
X139473941Y-112129797D01*
X139332900Y-112188218D01*
X139205966Y-112273032D01*
X139098018Y-112380980D01*
X139013204Y-112507914D01*
X138954783Y-112648955D01*
X138925000Y-112798683D01*
X138925000Y-112951345D01*
X138954783Y-113101073D01*
X139013204Y-113242114D01*
X139098018Y-113369048D01*
X139205966Y-113476996D01*
X139332900Y-113561810D01*
X139343110Y-113566039D01*
X139273941Y-113579798D01*
X139132900Y-113638219D01*
X139005966Y-113723033D01*
X138898018Y-113830981D01*
X138813204Y-113957915D01*
X138754783Y-114098956D01*
X138725000Y-114248684D01*
X138725000Y-114300000D01*
X129745430Y-114300000D01*
X129745217Y-114298931D01*
X129686796Y-114157890D01*
X129601982Y-114030956D01*
X129494034Y-113923008D01*
X129367100Y-113838194D01*
X129226059Y-113779773D01*
X129076331Y-113749990D01*
X128923669Y-113749990D01*
X128773941Y-113779773D01*
X128632900Y-113838194D01*
X128505966Y-113923008D01*
X128398018Y-114030956D01*
X128313204Y-114157890D01*
X128254783Y-114298931D01*
X128225000Y-114448659D01*
X128225000Y-114601321D01*
X128254574Y-114750000D01*
X127775000Y-114750000D01*
X127775000Y-114673657D01*
X127745217Y-114523929D01*
X127686796Y-114382888D01*
X127601982Y-114255954D01*
X127494034Y-114148006D01*
X127367100Y-114063192D01*
X127226059Y-114004771D01*
X127076331Y-113974988D01*
X126923669Y-113974988D01*
X126773941Y-114004771D01*
X126632900Y-114063192D01*
X126505966Y-114148006D01*
X126398018Y-114255954D01*
X126313204Y-114382888D01*
X126254783Y-114523929D01*
X126225000Y-114673657D01*
X115150000Y-114673657D01*
X115150000Y-105359524D01*
X116117500Y-105359524D01*
X116117500Y-112640476D01*
X118517500Y-112640476D01*
X118517500Y-105359524D01*
X116117500Y-105359524D01*
X115150000Y-105359524D01*
X115150000Y-101900000D01*
X123112564Y-101900000D01*
X122861681Y-102150883D01*
G37*
G04 #@! TD.AperFunction*
D18*
X125755966Y-106601982D02*
X125775001Y-106614700D01*
X125775000Y-107266852D01*
X124741853Y-108300000D01*
X122796016Y-108300000D01*
X122846016Y-108250000D01*
X123475440Y-108250000D01*
X123500000Y-108252419D01*
X123524560Y-108250000D01*
X123598017Y-108242765D01*
X123692267Y-108214175D01*
X123779129Y-108167746D01*
X123855264Y-108105264D01*
X123870929Y-108086176D01*
X124932106Y-107025000D01*
X125076331Y-107025000D01*
X125226059Y-106995217D01*
X125367100Y-106936796D01*
X125494034Y-106851982D01*
X125601982Y-106744034D01*
X125686796Y-106617100D01*
X125711483Y-106557499D01*
X125755966Y-106601982D01*
G04 #@! TA.AperFunction,Conductor*
D23*
G36*
X125755966Y-106601982D02*
G01*
X125775001Y-106614700D01*
X125775000Y-107266852D01*
X124741853Y-108300000D01*
X122796016Y-108300000D01*
X122846016Y-108250000D01*
X123475440Y-108250000D01*
X123500000Y-108252419D01*
X123524560Y-108250000D01*
X123598017Y-108242765D01*
X123692267Y-108214175D01*
X123779129Y-108167746D01*
X123855264Y-108105264D01*
X123870929Y-108086176D01*
X124932106Y-107025000D01*
X125076331Y-107025000D01*
X125226059Y-106995217D01*
X125367100Y-106936796D01*
X125494034Y-106851982D01*
X125601982Y-106744034D01*
X125686796Y-106617100D01*
X125711483Y-106557499D01*
X125755966Y-106601982D01*
G37*
G04 #@! TD.AperFunction*
D18*
X178600000Y-103854464D02*
X178067453Y-104489424D01*
X178065790Y-104490789D01*
X178042196Y-104519538D01*
X178030898Y-104533009D01*
X178029685Y-104534782D01*
X178015804Y-104551697D01*
X178007506Y-104567222D01*
X177997569Y-104581755D01*
X177988978Y-104601885D01*
X177978661Y-104621186D01*
X177973552Y-104638029D01*
X177966640Y-104654224D01*
X177962140Y-104675650D01*
X177955789Y-104696586D01*
X177954064Y-104714098D01*
X177950444Y-104731334D01*
X177950210Y-104753228D01*
X177950001Y-104755353D01*
X177950001Y-104772837D01*
X177949603Y-104810122D01*
X177950001Y-104812241D01*
X177950000Y-105530000D01*
X165330353Y-105530000D01*
X165310442Y-105531961D01*
X165303497Y-105531961D01*
X165297942Y-105532545D01*
X165194179Y-105544184D01*
X165158709Y-105551723D01*
X165123153Y-105558764D01*
X165117818Y-105560415D01*
X165018291Y-105591987D01*
X164984947Y-105606279D01*
X164951454Y-105620083D01*
X164946544Y-105622739D01*
X164946538Y-105622741D01*
X164946533Y-105622744D01*
X164855043Y-105673041D01*
X164825117Y-105693531D01*
X164794932Y-105713586D01*
X164790628Y-105717146D01*
X164710642Y-105784262D01*
X164685262Y-105810179D01*
X164659551Y-105835711D01*
X164656021Y-105840039D01*
X164625000Y-105878622D01*
X164625000Y-105558882D01*
X167058883Y-103125000D01*
X170540415Y-103125000D01*
X170632900Y-103186796D01*
X170773941Y-103245217D01*
X170923669Y-103275000D01*
X171076331Y-103275000D01*
X171226059Y-103245217D01*
X171367100Y-103186796D01*
X171494034Y-103101982D01*
X171601982Y-102994034D01*
X171686796Y-102867100D01*
X171745217Y-102726059D01*
X171775000Y-102576331D01*
X171775000Y-102423669D01*
X171745217Y-102273941D01*
X171686796Y-102132900D01*
X171601982Y-102005966D01*
X171496016Y-101900000D01*
X178600001Y-101900000D01*
X178600000Y-103854464D01*
G04 #@! TA.AperFunction,Conductor*
D23*
G36*
X178600000Y-103854464D02*
G01*
X178067453Y-104489424D01*
X178065790Y-104490789D01*
X178042196Y-104519538D01*
X178030898Y-104533009D01*
X178029685Y-104534782D01*
X178015804Y-104551697D01*
X178007506Y-104567222D01*
X177997569Y-104581755D01*
X177988978Y-104601885D01*
X177978661Y-104621186D01*
X177973552Y-104638029D01*
X177966640Y-104654224D01*
X177962140Y-104675650D01*
X177955789Y-104696586D01*
X177954064Y-104714098D01*
X177950444Y-104731334D01*
X177950210Y-104753228D01*
X177950001Y-104755353D01*
X177950001Y-104772837D01*
X177949603Y-104810122D01*
X177950001Y-104812241D01*
X177950000Y-105530000D01*
X165330353Y-105530000D01*
X165310442Y-105531961D01*
X165303497Y-105531961D01*
X165297942Y-105532545D01*
X165194179Y-105544184D01*
X165158709Y-105551723D01*
X165123153Y-105558764D01*
X165117818Y-105560415D01*
X165018291Y-105591987D01*
X164984947Y-105606279D01*
X164951454Y-105620083D01*
X164946544Y-105622739D01*
X164946538Y-105622741D01*
X164946533Y-105622744D01*
X164855043Y-105673041D01*
X164825117Y-105693531D01*
X164794932Y-105713586D01*
X164790628Y-105717146D01*
X164710642Y-105784262D01*
X164685262Y-105810179D01*
X164659551Y-105835711D01*
X164656021Y-105840039D01*
X164625000Y-105878622D01*
X164625000Y-105558882D01*
X167058883Y-103125000D01*
X170540415Y-103125000D01*
X170632900Y-103186796D01*
X170773941Y-103245217D01*
X170923669Y-103275000D01*
X171076331Y-103275000D01*
X171226059Y-103245217D01*
X171367100Y-103186796D01*
X171494034Y-103101982D01*
X171601982Y-102994034D01*
X171686796Y-102867100D01*
X171745217Y-102726059D01*
X171775000Y-102576331D01*
X171775000Y-102423669D01*
X171745217Y-102273941D01*
X171686796Y-102132900D01*
X171601982Y-102005966D01*
X171496016Y-101900000D01*
X178600001Y-101900000D01*
X178600000Y-103854464D01*
G37*
G04 #@! TD.AperFunction*
M02*
