G04 #@! TF.GenerationSoftware,KiCad,Pcbnew,5.1.10*
G04 #@! TF.CreationDate,2021-08-01T14:45:19-04:00*
G04 #@! TF.ProjectId,dac,6461632e-6b69-4636-9164-5f7063625858,rev?*
G04 #@! TF.SameCoordinates,Original*
G04 #@! TF.FileFunction,Paste,Top*
G04 #@! TF.FilePolarity,Positive*
%FSLAX46Y46*%
G04 Gerber Fmt 4.6, Leading zero omitted, Abs format (unit mm)*
G04 Created by KiCad (PCBNEW 5.1.10) date 2021-08-01 14:45:19*
%MOMM*%
%LPD*%
G01*
G04 APERTURE LIST*
%ADD10C,0.000100*%
%ADD11C,0.100000*%
%ADD12R,2.500000X2.430000*%
%ADD13R,0.650000X1.060000*%
%ADD14R,0.410000X1.640000*%
%ADD15R,1.200000X1.400000*%
%ADD16R,0.650000X1.220000*%
%ADD17R,1.750000X0.450000*%
%ADD18R,1.400000X1.050000*%
%ADD19R,0.558800X1.905000*%
%ADD20R,0.800000X1.200000*%
%ADD21R,1.200000X1.200000*%
%ADD22R,0.360000X0.250000*%
G04 APERTURE END LIST*
D10*
G36*
X147858600Y-103606600D02*
G01*
X147858598Y-103606516D01*
X147858591Y-103606433D01*
X147858580Y-103606350D01*
X147858565Y-103606267D01*
X147858545Y-103606186D01*
X147858522Y-103606106D01*
X147858494Y-103606027D01*
X147858462Y-103605949D01*
X147858426Y-103605874D01*
X147858386Y-103605800D01*
X147858342Y-103605729D01*
X147858294Y-103605660D01*
X147858243Y-103605593D01*
X147858189Y-103605529D01*
X147858131Y-103605469D01*
X147858071Y-103605411D01*
X147858007Y-103605357D01*
X147857940Y-103605306D01*
X147857871Y-103605258D01*
X147857800Y-103605214D01*
X147857726Y-103605174D01*
X147857651Y-103605138D01*
X147857573Y-103605106D01*
X147857494Y-103605078D01*
X147857414Y-103605055D01*
X147857333Y-103605035D01*
X147857250Y-103605020D01*
X147857167Y-103605009D01*
X147857084Y-103605002D01*
X147857000Y-103605000D01*
X147605000Y-103605000D01*
X147606090Y-103646607D01*
X147609355Y-103688100D01*
X147614788Y-103729365D01*
X147622373Y-103770290D01*
X147632089Y-103810761D01*
X147643910Y-103850669D01*
X147657804Y-103889903D01*
X147673731Y-103928356D01*
X147691650Y-103965922D01*
X147711510Y-104002500D01*
X147733257Y-104037988D01*
X147756831Y-104072289D01*
X147782169Y-104105310D01*
X147809200Y-104136959D01*
X147837850Y-104167150D01*
X147868041Y-104195800D01*
X147899690Y-104222831D01*
X147932711Y-104248169D01*
X147967012Y-104271743D01*
X148002500Y-104293490D01*
X148039078Y-104313350D01*
X148076644Y-104331269D01*
X148115097Y-104347196D01*
X148154331Y-104361090D01*
X148194239Y-104372911D01*
X148234710Y-104382627D01*
X148275635Y-104390212D01*
X148316900Y-104395645D01*
X148358393Y-104398910D01*
X148400000Y-104400000D01*
X148400000Y-104145000D01*
X148371739Y-104144260D01*
X148343555Y-104142042D01*
X148315525Y-104138352D01*
X148287728Y-104133200D01*
X148260238Y-104126600D01*
X148233131Y-104118571D01*
X148206481Y-104109133D01*
X148180362Y-104098315D01*
X148154845Y-104086144D01*
X148130000Y-104072654D01*
X148105895Y-104057882D01*
X148082596Y-104041869D01*
X148060167Y-104024659D01*
X148038669Y-104006298D01*
X148018162Y-103986838D01*
X147998702Y-103966331D01*
X147980341Y-103944833D01*
X147963131Y-103922404D01*
X147947118Y-103899105D01*
X147932346Y-103875000D01*
X147918856Y-103850155D01*
X147906685Y-103824638D01*
X147895867Y-103798519D01*
X147886429Y-103771869D01*
X147878400Y-103744762D01*
X147871800Y-103717272D01*
X147866648Y-103689475D01*
X147862958Y-103661445D01*
X147860740Y-103633261D01*
X147860000Y-103605000D01*
X147858600Y-103606600D01*
G37*
X147858600Y-103606600D02*
X147858598Y-103606516D01*
X147858591Y-103606433D01*
X147858580Y-103606350D01*
X147858565Y-103606267D01*
X147858545Y-103606186D01*
X147858522Y-103606106D01*
X147858494Y-103606027D01*
X147858462Y-103605949D01*
X147858426Y-103605874D01*
X147858386Y-103605800D01*
X147858342Y-103605729D01*
X147858294Y-103605660D01*
X147858243Y-103605593D01*
X147858189Y-103605529D01*
X147858131Y-103605469D01*
X147858071Y-103605411D01*
X147858007Y-103605357D01*
X147857940Y-103605306D01*
X147857871Y-103605258D01*
X147857800Y-103605214D01*
X147857726Y-103605174D01*
X147857651Y-103605138D01*
X147857573Y-103605106D01*
X147857494Y-103605078D01*
X147857414Y-103605055D01*
X147857333Y-103605035D01*
X147857250Y-103605020D01*
X147857167Y-103605009D01*
X147857084Y-103605002D01*
X147857000Y-103605000D01*
X147605000Y-103605000D01*
X147606090Y-103646607D01*
X147609355Y-103688100D01*
X147614788Y-103729365D01*
X147622373Y-103770290D01*
X147632089Y-103810761D01*
X147643910Y-103850669D01*
X147657804Y-103889903D01*
X147673731Y-103928356D01*
X147691650Y-103965922D01*
X147711510Y-104002500D01*
X147733257Y-104037988D01*
X147756831Y-104072289D01*
X147782169Y-104105310D01*
X147809200Y-104136959D01*
X147837850Y-104167150D01*
X147868041Y-104195800D01*
X147899690Y-104222831D01*
X147932711Y-104248169D01*
X147967012Y-104271743D01*
X148002500Y-104293490D01*
X148039078Y-104313350D01*
X148076644Y-104331269D01*
X148115097Y-104347196D01*
X148154331Y-104361090D01*
X148194239Y-104372911D01*
X148234710Y-104382627D01*
X148275635Y-104390212D01*
X148316900Y-104395645D01*
X148358393Y-104398910D01*
X148400000Y-104400000D01*
X148400000Y-104145000D01*
X148371739Y-104144260D01*
X148343555Y-104142042D01*
X148315525Y-104138352D01*
X148287728Y-104133200D01*
X148260238Y-104126600D01*
X148233131Y-104118571D01*
X148206481Y-104109133D01*
X148180362Y-104098315D01*
X148154845Y-104086144D01*
X148130000Y-104072654D01*
X148105895Y-104057882D01*
X148082596Y-104041869D01*
X148060167Y-104024659D01*
X148038669Y-104006298D01*
X148018162Y-103986838D01*
X147998702Y-103966331D01*
X147980341Y-103944833D01*
X147963131Y-103922404D01*
X147947118Y-103899105D01*
X147932346Y-103875000D01*
X147918856Y-103850155D01*
X147906685Y-103824638D01*
X147895867Y-103798519D01*
X147886429Y-103771869D01*
X147878400Y-103744762D01*
X147871800Y-103717272D01*
X147866648Y-103689475D01*
X147862958Y-103661445D01*
X147860740Y-103633261D01*
X147860000Y-103605000D01*
X147858600Y-103606600D01*
G36*
X148398400Y-102858600D02*
G01*
X148398484Y-102858598D01*
X148398567Y-102858591D01*
X148398650Y-102858580D01*
X148398733Y-102858565D01*
X148398814Y-102858545D01*
X148398894Y-102858522D01*
X148398973Y-102858494D01*
X148399051Y-102858462D01*
X148399126Y-102858426D01*
X148399200Y-102858386D01*
X148399271Y-102858342D01*
X148399340Y-102858294D01*
X148399407Y-102858243D01*
X148399471Y-102858189D01*
X148399531Y-102858131D01*
X148399589Y-102858071D01*
X148399643Y-102858007D01*
X148399694Y-102857940D01*
X148399742Y-102857871D01*
X148399786Y-102857800D01*
X148399826Y-102857726D01*
X148399862Y-102857651D01*
X148399894Y-102857573D01*
X148399922Y-102857494D01*
X148399945Y-102857414D01*
X148399965Y-102857333D01*
X148399980Y-102857250D01*
X148399991Y-102857167D01*
X148399998Y-102857084D01*
X148400000Y-102857000D01*
X148400000Y-102605000D01*
X148358393Y-102606090D01*
X148316900Y-102609355D01*
X148275635Y-102614788D01*
X148234710Y-102622373D01*
X148194239Y-102632089D01*
X148154331Y-102643910D01*
X148115097Y-102657804D01*
X148076644Y-102673731D01*
X148039078Y-102691650D01*
X148002500Y-102711510D01*
X147967012Y-102733257D01*
X147932711Y-102756831D01*
X147899690Y-102782169D01*
X147868041Y-102809200D01*
X147837850Y-102837850D01*
X147809200Y-102868041D01*
X147782169Y-102899690D01*
X147756831Y-102932711D01*
X147733257Y-102967012D01*
X147711510Y-103002500D01*
X147691650Y-103039078D01*
X147673731Y-103076644D01*
X147657804Y-103115097D01*
X147643910Y-103154331D01*
X147632089Y-103194239D01*
X147622373Y-103234710D01*
X147614788Y-103275635D01*
X147609355Y-103316900D01*
X147606090Y-103358393D01*
X147605000Y-103400000D01*
X147860000Y-103400000D01*
X147860740Y-103371739D01*
X147862958Y-103343555D01*
X147866648Y-103315525D01*
X147871800Y-103287728D01*
X147878400Y-103260238D01*
X147886429Y-103233131D01*
X147895867Y-103206481D01*
X147906685Y-103180362D01*
X147918856Y-103154845D01*
X147932346Y-103130000D01*
X147947118Y-103105895D01*
X147963131Y-103082596D01*
X147980341Y-103060167D01*
X147998702Y-103038669D01*
X148018162Y-103018162D01*
X148038669Y-102998702D01*
X148060167Y-102980341D01*
X148082596Y-102963131D01*
X148105895Y-102947118D01*
X148130000Y-102932346D01*
X148154845Y-102918856D01*
X148180362Y-102906685D01*
X148206481Y-102895867D01*
X148233131Y-102886429D01*
X148260238Y-102878400D01*
X148287728Y-102871800D01*
X148315525Y-102866648D01*
X148343555Y-102862958D01*
X148371739Y-102860740D01*
X148400000Y-102860000D01*
X148398400Y-102858600D01*
G37*
X148398400Y-102858600D02*
X148398484Y-102858598D01*
X148398567Y-102858591D01*
X148398650Y-102858580D01*
X148398733Y-102858565D01*
X148398814Y-102858545D01*
X148398894Y-102858522D01*
X148398973Y-102858494D01*
X148399051Y-102858462D01*
X148399126Y-102858426D01*
X148399200Y-102858386D01*
X148399271Y-102858342D01*
X148399340Y-102858294D01*
X148399407Y-102858243D01*
X148399471Y-102858189D01*
X148399531Y-102858131D01*
X148399589Y-102858071D01*
X148399643Y-102858007D01*
X148399694Y-102857940D01*
X148399742Y-102857871D01*
X148399786Y-102857800D01*
X148399826Y-102857726D01*
X148399862Y-102857651D01*
X148399894Y-102857573D01*
X148399922Y-102857494D01*
X148399945Y-102857414D01*
X148399965Y-102857333D01*
X148399980Y-102857250D01*
X148399991Y-102857167D01*
X148399998Y-102857084D01*
X148400000Y-102857000D01*
X148400000Y-102605000D01*
X148358393Y-102606090D01*
X148316900Y-102609355D01*
X148275635Y-102614788D01*
X148234710Y-102622373D01*
X148194239Y-102632089D01*
X148154331Y-102643910D01*
X148115097Y-102657804D01*
X148076644Y-102673731D01*
X148039078Y-102691650D01*
X148002500Y-102711510D01*
X147967012Y-102733257D01*
X147932711Y-102756831D01*
X147899690Y-102782169D01*
X147868041Y-102809200D01*
X147837850Y-102837850D01*
X147809200Y-102868041D01*
X147782169Y-102899690D01*
X147756831Y-102932711D01*
X147733257Y-102967012D01*
X147711510Y-103002500D01*
X147691650Y-103039078D01*
X147673731Y-103076644D01*
X147657804Y-103115097D01*
X147643910Y-103154331D01*
X147632089Y-103194239D01*
X147622373Y-103234710D01*
X147614788Y-103275635D01*
X147609355Y-103316900D01*
X147606090Y-103358393D01*
X147605000Y-103400000D01*
X147860000Y-103400000D01*
X147860740Y-103371739D01*
X147862958Y-103343555D01*
X147866648Y-103315525D01*
X147871800Y-103287728D01*
X147878400Y-103260238D01*
X147886429Y-103233131D01*
X147895867Y-103206481D01*
X147906685Y-103180362D01*
X147918856Y-103154845D01*
X147932346Y-103130000D01*
X147947118Y-103105895D01*
X147963131Y-103082596D01*
X147980341Y-103060167D01*
X147998702Y-103038669D01*
X148018162Y-103018162D01*
X148038669Y-102998702D01*
X148060167Y-102980341D01*
X148082596Y-102963131D01*
X148105895Y-102947118D01*
X148130000Y-102932346D01*
X148154845Y-102918856D01*
X148180362Y-102906685D01*
X148206481Y-102895867D01*
X148233131Y-102886429D01*
X148260238Y-102878400D01*
X148287728Y-102871800D01*
X148315525Y-102866648D01*
X148343555Y-102862958D01*
X148371739Y-102860740D01*
X148400000Y-102860000D01*
X148398400Y-102858600D01*
G36*
X148601600Y-104141400D02*
G01*
X148601516Y-104141402D01*
X148601433Y-104141409D01*
X148601350Y-104141420D01*
X148601267Y-104141435D01*
X148601186Y-104141455D01*
X148601106Y-104141478D01*
X148601027Y-104141506D01*
X148600949Y-104141538D01*
X148600874Y-104141574D01*
X148600800Y-104141614D01*
X148600729Y-104141658D01*
X148600660Y-104141706D01*
X148600593Y-104141757D01*
X148600529Y-104141811D01*
X148600469Y-104141869D01*
X148600411Y-104141929D01*
X148600357Y-104141993D01*
X148600306Y-104142060D01*
X148600258Y-104142129D01*
X148600214Y-104142200D01*
X148600174Y-104142274D01*
X148600138Y-104142349D01*
X148600106Y-104142427D01*
X148600078Y-104142506D01*
X148600055Y-104142586D01*
X148600035Y-104142667D01*
X148600020Y-104142750D01*
X148600009Y-104142833D01*
X148600002Y-104142916D01*
X148600000Y-104143000D01*
X148600000Y-104395000D01*
X148641607Y-104393910D01*
X148683100Y-104390645D01*
X148724365Y-104385212D01*
X148765290Y-104377627D01*
X148805761Y-104367911D01*
X148845669Y-104356090D01*
X148884903Y-104342196D01*
X148923356Y-104326269D01*
X148960922Y-104308350D01*
X148997500Y-104288490D01*
X149032988Y-104266743D01*
X149067289Y-104243169D01*
X149100310Y-104217831D01*
X149131959Y-104190800D01*
X149162150Y-104162150D01*
X149190800Y-104131959D01*
X149217831Y-104100310D01*
X149243169Y-104067289D01*
X149266743Y-104032988D01*
X149288490Y-103997500D01*
X149308350Y-103960922D01*
X149326269Y-103923356D01*
X149342196Y-103884903D01*
X149356090Y-103845669D01*
X149367911Y-103805761D01*
X149377627Y-103765290D01*
X149385212Y-103724365D01*
X149390645Y-103683100D01*
X149393910Y-103641607D01*
X149395000Y-103600000D01*
X149140000Y-103600000D01*
X149139260Y-103628261D01*
X149137042Y-103656445D01*
X149133352Y-103684475D01*
X149128200Y-103712272D01*
X149121600Y-103739762D01*
X149113571Y-103766869D01*
X149104133Y-103793519D01*
X149093315Y-103819638D01*
X149081144Y-103845155D01*
X149067654Y-103870000D01*
X149052882Y-103894105D01*
X149036869Y-103917404D01*
X149019659Y-103939833D01*
X149001298Y-103961331D01*
X148981838Y-103981838D01*
X148961331Y-104001298D01*
X148939833Y-104019659D01*
X148917404Y-104036869D01*
X148894105Y-104052882D01*
X148870000Y-104067654D01*
X148845155Y-104081144D01*
X148819638Y-104093315D01*
X148793519Y-104104133D01*
X148766869Y-104113571D01*
X148739762Y-104121600D01*
X148712272Y-104128200D01*
X148684475Y-104133352D01*
X148656445Y-104137042D01*
X148628261Y-104139260D01*
X148600000Y-104140000D01*
X148601600Y-104141400D01*
G37*
X148601600Y-104141400D02*
X148601516Y-104141402D01*
X148601433Y-104141409D01*
X148601350Y-104141420D01*
X148601267Y-104141435D01*
X148601186Y-104141455D01*
X148601106Y-104141478D01*
X148601027Y-104141506D01*
X148600949Y-104141538D01*
X148600874Y-104141574D01*
X148600800Y-104141614D01*
X148600729Y-104141658D01*
X148600660Y-104141706D01*
X148600593Y-104141757D01*
X148600529Y-104141811D01*
X148600469Y-104141869D01*
X148600411Y-104141929D01*
X148600357Y-104141993D01*
X148600306Y-104142060D01*
X148600258Y-104142129D01*
X148600214Y-104142200D01*
X148600174Y-104142274D01*
X148600138Y-104142349D01*
X148600106Y-104142427D01*
X148600078Y-104142506D01*
X148600055Y-104142586D01*
X148600035Y-104142667D01*
X148600020Y-104142750D01*
X148600009Y-104142833D01*
X148600002Y-104142916D01*
X148600000Y-104143000D01*
X148600000Y-104395000D01*
X148641607Y-104393910D01*
X148683100Y-104390645D01*
X148724365Y-104385212D01*
X148765290Y-104377627D01*
X148805761Y-104367911D01*
X148845669Y-104356090D01*
X148884903Y-104342196D01*
X148923356Y-104326269D01*
X148960922Y-104308350D01*
X148997500Y-104288490D01*
X149032988Y-104266743D01*
X149067289Y-104243169D01*
X149100310Y-104217831D01*
X149131959Y-104190800D01*
X149162150Y-104162150D01*
X149190800Y-104131959D01*
X149217831Y-104100310D01*
X149243169Y-104067289D01*
X149266743Y-104032988D01*
X149288490Y-103997500D01*
X149308350Y-103960922D01*
X149326269Y-103923356D01*
X149342196Y-103884903D01*
X149356090Y-103845669D01*
X149367911Y-103805761D01*
X149377627Y-103765290D01*
X149385212Y-103724365D01*
X149390645Y-103683100D01*
X149393910Y-103641607D01*
X149395000Y-103600000D01*
X149140000Y-103600000D01*
X149139260Y-103628261D01*
X149137042Y-103656445D01*
X149133352Y-103684475D01*
X149128200Y-103712272D01*
X149121600Y-103739762D01*
X149113571Y-103766869D01*
X149104133Y-103793519D01*
X149093315Y-103819638D01*
X149081144Y-103845155D01*
X149067654Y-103870000D01*
X149052882Y-103894105D01*
X149036869Y-103917404D01*
X149019659Y-103939833D01*
X149001298Y-103961331D01*
X148981838Y-103981838D01*
X148961331Y-104001298D01*
X148939833Y-104019659D01*
X148917404Y-104036869D01*
X148894105Y-104052882D01*
X148870000Y-104067654D01*
X148845155Y-104081144D01*
X148819638Y-104093315D01*
X148793519Y-104104133D01*
X148766869Y-104113571D01*
X148739762Y-104121600D01*
X148712272Y-104128200D01*
X148684475Y-104133352D01*
X148656445Y-104137042D01*
X148628261Y-104139260D01*
X148600000Y-104140000D01*
X148601600Y-104141400D01*
G36*
X149141400Y-103398400D02*
G01*
X149141402Y-103398484D01*
X149141409Y-103398567D01*
X149141420Y-103398650D01*
X149141435Y-103398733D01*
X149141455Y-103398814D01*
X149141478Y-103398894D01*
X149141506Y-103398973D01*
X149141538Y-103399051D01*
X149141574Y-103399126D01*
X149141614Y-103399200D01*
X149141658Y-103399271D01*
X149141706Y-103399340D01*
X149141757Y-103399407D01*
X149141811Y-103399471D01*
X149141869Y-103399531D01*
X149141929Y-103399589D01*
X149141993Y-103399643D01*
X149142060Y-103399694D01*
X149142129Y-103399742D01*
X149142200Y-103399786D01*
X149142274Y-103399826D01*
X149142349Y-103399862D01*
X149142427Y-103399894D01*
X149142506Y-103399922D01*
X149142586Y-103399945D01*
X149142667Y-103399965D01*
X149142750Y-103399980D01*
X149142833Y-103399991D01*
X149142916Y-103399998D01*
X149143000Y-103400000D01*
X149395000Y-103400000D01*
X149393910Y-103358393D01*
X149390645Y-103316900D01*
X149385212Y-103275635D01*
X149377627Y-103234710D01*
X149367911Y-103194239D01*
X149356090Y-103154331D01*
X149342196Y-103115097D01*
X149326269Y-103076644D01*
X149308350Y-103039078D01*
X149288490Y-103002500D01*
X149266743Y-102967012D01*
X149243169Y-102932711D01*
X149217831Y-102899690D01*
X149190800Y-102868041D01*
X149162150Y-102837850D01*
X149131959Y-102809200D01*
X149100310Y-102782169D01*
X149067289Y-102756831D01*
X149032988Y-102733257D01*
X148997500Y-102711510D01*
X148960922Y-102691650D01*
X148923356Y-102673731D01*
X148884903Y-102657804D01*
X148845669Y-102643910D01*
X148805761Y-102632089D01*
X148765290Y-102622373D01*
X148724365Y-102614788D01*
X148683100Y-102609355D01*
X148641607Y-102606090D01*
X148600000Y-102605000D01*
X148600000Y-102860000D01*
X148628261Y-102860740D01*
X148656445Y-102862958D01*
X148684475Y-102866648D01*
X148712272Y-102871800D01*
X148739762Y-102878400D01*
X148766869Y-102886429D01*
X148793519Y-102895867D01*
X148819638Y-102906685D01*
X148845155Y-102918856D01*
X148870000Y-102932346D01*
X148894105Y-102947118D01*
X148917404Y-102963131D01*
X148939833Y-102980341D01*
X148961331Y-102998702D01*
X148981838Y-103018162D01*
X149001298Y-103038669D01*
X149019659Y-103060167D01*
X149036869Y-103082596D01*
X149052882Y-103105895D01*
X149067654Y-103130000D01*
X149081144Y-103154845D01*
X149093315Y-103180362D01*
X149104133Y-103206481D01*
X149113571Y-103233131D01*
X149121600Y-103260238D01*
X149128200Y-103287728D01*
X149133352Y-103315525D01*
X149137042Y-103343555D01*
X149139260Y-103371739D01*
X149140000Y-103400000D01*
X149141400Y-103398400D01*
G37*
X149141400Y-103398400D02*
X149141402Y-103398484D01*
X149141409Y-103398567D01*
X149141420Y-103398650D01*
X149141435Y-103398733D01*
X149141455Y-103398814D01*
X149141478Y-103398894D01*
X149141506Y-103398973D01*
X149141538Y-103399051D01*
X149141574Y-103399126D01*
X149141614Y-103399200D01*
X149141658Y-103399271D01*
X149141706Y-103399340D01*
X149141757Y-103399407D01*
X149141811Y-103399471D01*
X149141869Y-103399531D01*
X149141929Y-103399589D01*
X149141993Y-103399643D01*
X149142060Y-103399694D01*
X149142129Y-103399742D01*
X149142200Y-103399786D01*
X149142274Y-103399826D01*
X149142349Y-103399862D01*
X149142427Y-103399894D01*
X149142506Y-103399922D01*
X149142586Y-103399945D01*
X149142667Y-103399965D01*
X149142750Y-103399980D01*
X149142833Y-103399991D01*
X149142916Y-103399998D01*
X149143000Y-103400000D01*
X149395000Y-103400000D01*
X149393910Y-103358393D01*
X149390645Y-103316900D01*
X149385212Y-103275635D01*
X149377627Y-103234710D01*
X149367911Y-103194239D01*
X149356090Y-103154331D01*
X149342196Y-103115097D01*
X149326269Y-103076644D01*
X149308350Y-103039078D01*
X149288490Y-103002500D01*
X149266743Y-102967012D01*
X149243169Y-102932711D01*
X149217831Y-102899690D01*
X149190800Y-102868041D01*
X149162150Y-102837850D01*
X149131959Y-102809200D01*
X149100310Y-102782169D01*
X149067289Y-102756831D01*
X149032988Y-102733257D01*
X148997500Y-102711510D01*
X148960922Y-102691650D01*
X148923356Y-102673731D01*
X148884903Y-102657804D01*
X148845669Y-102643910D01*
X148805761Y-102632089D01*
X148765290Y-102622373D01*
X148724365Y-102614788D01*
X148683100Y-102609355D01*
X148641607Y-102606090D01*
X148600000Y-102605000D01*
X148600000Y-102860000D01*
X148628261Y-102860740D01*
X148656445Y-102862958D01*
X148684475Y-102866648D01*
X148712272Y-102871800D01*
X148739762Y-102878400D01*
X148766869Y-102886429D01*
X148793519Y-102895867D01*
X148819638Y-102906685D01*
X148845155Y-102918856D01*
X148870000Y-102932346D01*
X148894105Y-102947118D01*
X148917404Y-102963131D01*
X148939833Y-102980341D01*
X148961331Y-102998702D01*
X148981838Y-103018162D01*
X149001298Y-103038669D01*
X149019659Y-103060167D01*
X149036869Y-103082596D01*
X149052882Y-103105895D01*
X149067654Y-103130000D01*
X149081144Y-103154845D01*
X149093315Y-103180362D01*
X149104133Y-103206481D01*
X149113571Y-103233131D01*
X149121600Y-103260238D01*
X149128200Y-103287728D01*
X149133352Y-103315525D01*
X149137042Y-103343555D01*
X149139260Y-103371739D01*
X149140000Y-103400000D01*
X149141400Y-103398400D01*
D11*
X150094500Y-102710000D02*
G75*
G03*
X150094500Y-102710000I-324500J0D01*
G01*
X147554500Y-102710000D02*
G75*
G03*
X147554500Y-102710000I-324500J0D01*
G01*
X150125000Y-106120000D02*
G75*
G03*
X150125000Y-106120000I-425000J0D01*
G01*
X147725000Y-106120000D02*
G75*
G03*
X147725000Y-106120000I-425000J0D01*
G01*
X148925000Y-106120000D02*
G75*
G03*
X148925000Y-106120000I-425000J0D01*
G01*
D12*
X172750000Y-104715000D03*
X172750000Y-113285000D03*
G36*
G01*
X123900000Y-107750000D02*
X123900000Y-108250000D01*
G75*
G02*
X123675000Y-108475000I-225000J0D01*
G01*
X123225000Y-108475000D01*
G75*
G02*
X123000000Y-108250000I0J225000D01*
G01*
X123000000Y-107750000D01*
G75*
G02*
X123225000Y-107525000I225000J0D01*
G01*
X123675000Y-107525000D01*
G75*
G02*
X123900000Y-107750000I0J-225000D01*
G01*
G37*
G36*
G01*
X125450000Y-107750000D02*
X125450000Y-108250000D01*
G75*
G02*
X125225000Y-108475000I-225000J0D01*
G01*
X124775000Y-108475000D01*
G75*
G02*
X124550000Y-108250000I0J225000D01*
G01*
X124550000Y-107750000D01*
G75*
G02*
X124775000Y-107525000I225000J0D01*
G01*
X125225000Y-107525000D01*
G75*
G02*
X125450000Y-107750000I0J-225000D01*
G01*
G37*
D13*
X126350000Y-104750000D03*
X127300000Y-104750000D03*
X128250000Y-104750000D03*
X128250000Y-102550000D03*
X126350000Y-102550000D03*
X127300000Y-102550000D03*
D14*
X162722500Y-106365000D03*
X162087500Y-106365000D03*
X161452500Y-106365000D03*
X160817500Y-106365000D03*
X160182500Y-106365000D03*
X159547500Y-106365000D03*
X158912500Y-106365000D03*
X158277500Y-106365000D03*
X158277500Y-111635000D03*
X158912500Y-111635000D03*
X159547500Y-111635000D03*
X160182500Y-111635000D03*
X160817500Y-111635000D03*
X161452500Y-111635000D03*
X162087500Y-111635000D03*
X162722500Y-111635000D03*
D15*
X145500000Y-108250000D03*
X145500000Y-110450000D03*
X143800000Y-110450000D03*
X143800000Y-108250000D03*
D16*
X125200000Y-112310000D03*
X123300000Y-112310000D03*
X123300000Y-109690000D03*
X124250000Y-109690000D03*
X125200000Y-109690000D03*
D17*
X140100000Y-103600000D03*
X140100000Y-104250000D03*
X140100000Y-104900000D03*
X140100000Y-105550000D03*
X140100000Y-106200000D03*
X140100000Y-106850000D03*
X140100000Y-107500000D03*
X140100000Y-108150000D03*
X140100000Y-108800000D03*
X140100000Y-109450000D03*
X140100000Y-110100000D03*
X140100000Y-110750000D03*
X140100000Y-111400000D03*
X140100000Y-112050000D03*
X132900000Y-112050000D03*
X132900000Y-111400000D03*
X132900000Y-110750000D03*
X132900000Y-110100000D03*
X132900000Y-109450000D03*
X132900000Y-108800000D03*
X132900000Y-108150000D03*
X132900000Y-107500000D03*
X132900000Y-106850000D03*
X132900000Y-106200000D03*
X132900000Y-105550000D03*
X132900000Y-104900000D03*
X132900000Y-104250000D03*
X132900000Y-103600000D03*
D18*
X135500000Y-115675000D03*
X131900000Y-115675000D03*
X135500000Y-114225000D03*
X131900000Y-114225000D03*
X141250000Y-115700000D03*
X137650000Y-115700000D03*
X141250000Y-114250000D03*
X137650000Y-114250000D03*
X147000000Y-115675000D03*
X143400000Y-115675000D03*
X147000000Y-114225000D03*
X143400000Y-114225000D03*
D19*
X154750000Y-112602900D03*
X152250000Y-112602900D03*
X149750000Y-112602900D03*
D20*
X152325000Y-109250000D03*
X154675000Y-109250000D03*
D21*
X153500000Y-105000000D03*
G36*
G01*
X141850000Y-108850000D02*
X142350000Y-108850000D01*
G75*
G02*
X142575000Y-109075000I0J-225000D01*
G01*
X142575000Y-109525000D01*
G75*
G02*
X142350000Y-109750000I-225000J0D01*
G01*
X141850000Y-109750000D01*
G75*
G02*
X141625000Y-109525000I0J225000D01*
G01*
X141625000Y-109075000D01*
G75*
G02*
X141850000Y-108850000I225000J0D01*
G01*
G37*
G36*
G01*
X141850000Y-107300000D02*
X142350000Y-107300000D01*
G75*
G02*
X142575000Y-107525000I0J-225000D01*
G01*
X142575000Y-107975000D01*
G75*
G02*
X142350000Y-108200000I-225000J0D01*
G01*
X141850000Y-108200000D01*
G75*
G02*
X141625000Y-107975000I0J225000D01*
G01*
X141625000Y-107525000D01*
G75*
G02*
X141850000Y-107300000I225000J0D01*
G01*
G37*
G36*
G01*
X130250000Y-112425000D02*
X129750000Y-112425000D01*
G75*
G02*
X129525000Y-112200000I0J225000D01*
G01*
X129525000Y-111750000D01*
G75*
G02*
X129750000Y-111525000I225000J0D01*
G01*
X130250000Y-111525000D01*
G75*
G02*
X130475000Y-111750000I0J-225000D01*
G01*
X130475000Y-112200000D01*
G75*
G02*
X130250000Y-112425000I-225000J0D01*
G01*
G37*
G36*
G01*
X130250000Y-113975000D02*
X129750000Y-113975000D01*
G75*
G02*
X129525000Y-113750000I0J225000D01*
G01*
X129525000Y-113300000D01*
G75*
G02*
X129750000Y-113075000I225000J0D01*
G01*
X130250000Y-113075000D01*
G75*
G02*
X130475000Y-113300000I0J-225000D01*
G01*
X130475000Y-113750000D01*
G75*
G02*
X130250000Y-113975000I-225000J0D01*
G01*
G37*
G36*
G01*
X128750000Y-112450000D02*
X128250000Y-112450000D01*
G75*
G02*
X128025000Y-112225000I0J225000D01*
G01*
X128025000Y-111775000D01*
G75*
G02*
X128250000Y-111550000I225000J0D01*
G01*
X128750000Y-111550000D01*
G75*
G02*
X128975000Y-111775000I0J-225000D01*
G01*
X128975000Y-112225000D01*
G75*
G02*
X128750000Y-112450000I-225000J0D01*
G01*
G37*
G36*
G01*
X128750000Y-114000000D02*
X128250000Y-114000000D01*
G75*
G02*
X128025000Y-113775000I0J225000D01*
G01*
X128025000Y-113325000D01*
G75*
G02*
X128250000Y-113100000I225000J0D01*
G01*
X128750000Y-113100000D01*
G75*
G02*
X128975000Y-113325000I0J-225000D01*
G01*
X128975000Y-113775000D01*
G75*
G02*
X128750000Y-114000000I-225000J0D01*
G01*
G37*
G36*
G01*
X127250000Y-112450000D02*
X126750000Y-112450000D01*
G75*
G02*
X126525000Y-112225000I0J225000D01*
G01*
X126525000Y-111775000D01*
G75*
G02*
X126750000Y-111550000I225000J0D01*
G01*
X127250000Y-111550000D01*
G75*
G02*
X127475000Y-111775000I0J-225000D01*
G01*
X127475000Y-112225000D01*
G75*
G02*
X127250000Y-112450000I-225000J0D01*
G01*
G37*
G36*
G01*
X127250000Y-114000000D02*
X126750000Y-114000000D01*
G75*
G02*
X126525000Y-113775000I0J225000D01*
G01*
X126525000Y-113325000D01*
G75*
G02*
X126750000Y-113100000I225000J0D01*
G01*
X127250000Y-113100000D01*
G75*
G02*
X127475000Y-113325000I0J-225000D01*
G01*
X127475000Y-113775000D01*
G75*
G02*
X127250000Y-114000000I-225000J0D01*
G01*
G37*
G36*
G01*
X131417500Y-104245000D02*
X131417500Y-104555000D01*
G75*
G02*
X131262500Y-104710000I-155000J0D01*
G01*
X130837500Y-104710000D01*
G75*
G02*
X130682500Y-104555000I0J155000D01*
G01*
X130682500Y-104245000D01*
G75*
G02*
X130837500Y-104090000I155000J0D01*
G01*
X131262500Y-104090000D01*
G75*
G02*
X131417500Y-104245000I0J-155000D01*
G01*
G37*
G36*
G01*
X130282500Y-104245000D02*
X130282500Y-104555000D01*
G75*
G02*
X130127500Y-104710000I-155000J0D01*
G01*
X129702500Y-104710000D01*
G75*
G02*
X129547500Y-104555000I0J155000D01*
G01*
X129547500Y-104245000D01*
G75*
G02*
X129702500Y-104090000I155000J0D01*
G01*
X130127500Y-104090000D01*
G75*
G02*
X130282500Y-104245000I0J-155000D01*
G01*
G37*
G36*
G01*
X130282500Y-103345000D02*
X130282500Y-103655000D01*
G75*
G02*
X130127500Y-103810000I-155000J0D01*
G01*
X129702500Y-103810000D01*
G75*
G02*
X129547500Y-103655000I0J155000D01*
G01*
X129547500Y-103345000D01*
G75*
G02*
X129702500Y-103190000I155000J0D01*
G01*
X130127500Y-103190000D01*
G75*
G02*
X130282500Y-103345000I0J-155000D01*
G01*
G37*
G36*
G01*
X131417500Y-103345000D02*
X131417500Y-103655000D01*
G75*
G02*
X131262500Y-103810000I-155000J0D01*
G01*
X130837500Y-103810000D01*
G75*
G02*
X130682500Y-103655000I0J155000D01*
G01*
X130682500Y-103345000D01*
G75*
G02*
X130837500Y-103190000I155000J0D01*
G01*
X131262500Y-103190000D01*
G75*
G02*
X131417500Y-103345000I0J-155000D01*
G01*
G37*
G36*
G01*
X120150000Y-102750000D02*
X120150000Y-103250000D01*
G75*
G02*
X119925000Y-103475000I-225000J0D01*
G01*
X119475000Y-103475000D01*
G75*
G02*
X119250000Y-103250000I0J225000D01*
G01*
X119250000Y-102750000D01*
G75*
G02*
X119475000Y-102525000I225000J0D01*
G01*
X119925000Y-102525000D01*
G75*
G02*
X120150000Y-102750000I0J-225000D01*
G01*
G37*
G36*
G01*
X121700000Y-102750000D02*
X121700000Y-103250000D01*
G75*
G02*
X121475000Y-103475000I-225000J0D01*
G01*
X121025000Y-103475000D01*
G75*
G02*
X120800000Y-103250000I0J225000D01*
G01*
X120800000Y-102750000D01*
G75*
G02*
X121025000Y-102525000I225000J0D01*
G01*
X121475000Y-102525000D01*
G75*
G02*
X121700000Y-102750000I0J-225000D01*
G01*
G37*
G36*
G01*
X145850000Y-105300000D02*
X145350000Y-105300000D01*
G75*
G02*
X145125000Y-105075000I0J225000D01*
G01*
X145125000Y-104625000D01*
G75*
G02*
X145350000Y-104400000I225000J0D01*
G01*
X145850000Y-104400000D01*
G75*
G02*
X146075000Y-104625000I0J-225000D01*
G01*
X146075000Y-105075000D01*
G75*
G02*
X145850000Y-105300000I-225000J0D01*
G01*
G37*
G36*
G01*
X145850000Y-106850000D02*
X145350000Y-106850000D01*
G75*
G02*
X145125000Y-106625000I0J225000D01*
G01*
X145125000Y-106175000D01*
G75*
G02*
X145350000Y-105950000I225000J0D01*
G01*
X145850000Y-105950000D01*
G75*
G02*
X146075000Y-106175000I0J-225000D01*
G01*
X146075000Y-106625000D01*
G75*
G02*
X145850000Y-106850000I-225000J0D01*
G01*
G37*
G36*
G01*
X120825000Y-115500000D02*
X120825000Y-115000000D01*
G75*
G02*
X121050000Y-114775000I225000J0D01*
G01*
X121500000Y-114775000D01*
G75*
G02*
X121725000Y-115000000I0J-225000D01*
G01*
X121725000Y-115500000D01*
G75*
G02*
X121500000Y-115725000I-225000J0D01*
G01*
X121050000Y-115725000D01*
G75*
G02*
X120825000Y-115500000I0J225000D01*
G01*
G37*
G36*
G01*
X119275000Y-115500000D02*
X119275000Y-115000000D01*
G75*
G02*
X119500000Y-114775000I225000J0D01*
G01*
X119950000Y-114775000D01*
G75*
G02*
X120175000Y-115000000I0J-225000D01*
G01*
X120175000Y-115500000D01*
G75*
G02*
X119950000Y-115725000I-225000J0D01*
G01*
X119500000Y-115725000D01*
G75*
G02*
X119275000Y-115500000I0J225000D01*
G01*
G37*
G36*
G01*
X151950000Y-110500000D02*
X151950000Y-111000000D01*
G75*
G02*
X151725000Y-111225000I-225000J0D01*
G01*
X151275000Y-111225000D01*
G75*
G02*
X151050000Y-111000000I0J225000D01*
G01*
X151050000Y-110500000D01*
G75*
G02*
X151275000Y-110275000I225000J0D01*
G01*
X151725000Y-110275000D01*
G75*
G02*
X151950000Y-110500000I0J-225000D01*
G01*
G37*
G36*
G01*
X153500000Y-110500000D02*
X153500000Y-111000000D01*
G75*
G02*
X153275000Y-111225000I-225000J0D01*
G01*
X152825000Y-111225000D01*
G75*
G02*
X152600000Y-111000000I0J225000D01*
G01*
X152600000Y-110500000D01*
G75*
G02*
X152825000Y-110275000I225000J0D01*
G01*
X153275000Y-110275000D01*
G75*
G02*
X153500000Y-110500000I0J-225000D01*
G01*
G37*
G36*
G01*
X155750000Y-102925000D02*
X155250000Y-102925000D01*
G75*
G02*
X155025000Y-102700000I0J225000D01*
G01*
X155025000Y-102250000D01*
G75*
G02*
X155250000Y-102025000I225000J0D01*
G01*
X155750000Y-102025000D01*
G75*
G02*
X155975000Y-102250000I0J-225000D01*
G01*
X155975000Y-102700000D01*
G75*
G02*
X155750000Y-102925000I-225000J0D01*
G01*
G37*
G36*
G01*
X155750000Y-104475000D02*
X155250000Y-104475000D01*
G75*
G02*
X155025000Y-104250000I0J225000D01*
G01*
X155025000Y-103800000D01*
G75*
G02*
X155250000Y-103575000I225000J0D01*
G01*
X155750000Y-103575000D01*
G75*
G02*
X155975000Y-103800000I0J-225000D01*
G01*
X155975000Y-104250000D01*
G75*
G02*
X155750000Y-104475000I-225000J0D01*
G01*
G37*
D22*
X159660000Y-113500000D03*
X160500000Y-113500000D03*
X162500000Y-113500000D03*
X161660000Y-113500000D03*
G36*
G01*
X148950000Y-110700001D02*
X148950000Y-109799999D01*
G75*
G02*
X149199999Y-109550000I249999J0D01*
G01*
X149850001Y-109550000D01*
G75*
G02*
X150100000Y-109799999I0J-249999D01*
G01*
X150100000Y-110700001D01*
G75*
G02*
X149850001Y-110950000I-249999J0D01*
G01*
X149199999Y-110950000D01*
G75*
G02*
X148950000Y-110700001I0J249999D01*
G01*
G37*
G36*
G01*
X146900000Y-110700001D02*
X146900000Y-109799999D01*
G75*
G02*
X147149999Y-109550000I249999J0D01*
G01*
X147800001Y-109550000D01*
G75*
G02*
X148050000Y-109799999I0J-249999D01*
G01*
X148050000Y-110700001D01*
G75*
G02*
X147800001Y-110950000I-249999J0D01*
G01*
X147149999Y-110950000D01*
G75*
G02*
X146900000Y-110700001I0J249999D01*
G01*
G37*
G36*
G01*
X148050000Y-107799999D02*
X148050000Y-108700001D01*
G75*
G02*
X147800001Y-108950000I-249999J0D01*
G01*
X147149999Y-108950000D01*
G75*
G02*
X146900000Y-108700001I0J249999D01*
G01*
X146900000Y-107799999D01*
G75*
G02*
X147149999Y-107550000I249999J0D01*
G01*
X147800001Y-107550000D01*
G75*
G02*
X148050000Y-107799999I0J-249999D01*
G01*
G37*
G36*
G01*
X150100000Y-107799999D02*
X150100000Y-108700001D01*
G75*
G02*
X149850001Y-108950000I-249999J0D01*
G01*
X149199999Y-108950000D01*
G75*
G02*
X148950000Y-108700001I0J249999D01*
G01*
X148950000Y-107799999D01*
G75*
G02*
X149199999Y-107550000I249999J0D01*
G01*
X149850001Y-107550000D01*
G75*
G02*
X150100000Y-107799999I0J-249999D01*
G01*
G37*
G36*
G01*
X124575000Y-114250000D02*
X124575000Y-113750000D01*
G75*
G02*
X124800000Y-113525000I225000J0D01*
G01*
X125250000Y-113525000D01*
G75*
G02*
X125475000Y-113750000I0J-225000D01*
G01*
X125475000Y-114250000D01*
G75*
G02*
X125250000Y-114475000I-225000J0D01*
G01*
X124800000Y-114475000D01*
G75*
G02*
X124575000Y-114250000I0J225000D01*
G01*
G37*
G36*
G01*
X123025000Y-114250000D02*
X123025000Y-113750000D01*
G75*
G02*
X123250000Y-113525000I225000J0D01*
G01*
X123700000Y-113525000D01*
G75*
G02*
X123925000Y-113750000I0J-225000D01*
G01*
X123925000Y-114250000D01*
G75*
G02*
X123700000Y-114475000I-225000J0D01*
G01*
X123250000Y-114475000D01*
G75*
G02*
X123025000Y-114250000I0J225000D01*
G01*
G37*
G36*
G01*
X129600000Y-110750000D02*
X129600000Y-110250000D01*
G75*
G02*
X129825000Y-110025000I225000J0D01*
G01*
X130275000Y-110025000D01*
G75*
G02*
X130500000Y-110250000I0J-225000D01*
G01*
X130500000Y-110750000D01*
G75*
G02*
X130275000Y-110975000I-225000J0D01*
G01*
X129825000Y-110975000D01*
G75*
G02*
X129600000Y-110750000I0J225000D01*
G01*
G37*
G36*
G01*
X128050000Y-110750000D02*
X128050000Y-110250000D01*
G75*
G02*
X128275000Y-110025000I225000J0D01*
G01*
X128725000Y-110025000D01*
G75*
G02*
X128950000Y-110250000I0J-225000D01*
G01*
X128950000Y-110750000D01*
G75*
G02*
X128725000Y-110975000I-225000J0D01*
G01*
X128275000Y-110975000D01*
G75*
G02*
X128050000Y-110750000I0J225000D01*
G01*
G37*
G36*
G01*
X123950000Y-115250000D02*
X123950000Y-115750000D01*
G75*
G02*
X123725000Y-115975000I-225000J0D01*
G01*
X123275000Y-115975000D01*
G75*
G02*
X123050000Y-115750000I0J225000D01*
G01*
X123050000Y-115250000D01*
G75*
G02*
X123275000Y-115025000I225000J0D01*
G01*
X123725000Y-115025000D01*
G75*
G02*
X123950000Y-115250000I0J-225000D01*
G01*
G37*
G36*
G01*
X125500000Y-115250000D02*
X125500000Y-115750000D01*
G75*
G02*
X125275000Y-115975000I-225000J0D01*
G01*
X124825000Y-115975000D01*
G75*
G02*
X124600000Y-115750000I0J225000D01*
G01*
X124600000Y-115250000D01*
G75*
G02*
X124825000Y-115025000I225000J0D01*
G01*
X125275000Y-115025000D01*
G75*
G02*
X125500000Y-115250000I0J-225000D01*
G01*
G37*
G36*
G01*
X143350000Y-104100000D02*
X142850000Y-104100000D01*
G75*
G02*
X142625000Y-103875000I0J225000D01*
G01*
X142625000Y-103425000D01*
G75*
G02*
X142850000Y-103200000I225000J0D01*
G01*
X143350000Y-103200000D01*
G75*
G02*
X143575000Y-103425000I0J-225000D01*
G01*
X143575000Y-103875000D01*
G75*
G02*
X143350000Y-104100000I-225000J0D01*
G01*
G37*
G36*
G01*
X143350000Y-105650000D02*
X142850000Y-105650000D01*
G75*
G02*
X142625000Y-105425000I0J225000D01*
G01*
X142625000Y-104975000D01*
G75*
G02*
X142850000Y-104750000I225000J0D01*
G01*
X143350000Y-104750000D01*
G75*
G02*
X143575000Y-104975000I0J-225000D01*
G01*
X143575000Y-105425000D01*
G75*
G02*
X143350000Y-105650000I-225000J0D01*
G01*
G37*
G36*
G01*
X156750000Y-103575000D02*
X157250000Y-103575000D01*
G75*
G02*
X157475000Y-103800000I0J-225000D01*
G01*
X157475000Y-104250000D01*
G75*
G02*
X157250000Y-104475000I-225000J0D01*
G01*
X156750000Y-104475000D01*
G75*
G02*
X156525000Y-104250000I0J225000D01*
G01*
X156525000Y-103800000D01*
G75*
G02*
X156750000Y-103575000I225000J0D01*
G01*
G37*
G36*
G01*
X156750000Y-102025000D02*
X157250000Y-102025000D01*
G75*
G02*
X157475000Y-102250000I0J-225000D01*
G01*
X157475000Y-102700000D01*
G75*
G02*
X157250000Y-102925000I-225000J0D01*
G01*
X156750000Y-102925000D01*
G75*
G02*
X156525000Y-102700000I0J225000D01*
G01*
X156525000Y-102250000D01*
G75*
G02*
X156750000Y-102025000I225000J0D01*
G01*
G37*
G36*
G01*
X142345000Y-112022500D02*
X142035000Y-112022500D01*
G75*
G02*
X141880000Y-111867500I0J155000D01*
G01*
X141880000Y-111442500D01*
G75*
G02*
X142035000Y-111287500I155000J0D01*
G01*
X142345000Y-111287500D01*
G75*
G02*
X142500000Y-111442500I0J-155000D01*
G01*
X142500000Y-111867500D01*
G75*
G02*
X142345000Y-112022500I-155000J0D01*
G01*
G37*
G36*
G01*
X142345000Y-110887500D02*
X142035000Y-110887500D01*
G75*
G02*
X141880000Y-110732500I0J155000D01*
G01*
X141880000Y-110307500D01*
G75*
G02*
X142035000Y-110152500I155000J0D01*
G01*
X142345000Y-110152500D01*
G75*
G02*
X142500000Y-110307500I0J-155000D01*
G01*
X142500000Y-110732500D01*
G75*
G02*
X142345000Y-110887500I-155000J0D01*
G01*
G37*
G36*
G01*
X143232500Y-106345000D02*
X143232500Y-106655000D01*
G75*
G02*
X143077500Y-106810000I-155000J0D01*
G01*
X142652500Y-106810000D01*
G75*
G02*
X142497500Y-106655000I0J155000D01*
G01*
X142497500Y-106345000D01*
G75*
G02*
X142652500Y-106190000I155000J0D01*
G01*
X143077500Y-106190000D01*
G75*
G02*
X143232500Y-106345000I0J-155000D01*
G01*
G37*
G36*
G01*
X144367500Y-106345000D02*
X144367500Y-106655000D01*
G75*
G02*
X144212500Y-106810000I-155000J0D01*
G01*
X143787500Y-106810000D01*
G75*
G02*
X143632500Y-106655000I0J155000D01*
G01*
X143632500Y-106345000D01*
G75*
G02*
X143787500Y-106190000I155000J0D01*
G01*
X144212500Y-106190000D01*
G75*
G02*
X144367500Y-106345000I0J-155000D01*
G01*
G37*
G36*
G01*
X158250000Y-103575000D02*
X158750000Y-103575000D01*
G75*
G02*
X158975000Y-103800000I0J-225000D01*
G01*
X158975000Y-104250000D01*
G75*
G02*
X158750000Y-104475000I-225000J0D01*
G01*
X158250000Y-104475000D01*
G75*
G02*
X158025000Y-104250000I0J225000D01*
G01*
X158025000Y-103800000D01*
G75*
G02*
X158250000Y-103575000I225000J0D01*
G01*
G37*
G36*
G01*
X158250000Y-102025000D02*
X158750000Y-102025000D01*
G75*
G02*
X158975000Y-102250000I0J-225000D01*
G01*
X158975000Y-102700000D01*
G75*
G02*
X158750000Y-102925000I-225000J0D01*
G01*
X158250000Y-102925000D01*
G75*
G02*
X158025000Y-102700000I0J225000D01*
G01*
X158025000Y-102250000D01*
G75*
G02*
X158250000Y-102025000I225000J0D01*
G01*
G37*
G36*
G01*
X159750000Y-103575000D02*
X160250000Y-103575000D01*
G75*
G02*
X160475000Y-103800000I0J-225000D01*
G01*
X160475000Y-104250000D01*
G75*
G02*
X160250000Y-104475000I-225000J0D01*
G01*
X159750000Y-104475000D01*
G75*
G02*
X159525000Y-104250000I0J225000D01*
G01*
X159525000Y-103800000D01*
G75*
G02*
X159750000Y-103575000I225000J0D01*
G01*
G37*
G36*
G01*
X159750000Y-102025000D02*
X160250000Y-102025000D01*
G75*
G02*
X160475000Y-102250000I0J-225000D01*
G01*
X160475000Y-102700000D01*
G75*
G02*
X160250000Y-102925000I-225000J0D01*
G01*
X159750000Y-102925000D01*
G75*
G02*
X159525000Y-102700000I0J225000D01*
G01*
X159525000Y-102250000D01*
G75*
G02*
X159750000Y-102025000I225000J0D01*
G01*
G37*
G36*
G01*
X151750000Y-103550000D02*
X152250000Y-103550000D01*
G75*
G02*
X152475000Y-103775000I0J-225000D01*
G01*
X152475000Y-104225000D01*
G75*
G02*
X152250000Y-104450000I-225000J0D01*
G01*
X151750000Y-104450000D01*
G75*
G02*
X151525000Y-104225000I0J225000D01*
G01*
X151525000Y-103775000D01*
G75*
G02*
X151750000Y-103550000I225000J0D01*
G01*
G37*
G36*
G01*
X151750000Y-102000000D02*
X152250000Y-102000000D01*
G75*
G02*
X152475000Y-102225000I0J-225000D01*
G01*
X152475000Y-102675000D01*
G75*
G02*
X152250000Y-102900000I-225000J0D01*
G01*
X151750000Y-102900000D01*
G75*
G02*
X151525000Y-102675000I0J225000D01*
G01*
X151525000Y-102225000D01*
G75*
G02*
X151750000Y-102000000I225000J0D01*
G01*
G37*
G36*
G01*
X161750000Y-103600000D02*
X162250000Y-103600000D01*
G75*
G02*
X162475000Y-103825000I0J-225000D01*
G01*
X162475000Y-104275000D01*
G75*
G02*
X162250000Y-104500000I-225000J0D01*
G01*
X161750000Y-104500000D01*
G75*
G02*
X161525000Y-104275000I0J225000D01*
G01*
X161525000Y-103825000D01*
G75*
G02*
X161750000Y-103600000I225000J0D01*
G01*
G37*
G36*
G01*
X161750000Y-102050000D02*
X162250000Y-102050000D01*
G75*
G02*
X162475000Y-102275000I0J-225000D01*
G01*
X162475000Y-102725000D01*
G75*
G02*
X162250000Y-102950000I-225000J0D01*
G01*
X161750000Y-102950000D01*
G75*
G02*
X161525000Y-102725000I0J225000D01*
G01*
X161525000Y-102275000D01*
G75*
G02*
X161750000Y-102050000I225000J0D01*
G01*
G37*
G36*
G01*
X130282500Y-105245000D02*
X130282500Y-105555000D01*
G75*
G02*
X130127500Y-105710000I-155000J0D01*
G01*
X129702500Y-105710000D01*
G75*
G02*
X129547500Y-105555000I0J155000D01*
G01*
X129547500Y-105245000D01*
G75*
G02*
X129702500Y-105090000I155000J0D01*
G01*
X130127500Y-105090000D01*
G75*
G02*
X130282500Y-105245000I0J-155000D01*
G01*
G37*
G36*
G01*
X131417500Y-105245000D02*
X131417500Y-105555000D01*
G75*
G02*
X131262500Y-105710000I-155000J0D01*
G01*
X130837500Y-105710000D01*
G75*
G02*
X130682500Y-105555000I0J155000D01*
G01*
X130682500Y-105245000D01*
G75*
G02*
X130837500Y-105090000I155000J0D01*
G01*
X131262500Y-105090000D01*
G75*
G02*
X131417500Y-105245000I0J-155000D01*
G01*
G37*
G36*
G01*
X130450000Y-107900000D02*
X130950000Y-107900000D01*
G75*
G02*
X131175000Y-108125000I0J-225000D01*
G01*
X131175000Y-108575000D01*
G75*
G02*
X130950000Y-108800000I-225000J0D01*
G01*
X130450000Y-108800000D01*
G75*
G02*
X130225000Y-108575000I0J225000D01*
G01*
X130225000Y-108125000D01*
G75*
G02*
X130450000Y-107900000I225000J0D01*
G01*
G37*
G36*
G01*
X130450000Y-106350000D02*
X130950000Y-106350000D01*
G75*
G02*
X131175000Y-106575000I0J-225000D01*
G01*
X131175000Y-107025000D01*
G75*
G02*
X130950000Y-107250000I-225000J0D01*
G01*
X130450000Y-107250000D01*
G75*
G02*
X130225000Y-107025000I0J225000D01*
G01*
X130225000Y-106575000D01*
G75*
G02*
X130450000Y-106350000I225000J0D01*
G01*
G37*
G36*
G01*
X130282500Y-102345000D02*
X130282500Y-102655000D01*
G75*
G02*
X130127500Y-102810000I-155000J0D01*
G01*
X129702500Y-102810000D01*
G75*
G02*
X129547500Y-102655000I0J155000D01*
G01*
X129547500Y-102345000D01*
G75*
G02*
X129702500Y-102190000I155000J0D01*
G01*
X130127500Y-102190000D01*
G75*
G02*
X130282500Y-102345000I0J-155000D01*
G01*
G37*
G36*
G01*
X131417500Y-102345000D02*
X131417500Y-102655000D01*
G75*
G02*
X131262500Y-102810000I-155000J0D01*
G01*
X130837500Y-102810000D01*
G75*
G02*
X130682500Y-102655000I0J155000D01*
G01*
X130682500Y-102345000D01*
G75*
G02*
X130837500Y-102190000I155000J0D01*
G01*
X131262500Y-102190000D01*
G75*
G02*
X131417500Y-102345000I0J-155000D01*
G01*
G37*
G36*
G01*
X156905000Y-108617500D02*
X156595000Y-108617500D01*
G75*
G02*
X156440000Y-108462500I0J155000D01*
G01*
X156440000Y-108037500D01*
G75*
G02*
X156595000Y-107882500I155000J0D01*
G01*
X156905000Y-107882500D01*
G75*
G02*
X157060000Y-108037500I0J-155000D01*
G01*
X157060000Y-108462500D01*
G75*
G02*
X156905000Y-108617500I-155000J0D01*
G01*
G37*
G36*
G01*
X156905000Y-109752500D02*
X156595000Y-109752500D01*
G75*
G02*
X156440000Y-109597500I0J155000D01*
G01*
X156440000Y-109172500D01*
G75*
G02*
X156595000Y-109017500I155000J0D01*
G01*
X156905000Y-109017500D01*
G75*
G02*
X157060000Y-109172500I0J-155000D01*
G01*
X157060000Y-109597500D01*
G75*
G02*
X156905000Y-109752500I-155000J0D01*
G01*
G37*
G36*
G01*
X146400000Y-112250000D02*
X146400000Y-112750000D01*
G75*
G02*
X146175000Y-112975000I-225000J0D01*
G01*
X145725000Y-112975000D01*
G75*
G02*
X145500000Y-112750000I0J225000D01*
G01*
X145500000Y-112250000D01*
G75*
G02*
X145725000Y-112025000I225000J0D01*
G01*
X146175000Y-112025000D01*
G75*
G02*
X146400000Y-112250000I0J-225000D01*
G01*
G37*
G36*
G01*
X147950000Y-112250000D02*
X147950000Y-112750000D01*
G75*
G02*
X147725000Y-112975000I-225000J0D01*
G01*
X147275000Y-112975000D01*
G75*
G02*
X147050000Y-112750000I0J225000D01*
G01*
X147050000Y-112250000D01*
G75*
G02*
X147275000Y-112025000I225000J0D01*
G01*
X147725000Y-112025000D01*
G75*
G02*
X147950000Y-112250000I0J-225000D01*
G01*
G37*
G36*
G01*
X154900000Y-110500000D02*
X154900000Y-111000000D01*
G75*
G02*
X154675000Y-111225000I-225000J0D01*
G01*
X154225000Y-111225000D01*
G75*
G02*
X154000000Y-111000000I0J225000D01*
G01*
X154000000Y-110500000D01*
G75*
G02*
X154225000Y-110275000I225000J0D01*
G01*
X154675000Y-110275000D01*
G75*
G02*
X154900000Y-110500000I0J-225000D01*
G01*
G37*
G36*
G01*
X156450000Y-110500000D02*
X156450000Y-111000000D01*
G75*
G02*
X156225000Y-111225000I-225000J0D01*
G01*
X155775000Y-111225000D01*
G75*
G02*
X155550000Y-111000000I0J225000D01*
G01*
X155550000Y-110500000D01*
G75*
G02*
X155775000Y-110275000I225000J0D01*
G01*
X156225000Y-110275000D01*
G75*
G02*
X156450000Y-110500000I0J-225000D01*
G01*
G37*
M02*
