%FSLAX45Y45*%
G04 Gerber Fmt 4.5, Leading zero omitted, Abs format (unit mm)*
G04 Created by KiCad (PCBNEW 5.1.10) date 2021-08-01 14:45:27*
%MOMM*%
%LPD*%
G01*
G04 APERTURE LIST*
%TA.AperFunction,Profile*%
%ADD10C,0.050000*%
%TD*%
%ADD11C,0.200000*%
%ADD12C,0.300000*%
G04 APERTURE END LIST*
D10*
X17835000Y-10477500D02*
X17900000Y-10400000D01*
X17835000Y-10593000D02*
X17835000Y-10477500D01*
X17835000Y-10593000D02*
X16535000Y-10593000D01*
X11475000Y-10150000D02*
X11475000Y-11650000D01*
X16535000Y-10700000D02*
G75*
G02*
X16535000Y-10593000I0J53500D01*
G01*
X16535000Y-11207000D02*
G75*
G02*
X16535000Y-11100000I0J53500D01*
G01*
X17835000Y-11207000D02*
X17835000Y-11322500D01*
X16535000Y-11207000D02*
X17835000Y-11207000D01*
X16535000Y-10700000D02*
X16535000Y-11100000D01*
X11475000Y-11650000D02*
X17900000Y-11650000D01*
X17900000Y-10150000D02*
X11475000Y-10150000D01*
X17900000Y-10400000D02*
X17900000Y-10150000D01*
X17900000Y-11400000D02*
X17900000Y-11650000D01*
X17835000Y-11322500D02*
X17900000Y-11400000D01*
D11*
X14825000Y-10325000D02*
X14875000Y-10375000D01*
X14875000Y-10325000D02*
X14825000Y-10375000D01*
D12*
X11758928Y-12118214D02*
X11758928Y-11818214D01*
X11830357Y-11818214D01*
X11873214Y-11832500D01*
X11901786Y-11861071D01*
X11916071Y-11889643D01*
X11930357Y-11946786D01*
X11930357Y-11989643D01*
X11916071Y-12046786D01*
X11901786Y-12075357D01*
X11873214Y-12103929D01*
X11830357Y-12118214D01*
X11758928Y-12118214D01*
X12058928Y-12118214D02*
X12058928Y-11918214D01*
X12058928Y-11975357D02*
X12073214Y-11946786D01*
X12087500Y-11932500D01*
X12116071Y-11918214D01*
X12144643Y-11918214D01*
X12244643Y-12118214D02*
X12244643Y-11918214D01*
X12244643Y-11818214D02*
X12230357Y-11832500D01*
X12244643Y-11846786D01*
X12258928Y-11832500D01*
X12244643Y-11818214D01*
X12244643Y-11846786D01*
X12430357Y-12118214D02*
X12401786Y-12103929D01*
X12387500Y-12075357D01*
X12387500Y-11818214D01*
X12587500Y-12118214D02*
X12558928Y-12103929D01*
X12544643Y-12075357D01*
X12544643Y-11818214D01*
X12930357Y-12118214D02*
X12930357Y-11818214D01*
X13030357Y-12032500D01*
X13130357Y-11818214D01*
X13130357Y-12118214D01*
X13401786Y-12118214D02*
X13401786Y-11961071D01*
X13387500Y-11932500D01*
X13358928Y-11918214D01*
X13301786Y-11918214D01*
X13273214Y-11932500D01*
X13401786Y-12103929D02*
X13373214Y-12118214D01*
X13301786Y-12118214D01*
X13273214Y-12103929D01*
X13258928Y-12075357D01*
X13258928Y-12046786D01*
X13273214Y-12018214D01*
X13301786Y-12003929D01*
X13373214Y-12003929D01*
X13401786Y-11989643D01*
X13544643Y-11918214D02*
X13544643Y-12218214D01*
X13544643Y-11932500D02*
X13573214Y-11918214D01*
X13630357Y-11918214D01*
X13658928Y-11932500D01*
X13673214Y-11946786D01*
X13687500Y-11975357D01*
X13687500Y-12061071D01*
X13673214Y-12089643D01*
X13658928Y-12103929D01*
X13630357Y-12118214D01*
X13573214Y-12118214D01*
X13544643Y-12103929D01*
X13816071Y-12089643D02*
X13830357Y-12103929D01*
X13816071Y-12118214D01*
X13801786Y-12103929D01*
X13816071Y-12089643D01*
X13816071Y-12118214D01*
X13816071Y-11932500D02*
X13830357Y-11946786D01*
X13816071Y-11961071D01*
X13801786Y-11946786D01*
X13816071Y-11932500D01*
X13816071Y-11961071D01*
X11422500Y-12587500D02*
X11472500Y-12637500D01*
X11472500Y-12587500D02*
X11422500Y-12637500D01*
X11816071Y-12448214D02*
X11844643Y-12448214D01*
X11873214Y-12462500D01*
X11887500Y-12476786D01*
X11901786Y-12505357D01*
X11916071Y-12562500D01*
X11916071Y-12633929D01*
X11901786Y-12691071D01*
X11887500Y-12719643D01*
X11873214Y-12733929D01*
X11844643Y-12748214D01*
X11816071Y-12748214D01*
X11787500Y-12733929D01*
X11773214Y-12719643D01*
X11758928Y-12691071D01*
X11744643Y-12633929D01*
X11744643Y-12562500D01*
X11758928Y-12505357D01*
X11773214Y-12476786D01*
X11787500Y-12462500D01*
X11816071Y-12448214D01*
X12044643Y-12719643D02*
X12058928Y-12733929D01*
X12044643Y-12748214D01*
X12030357Y-12733929D01*
X12044643Y-12719643D01*
X12044643Y-12748214D01*
X12330357Y-12448214D02*
X12187500Y-12448214D01*
X12173214Y-12591071D01*
X12187500Y-12576786D01*
X12216071Y-12562500D01*
X12287500Y-12562500D01*
X12316071Y-12576786D01*
X12330357Y-12591071D01*
X12344643Y-12619643D01*
X12344643Y-12691071D01*
X12330357Y-12719643D01*
X12316071Y-12733929D01*
X12287500Y-12748214D01*
X12216071Y-12748214D01*
X12187500Y-12733929D01*
X12173214Y-12719643D01*
X12530357Y-12448214D02*
X12558928Y-12448214D01*
X12587500Y-12462500D01*
X12601786Y-12476786D01*
X12616071Y-12505357D01*
X12630357Y-12562500D01*
X12630357Y-12633929D01*
X12616071Y-12691071D01*
X12601786Y-12719643D01*
X12587500Y-12733929D01*
X12558928Y-12748214D01*
X12530357Y-12748214D01*
X12501786Y-12733929D01*
X12487500Y-12719643D01*
X12473214Y-12691071D01*
X12458928Y-12633929D01*
X12458928Y-12562500D01*
X12473214Y-12505357D01*
X12487500Y-12476786D01*
X12501786Y-12462500D01*
X12530357Y-12448214D01*
X12816071Y-12448214D02*
X12844643Y-12448214D01*
X12873214Y-12462500D01*
X12887500Y-12476786D01*
X12901786Y-12505357D01*
X12916071Y-12562500D01*
X12916071Y-12633929D01*
X12901786Y-12691071D01*
X12887500Y-12719643D01*
X12873214Y-12733929D01*
X12844643Y-12748214D01*
X12816071Y-12748214D01*
X12787500Y-12733929D01*
X12773214Y-12719643D01*
X12758928Y-12691071D01*
X12744643Y-12633929D01*
X12744643Y-12562500D01*
X12758928Y-12505357D01*
X12773214Y-12476786D01*
X12787500Y-12462500D01*
X12816071Y-12448214D01*
X13044643Y-12748214D02*
X13044643Y-12548214D01*
X13044643Y-12576786D02*
X13058928Y-12562500D01*
X13087500Y-12548214D01*
X13130357Y-12548214D01*
X13158928Y-12562500D01*
X13173214Y-12591071D01*
X13173214Y-12748214D01*
X13173214Y-12591071D02*
X13187500Y-12562500D01*
X13216071Y-12548214D01*
X13258928Y-12548214D01*
X13287500Y-12562500D01*
X13301786Y-12591071D01*
X13301786Y-12748214D01*
X13444643Y-12748214D02*
X13444643Y-12548214D01*
X13444643Y-12576786D02*
X13458928Y-12562500D01*
X13487500Y-12548214D01*
X13530357Y-12548214D01*
X13558928Y-12562500D01*
X13573214Y-12591071D01*
X13573214Y-12748214D01*
X13573214Y-12591071D02*
X13587500Y-12562500D01*
X13616071Y-12548214D01*
X13658928Y-12548214D01*
X13687500Y-12562500D01*
X13701786Y-12591071D01*
X13701786Y-12748214D01*
X14287500Y-12433929D02*
X14030357Y-12819643D01*
X14673214Y-12448214D02*
X14701786Y-12448214D01*
X14730357Y-12462500D01*
X14744643Y-12476786D01*
X14758928Y-12505357D01*
X14773214Y-12562500D01*
X14773214Y-12633929D01*
X14758928Y-12691071D01*
X14744643Y-12719643D01*
X14730357Y-12733929D01*
X14701786Y-12748214D01*
X14673214Y-12748214D01*
X14644643Y-12733929D01*
X14630357Y-12719643D01*
X14616071Y-12691071D01*
X14601786Y-12633929D01*
X14601786Y-12562500D01*
X14616071Y-12505357D01*
X14630357Y-12476786D01*
X14644643Y-12462500D01*
X14673214Y-12448214D01*
X14901786Y-12719643D02*
X14916071Y-12733929D01*
X14901786Y-12748214D01*
X14887500Y-12733929D01*
X14901786Y-12719643D01*
X14901786Y-12748214D01*
X15101786Y-12448214D02*
X15130357Y-12448214D01*
X15158928Y-12462500D01*
X15173214Y-12476786D01*
X15187500Y-12505357D01*
X15201786Y-12562500D01*
X15201786Y-12633929D01*
X15187500Y-12691071D01*
X15173214Y-12719643D01*
X15158928Y-12733929D01*
X15130357Y-12748214D01*
X15101786Y-12748214D01*
X15073214Y-12733929D01*
X15058928Y-12719643D01*
X15044643Y-12691071D01*
X15030357Y-12633929D01*
X15030357Y-12562500D01*
X15044643Y-12505357D01*
X15058928Y-12476786D01*
X15073214Y-12462500D01*
X15101786Y-12448214D01*
X15487500Y-12748214D02*
X15316071Y-12748214D01*
X15401786Y-12748214D02*
X15401786Y-12448214D01*
X15373214Y-12491071D01*
X15344643Y-12519643D01*
X15316071Y-12533929D01*
X15630357Y-12748214D02*
X15687500Y-12748214D01*
X15716071Y-12733929D01*
X15730357Y-12719643D01*
X15758928Y-12676786D01*
X15773214Y-12619643D01*
X15773214Y-12505357D01*
X15758928Y-12476786D01*
X15744643Y-12462500D01*
X15716071Y-12448214D01*
X15658928Y-12448214D01*
X15630357Y-12462500D01*
X15616071Y-12476786D01*
X15601786Y-12505357D01*
X15601786Y-12576786D01*
X15616071Y-12605357D01*
X15630357Y-12619643D01*
X15658928Y-12633929D01*
X15716071Y-12633929D01*
X15744643Y-12619643D01*
X15758928Y-12605357D01*
X15773214Y-12576786D01*
X15873214Y-12448214D02*
X16073214Y-12448214D01*
X15944643Y-12748214D01*
X16173214Y-12448214D02*
X16173214Y-12505357D01*
X16287500Y-12448214D02*
X16287500Y-12505357D01*
X16730357Y-12862500D02*
X16716071Y-12848214D01*
X16687500Y-12805357D01*
X16673214Y-12776786D01*
X16658928Y-12733929D01*
X16644643Y-12662500D01*
X16644643Y-12605357D01*
X16658928Y-12533929D01*
X16673214Y-12491071D01*
X16687500Y-12462500D01*
X16716071Y-12419643D01*
X16730357Y-12405357D01*
X17001786Y-12748214D02*
X16830357Y-12748214D01*
X16916071Y-12748214D02*
X16916071Y-12448214D01*
X16887500Y-12491071D01*
X16858928Y-12519643D01*
X16830357Y-12533929D01*
X17358928Y-12748214D02*
X17358928Y-12448214D01*
X17487500Y-12748214D02*
X17487500Y-12591071D01*
X17473214Y-12562500D01*
X17444643Y-12548214D01*
X17401786Y-12548214D01*
X17373214Y-12562500D01*
X17358928Y-12576786D01*
X17673214Y-12748214D02*
X17644643Y-12733929D01*
X17630357Y-12719643D01*
X17616071Y-12691071D01*
X17616071Y-12605357D01*
X17630357Y-12576786D01*
X17644643Y-12562500D01*
X17673214Y-12548214D01*
X17716071Y-12548214D01*
X17744643Y-12562500D01*
X17758928Y-12576786D01*
X17773214Y-12605357D01*
X17773214Y-12691071D01*
X17758928Y-12719643D01*
X17744643Y-12733929D01*
X17716071Y-12748214D01*
X17673214Y-12748214D01*
X17944643Y-12748214D02*
X17916071Y-12733929D01*
X17901786Y-12705357D01*
X17901786Y-12448214D01*
X18173214Y-12733929D02*
X18144643Y-12748214D01*
X18087500Y-12748214D01*
X18058928Y-12733929D01*
X18044643Y-12705357D01*
X18044643Y-12591071D01*
X18058928Y-12562500D01*
X18087500Y-12548214D01*
X18144643Y-12548214D01*
X18173214Y-12562500D01*
X18187500Y-12591071D01*
X18187500Y-12619643D01*
X18044643Y-12648214D01*
X18287500Y-12862500D02*
X18301786Y-12848214D01*
X18330357Y-12805357D01*
X18344643Y-12776786D01*
X18358928Y-12733929D01*
X18373214Y-12662500D01*
X18373214Y-12605357D01*
X18358928Y-12533929D01*
X18344643Y-12491071D01*
X18330357Y-12462500D01*
X18301786Y-12419643D01*
X18287500Y-12405357D01*
X18830357Y-12862500D02*
X18816071Y-12848214D01*
X18787500Y-12805357D01*
X18773214Y-12776786D01*
X18758928Y-12733929D01*
X18744643Y-12662500D01*
X18744643Y-12605357D01*
X18758928Y-12533929D01*
X18773214Y-12491071D01*
X18787500Y-12462500D01*
X18816071Y-12419643D01*
X18830357Y-12405357D01*
X18944643Y-12548214D02*
X18944643Y-12748214D01*
X18944643Y-12576786D02*
X18958928Y-12562500D01*
X18987500Y-12548214D01*
X19030357Y-12548214D01*
X19058928Y-12562500D01*
X19073214Y-12591071D01*
X19073214Y-12748214D01*
X19258928Y-12748214D02*
X19230357Y-12733929D01*
X19216071Y-12719643D01*
X19201786Y-12691071D01*
X19201786Y-12605357D01*
X19216071Y-12576786D01*
X19230357Y-12562500D01*
X19258928Y-12548214D01*
X19301786Y-12548214D01*
X19330357Y-12562500D01*
X19344643Y-12576786D01*
X19358928Y-12605357D01*
X19358928Y-12691071D01*
X19344643Y-12719643D01*
X19330357Y-12733929D01*
X19301786Y-12748214D01*
X19258928Y-12748214D01*
X19444643Y-12548214D02*
X19558928Y-12548214D01*
X19487500Y-12448214D02*
X19487500Y-12705357D01*
X19501786Y-12733929D01*
X19530357Y-12748214D01*
X19558928Y-12748214D01*
X19887500Y-12548214D02*
X19887500Y-12848214D01*
X19887500Y-12562500D02*
X19916071Y-12548214D01*
X19973214Y-12548214D01*
X20001786Y-12562500D01*
X20016071Y-12576786D01*
X20030357Y-12605357D01*
X20030357Y-12691071D01*
X20016071Y-12719643D01*
X20001786Y-12733929D01*
X19973214Y-12748214D01*
X19916071Y-12748214D01*
X19887500Y-12733929D01*
X20201786Y-12748214D02*
X20173214Y-12733929D01*
X20158928Y-12705357D01*
X20158928Y-12448214D01*
X20444643Y-12748214D02*
X20444643Y-12591071D01*
X20430357Y-12562500D01*
X20401786Y-12548214D01*
X20344643Y-12548214D01*
X20316071Y-12562500D01*
X20444643Y-12733929D02*
X20416071Y-12748214D01*
X20344643Y-12748214D01*
X20316071Y-12733929D01*
X20301786Y-12705357D01*
X20301786Y-12676786D01*
X20316071Y-12648214D01*
X20344643Y-12633929D01*
X20416071Y-12633929D01*
X20444643Y-12619643D01*
X20544643Y-12548214D02*
X20658928Y-12548214D01*
X20587500Y-12448214D02*
X20587500Y-12705357D01*
X20601786Y-12733929D01*
X20630357Y-12748214D01*
X20658928Y-12748214D01*
X20873214Y-12733929D02*
X20844643Y-12748214D01*
X20787500Y-12748214D01*
X20758928Y-12733929D01*
X20744643Y-12705357D01*
X20744643Y-12591071D01*
X20758928Y-12562500D01*
X20787500Y-12548214D01*
X20844643Y-12548214D01*
X20873214Y-12562500D01*
X20887500Y-12591071D01*
X20887500Y-12619643D01*
X20744643Y-12648214D01*
X21144643Y-12748214D02*
X21144643Y-12448214D01*
X21144643Y-12733929D02*
X21116071Y-12748214D01*
X21058928Y-12748214D01*
X21030357Y-12733929D01*
X21016071Y-12719643D01*
X21001786Y-12691071D01*
X21001786Y-12605357D01*
X21016071Y-12576786D01*
X21030357Y-12562500D01*
X21058928Y-12548214D01*
X21116071Y-12548214D01*
X21144643Y-12562500D01*
X21258928Y-12862500D02*
X21273214Y-12848214D01*
X21301786Y-12805357D01*
X21316071Y-12776786D01*
X21330357Y-12733929D01*
X21344643Y-12662500D01*
X21344643Y-12605357D01*
X21330357Y-12533929D01*
X21316071Y-12491071D01*
X21301786Y-12462500D01*
X21273214Y-12419643D01*
X21258928Y-12405357D01*
M02*
