G04 #@! TF.GenerationSoftware,KiCad,Pcbnew,5.1.10*
G04 #@! TF.CreationDate,2021-08-01T14:45:19-04:00*
G04 #@! TF.ProjectId,dac,6461632e-6b69-4636-9164-5f7063625858,rev?*
G04 #@! TF.SameCoordinates,Original*
G04 #@! TF.FileFunction,Soldermask,Top*
G04 #@! TF.FilePolarity,Negative*
%FSLAX46Y46*%
G04 Gerber Fmt 4.6, Leading zero omitted, Abs format (unit mm)*
G04 Created by KiCad (PCBNEW 5.1.10) date 2021-08-01 14:45:19*
%MOMM*%
%LPD*%
G01*
G04 APERTURE LIST*
%ADD10C,0.500000*%
%ADD11O,3.200000X1.600000*%
%ADD12R,2.500000X2.430000*%
%ADD13R,0.650000X1.060000*%
%ADD14R,0.410000X1.640000*%
%ADD15R,1.200000X1.400000*%
%ADD16R,0.650000X1.220000*%
%ADD17R,1.750000X0.450000*%
%ADD18R,1.500000X1.500000*%
%ADD19R,1.400000X1.050000*%
%ADD20C,1.346200*%
%ADD21R,0.558800X1.905000*%
%ADD22R,0.800000X1.200000*%
%ADD23R,1.200000X1.200000*%
%ADD24C,0.900000*%
%ADD25C,0.700000*%
%ADD26C,0.500000*%
%ADD27O,2.216000X1.108000*%
%ADD28C,0.650000*%
%ADD29R,0.360000X0.250000*%
G04 APERTURE END LIST*
D10*
X149190000Y-103507000D02*
G75*
G03*
X149190000Y-103507000I-690000J0D01*
G01*
D11*
X176150000Y-104775000D03*
X169350000Y-113225000D03*
X176150000Y-113225000D03*
X169350000Y-104775000D03*
D12*
X172750000Y-104715000D03*
X172750000Y-113285000D03*
G36*
G01*
X123900000Y-107750000D02*
X123900000Y-108250000D01*
G75*
G02*
X123675000Y-108475000I-225000J0D01*
G01*
X123225000Y-108475000D01*
G75*
G02*
X123000000Y-108250000I0J225000D01*
G01*
X123000000Y-107750000D01*
G75*
G02*
X123225000Y-107525000I225000J0D01*
G01*
X123675000Y-107525000D01*
G75*
G02*
X123900000Y-107750000I0J-225000D01*
G01*
G37*
G36*
G01*
X125450000Y-107750000D02*
X125450000Y-108250000D01*
G75*
G02*
X125225000Y-108475000I-225000J0D01*
G01*
X124775000Y-108475000D01*
G75*
G02*
X124550000Y-108250000I0J225000D01*
G01*
X124550000Y-107750000D01*
G75*
G02*
X124775000Y-107525000I225000J0D01*
G01*
X125225000Y-107525000D01*
G75*
G02*
X125450000Y-107750000I0J-225000D01*
G01*
G37*
D13*
X126350000Y-104750000D03*
X127300000Y-104750000D03*
X128250000Y-104750000D03*
X128250000Y-102550000D03*
X126350000Y-102550000D03*
X127300000Y-102550000D03*
D14*
X162722500Y-106365000D03*
X162087500Y-106365000D03*
X161452500Y-106365000D03*
X160817500Y-106365000D03*
X160182500Y-106365000D03*
X159547500Y-106365000D03*
X158912500Y-106365000D03*
X158277500Y-106365000D03*
X158277500Y-111635000D03*
X158912500Y-111635000D03*
X159547500Y-111635000D03*
X160182500Y-111635000D03*
X160817500Y-111635000D03*
X161452500Y-111635000D03*
X162087500Y-111635000D03*
X162722500Y-111635000D03*
D15*
X145500000Y-108250000D03*
X145500000Y-110450000D03*
X143800000Y-110450000D03*
X143800000Y-108250000D03*
D16*
X125200000Y-112310000D03*
X123300000Y-112310000D03*
X123300000Y-109690000D03*
X124250000Y-109690000D03*
X125200000Y-109690000D03*
D17*
X140100000Y-103600000D03*
X140100000Y-104250000D03*
X140100000Y-104900000D03*
X140100000Y-105550000D03*
X140100000Y-106200000D03*
X140100000Y-106850000D03*
X140100000Y-107500000D03*
X140100000Y-108150000D03*
X140100000Y-108800000D03*
X140100000Y-109450000D03*
X140100000Y-110100000D03*
X140100000Y-110750000D03*
X140100000Y-111400000D03*
X140100000Y-112050000D03*
X132900000Y-112050000D03*
X132900000Y-111400000D03*
X132900000Y-110750000D03*
X132900000Y-110100000D03*
X132900000Y-109450000D03*
X132900000Y-108800000D03*
X132900000Y-108150000D03*
X132900000Y-107500000D03*
X132900000Y-106850000D03*
X132900000Y-106200000D03*
X132900000Y-105550000D03*
X132900000Y-104900000D03*
X132900000Y-104250000D03*
X132900000Y-103600000D03*
D18*
X157750000Y-115000000D03*
D19*
X135500000Y-115675000D03*
X131900000Y-115675000D03*
X135500000Y-114225000D03*
X131900000Y-114225000D03*
X141250000Y-115700000D03*
X137650000Y-115700000D03*
X141250000Y-114250000D03*
X137650000Y-114250000D03*
X147000000Y-115675000D03*
X143400000Y-115675000D03*
X147000000Y-114225000D03*
X143400000Y-114225000D03*
D20*
X150750000Y-114799600D03*
X153750000Y-114799600D03*
D21*
X154750000Y-112602900D03*
X152250000Y-112602900D03*
X149750000Y-112602900D03*
D22*
X152325000Y-109250000D03*
X154675000Y-109250000D03*
D23*
X153500000Y-105000000D03*
G36*
G01*
X141850000Y-108850000D02*
X142350000Y-108850000D01*
G75*
G02*
X142575000Y-109075000I0J-225000D01*
G01*
X142575000Y-109525000D01*
G75*
G02*
X142350000Y-109750000I-225000J0D01*
G01*
X141850000Y-109750000D01*
G75*
G02*
X141625000Y-109525000I0J225000D01*
G01*
X141625000Y-109075000D01*
G75*
G02*
X141850000Y-108850000I225000J0D01*
G01*
G37*
G36*
G01*
X141850000Y-107300000D02*
X142350000Y-107300000D01*
G75*
G02*
X142575000Y-107525000I0J-225000D01*
G01*
X142575000Y-107975000D01*
G75*
G02*
X142350000Y-108200000I-225000J0D01*
G01*
X141850000Y-108200000D01*
G75*
G02*
X141625000Y-107975000I0J225000D01*
G01*
X141625000Y-107525000D01*
G75*
G02*
X141850000Y-107300000I225000J0D01*
G01*
G37*
G36*
G01*
X130250000Y-112425000D02*
X129750000Y-112425000D01*
G75*
G02*
X129525000Y-112200000I0J225000D01*
G01*
X129525000Y-111750000D01*
G75*
G02*
X129750000Y-111525000I225000J0D01*
G01*
X130250000Y-111525000D01*
G75*
G02*
X130475000Y-111750000I0J-225000D01*
G01*
X130475000Y-112200000D01*
G75*
G02*
X130250000Y-112425000I-225000J0D01*
G01*
G37*
G36*
G01*
X130250000Y-113975000D02*
X129750000Y-113975000D01*
G75*
G02*
X129525000Y-113750000I0J225000D01*
G01*
X129525000Y-113300000D01*
G75*
G02*
X129750000Y-113075000I225000J0D01*
G01*
X130250000Y-113075000D01*
G75*
G02*
X130475000Y-113300000I0J-225000D01*
G01*
X130475000Y-113750000D01*
G75*
G02*
X130250000Y-113975000I-225000J0D01*
G01*
G37*
G36*
G01*
X128750000Y-112450000D02*
X128250000Y-112450000D01*
G75*
G02*
X128025000Y-112225000I0J225000D01*
G01*
X128025000Y-111775000D01*
G75*
G02*
X128250000Y-111550000I225000J0D01*
G01*
X128750000Y-111550000D01*
G75*
G02*
X128975000Y-111775000I0J-225000D01*
G01*
X128975000Y-112225000D01*
G75*
G02*
X128750000Y-112450000I-225000J0D01*
G01*
G37*
G36*
G01*
X128750000Y-114000000D02*
X128250000Y-114000000D01*
G75*
G02*
X128025000Y-113775000I0J225000D01*
G01*
X128025000Y-113325000D01*
G75*
G02*
X128250000Y-113100000I225000J0D01*
G01*
X128750000Y-113100000D01*
G75*
G02*
X128975000Y-113325000I0J-225000D01*
G01*
X128975000Y-113775000D01*
G75*
G02*
X128750000Y-114000000I-225000J0D01*
G01*
G37*
G36*
G01*
X127250000Y-112450000D02*
X126750000Y-112450000D01*
G75*
G02*
X126525000Y-112225000I0J225000D01*
G01*
X126525000Y-111775000D01*
G75*
G02*
X126750000Y-111550000I225000J0D01*
G01*
X127250000Y-111550000D01*
G75*
G02*
X127475000Y-111775000I0J-225000D01*
G01*
X127475000Y-112225000D01*
G75*
G02*
X127250000Y-112450000I-225000J0D01*
G01*
G37*
G36*
G01*
X127250000Y-114000000D02*
X126750000Y-114000000D01*
G75*
G02*
X126525000Y-113775000I0J225000D01*
G01*
X126525000Y-113325000D01*
G75*
G02*
X126750000Y-113100000I225000J0D01*
G01*
X127250000Y-113100000D01*
G75*
G02*
X127475000Y-113325000I0J-225000D01*
G01*
X127475000Y-113775000D01*
G75*
G02*
X127250000Y-114000000I-225000J0D01*
G01*
G37*
G36*
G01*
X131417500Y-104245000D02*
X131417500Y-104555000D01*
G75*
G02*
X131262500Y-104710000I-155000J0D01*
G01*
X130837500Y-104710000D01*
G75*
G02*
X130682500Y-104555000I0J155000D01*
G01*
X130682500Y-104245000D01*
G75*
G02*
X130837500Y-104090000I155000J0D01*
G01*
X131262500Y-104090000D01*
G75*
G02*
X131417500Y-104245000I0J-155000D01*
G01*
G37*
G36*
G01*
X130282500Y-104245000D02*
X130282500Y-104555000D01*
G75*
G02*
X130127500Y-104710000I-155000J0D01*
G01*
X129702500Y-104710000D01*
G75*
G02*
X129547500Y-104555000I0J155000D01*
G01*
X129547500Y-104245000D01*
G75*
G02*
X129702500Y-104090000I155000J0D01*
G01*
X130127500Y-104090000D01*
G75*
G02*
X130282500Y-104245000I0J-155000D01*
G01*
G37*
G36*
G01*
X130282500Y-103345000D02*
X130282500Y-103655000D01*
G75*
G02*
X130127500Y-103810000I-155000J0D01*
G01*
X129702500Y-103810000D01*
G75*
G02*
X129547500Y-103655000I0J155000D01*
G01*
X129547500Y-103345000D01*
G75*
G02*
X129702500Y-103190000I155000J0D01*
G01*
X130127500Y-103190000D01*
G75*
G02*
X130282500Y-103345000I0J-155000D01*
G01*
G37*
G36*
G01*
X131417500Y-103345000D02*
X131417500Y-103655000D01*
G75*
G02*
X131262500Y-103810000I-155000J0D01*
G01*
X130837500Y-103810000D01*
G75*
G02*
X130682500Y-103655000I0J155000D01*
G01*
X130682500Y-103345000D01*
G75*
G02*
X130837500Y-103190000I155000J0D01*
G01*
X131262500Y-103190000D01*
G75*
G02*
X131417500Y-103345000I0J-155000D01*
G01*
G37*
G36*
G01*
X120150000Y-102750000D02*
X120150000Y-103250000D01*
G75*
G02*
X119925000Y-103475000I-225000J0D01*
G01*
X119475000Y-103475000D01*
G75*
G02*
X119250000Y-103250000I0J225000D01*
G01*
X119250000Y-102750000D01*
G75*
G02*
X119475000Y-102525000I225000J0D01*
G01*
X119925000Y-102525000D01*
G75*
G02*
X120150000Y-102750000I0J-225000D01*
G01*
G37*
G36*
G01*
X121700000Y-102750000D02*
X121700000Y-103250000D01*
G75*
G02*
X121475000Y-103475000I-225000J0D01*
G01*
X121025000Y-103475000D01*
G75*
G02*
X120800000Y-103250000I0J225000D01*
G01*
X120800000Y-102750000D01*
G75*
G02*
X121025000Y-102525000I225000J0D01*
G01*
X121475000Y-102525000D01*
G75*
G02*
X121700000Y-102750000I0J-225000D01*
G01*
G37*
G36*
G01*
X145850000Y-105300000D02*
X145350000Y-105300000D01*
G75*
G02*
X145125000Y-105075000I0J225000D01*
G01*
X145125000Y-104625000D01*
G75*
G02*
X145350000Y-104400000I225000J0D01*
G01*
X145850000Y-104400000D01*
G75*
G02*
X146075000Y-104625000I0J-225000D01*
G01*
X146075000Y-105075000D01*
G75*
G02*
X145850000Y-105300000I-225000J0D01*
G01*
G37*
G36*
G01*
X145850000Y-106850000D02*
X145350000Y-106850000D01*
G75*
G02*
X145125000Y-106625000I0J225000D01*
G01*
X145125000Y-106175000D01*
G75*
G02*
X145350000Y-105950000I225000J0D01*
G01*
X145850000Y-105950000D01*
G75*
G02*
X146075000Y-106175000I0J-225000D01*
G01*
X146075000Y-106625000D01*
G75*
G02*
X145850000Y-106850000I-225000J0D01*
G01*
G37*
G36*
G01*
X120825000Y-115500000D02*
X120825000Y-115000000D01*
G75*
G02*
X121050000Y-114775000I225000J0D01*
G01*
X121500000Y-114775000D01*
G75*
G02*
X121725000Y-115000000I0J-225000D01*
G01*
X121725000Y-115500000D01*
G75*
G02*
X121500000Y-115725000I-225000J0D01*
G01*
X121050000Y-115725000D01*
G75*
G02*
X120825000Y-115500000I0J225000D01*
G01*
G37*
G36*
G01*
X119275000Y-115500000D02*
X119275000Y-115000000D01*
G75*
G02*
X119500000Y-114775000I225000J0D01*
G01*
X119950000Y-114775000D01*
G75*
G02*
X120175000Y-115000000I0J-225000D01*
G01*
X120175000Y-115500000D01*
G75*
G02*
X119950000Y-115725000I-225000J0D01*
G01*
X119500000Y-115725000D01*
G75*
G02*
X119275000Y-115500000I0J225000D01*
G01*
G37*
G36*
G01*
X151950000Y-110500000D02*
X151950000Y-111000000D01*
G75*
G02*
X151725000Y-111225000I-225000J0D01*
G01*
X151275000Y-111225000D01*
G75*
G02*
X151050000Y-111000000I0J225000D01*
G01*
X151050000Y-110500000D01*
G75*
G02*
X151275000Y-110275000I225000J0D01*
G01*
X151725000Y-110275000D01*
G75*
G02*
X151950000Y-110500000I0J-225000D01*
G01*
G37*
G36*
G01*
X153500000Y-110500000D02*
X153500000Y-111000000D01*
G75*
G02*
X153275000Y-111225000I-225000J0D01*
G01*
X152825000Y-111225000D01*
G75*
G02*
X152600000Y-111000000I0J225000D01*
G01*
X152600000Y-110500000D01*
G75*
G02*
X152825000Y-110275000I225000J0D01*
G01*
X153275000Y-110275000D01*
G75*
G02*
X153500000Y-110500000I0J-225000D01*
G01*
G37*
G36*
G01*
X155750000Y-102925000D02*
X155250000Y-102925000D01*
G75*
G02*
X155025000Y-102700000I0J225000D01*
G01*
X155025000Y-102250000D01*
G75*
G02*
X155250000Y-102025000I225000J0D01*
G01*
X155750000Y-102025000D01*
G75*
G02*
X155975000Y-102250000I0J-225000D01*
G01*
X155975000Y-102700000D01*
G75*
G02*
X155750000Y-102925000I-225000J0D01*
G01*
G37*
G36*
G01*
X155750000Y-104475000D02*
X155250000Y-104475000D01*
G75*
G02*
X155025000Y-104250000I0J225000D01*
G01*
X155025000Y-103800000D01*
G75*
G02*
X155250000Y-103575000I225000J0D01*
G01*
X155750000Y-103575000D01*
G75*
G02*
X155975000Y-103800000I0J-225000D01*
G01*
X155975000Y-104250000D01*
G75*
G02*
X155750000Y-104475000I-225000J0D01*
G01*
G37*
D24*
X147300000Y-106120000D03*
X148500000Y-106120000D03*
X149700000Y-106120000D03*
D25*
X147230000Y-102710000D03*
X149770000Y-102710000D03*
D26*
X148500000Y-103500000D03*
D27*
X117165000Y-104675000D03*
X117165000Y-113325000D03*
X120545000Y-113325000D03*
X120545000Y-104675000D03*
D28*
X120175000Y-106025000D03*
X120175000Y-106875000D03*
X120175000Y-107725000D03*
X120175000Y-108575000D03*
X120175000Y-109425000D03*
X120175000Y-110275000D03*
X120175000Y-111125000D03*
X120175000Y-111975000D03*
X121525000Y-111975000D03*
X121525000Y-111125000D03*
X121525000Y-110275000D03*
X121525000Y-109425000D03*
X121525000Y-108575000D03*
X121525000Y-107725000D03*
X121525000Y-106875000D03*
X121525000Y-106025000D03*
D29*
X159660000Y-113500000D03*
X160500000Y-113500000D03*
X162500000Y-113500000D03*
X161660000Y-113500000D03*
G36*
G01*
X148950000Y-110700001D02*
X148950000Y-109799999D01*
G75*
G02*
X149199999Y-109550000I249999J0D01*
G01*
X149850001Y-109550000D01*
G75*
G02*
X150100000Y-109799999I0J-249999D01*
G01*
X150100000Y-110700001D01*
G75*
G02*
X149850001Y-110950000I-249999J0D01*
G01*
X149199999Y-110950000D01*
G75*
G02*
X148950000Y-110700001I0J249999D01*
G01*
G37*
G36*
G01*
X146900000Y-110700001D02*
X146900000Y-109799999D01*
G75*
G02*
X147149999Y-109550000I249999J0D01*
G01*
X147800001Y-109550000D01*
G75*
G02*
X148050000Y-109799999I0J-249999D01*
G01*
X148050000Y-110700001D01*
G75*
G02*
X147800001Y-110950000I-249999J0D01*
G01*
X147149999Y-110950000D01*
G75*
G02*
X146900000Y-110700001I0J249999D01*
G01*
G37*
G36*
G01*
X148050000Y-107799999D02*
X148050000Y-108700001D01*
G75*
G02*
X147800001Y-108950000I-249999J0D01*
G01*
X147149999Y-108950000D01*
G75*
G02*
X146900000Y-108700001I0J249999D01*
G01*
X146900000Y-107799999D01*
G75*
G02*
X147149999Y-107550000I249999J0D01*
G01*
X147800001Y-107550000D01*
G75*
G02*
X148050000Y-107799999I0J-249999D01*
G01*
G37*
G36*
G01*
X150100000Y-107799999D02*
X150100000Y-108700001D01*
G75*
G02*
X149850001Y-108950000I-249999J0D01*
G01*
X149199999Y-108950000D01*
G75*
G02*
X148950000Y-108700001I0J249999D01*
G01*
X148950000Y-107799999D01*
G75*
G02*
X149199999Y-107550000I249999J0D01*
G01*
X149850001Y-107550000D01*
G75*
G02*
X150100000Y-107799999I0J-249999D01*
G01*
G37*
G36*
G01*
X124575000Y-114250000D02*
X124575000Y-113750000D01*
G75*
G02*
X124800000Y-113525000I225000J0D01*
G01*
X125250000Y-113525000D01*
G75*
G02*
X125475000Y-113750000I0J-225000D01*
G01*
X125475000Y-114250000D01*
G75*
G02*
X125250000Y-114475000I-225000J0D01*
G01*
X124800000Y-114475000D01*
G75*
G02*
X124575000Y-114250000I0J225000D01*
G01*
G37*
G36*
G01*
X123025000Y-114250000D02*
X123025000Y-113750000D01*
G75*
G02*
X123250000Y-113525000I225000J0D01*
G01*
X123700000Y-113525000D01*
G75*
G02*
X123925000Y-113750000I0J-225000D01*
G01*
X123925000Y-114250000D01*
G75*
G02*
X123700000Y-114475000I-225000J0D01*
G01*
X123250000Y-114475000D01*
G75*
G02*
X123025000Y-114250000I0J225000D01*
G01*
G37*
G36*
G01*
X129600000Y-110750000D02*
X129600000Y-110250000D01*
G75*
G02*
X129825000Y-110025000I225000J0D01*
G01*
X130275000Y-110025000D01*
G75*
G02*
X130500000Y-110250000I0J-225000D01*
G01*
X130500000Y-110750000D01*
G75*
G02*
X130275000Y-110975000I-225000J0D01*
G01*
X129825000Y-110975000D01*
G75*
G02*
X129600000Y-110750000I0J225000D01*
G01*
G37*
G36*
G01*
X128050000Y-110750000D02*
X128050000Y-110250000D01*
G75*
G02*
X128275000Y-110025000I225000J0D01*
G01*
X128725000Y-110025000D01*
G75*
G02*
X128950000Y-110250000I0J-225000D01*
G01*
X128950000Y-110750000D01*
G75*
G02*
X128725000Y-110975000I-225000J0D01*
G01*
X128275000Y-110975000D01*
G75*
G02*
X128050000Y-110750000I0J225000D01*
G01*
G37*
G36*
G01*
X123950000Y-115250000D02*
X123950000Y-115750000D01*
G75*
G02*
X123725000Y-115975000I-225000J0D01*
G01*
X123275000Y-115975000D01*
G75*
G02*
X123050000Y-115750000I0J225000D01*
G01*
X123050000Y-115250000D01*
G75*
G02*
X123275000Y-115025000I225000J0D01*
G01*
X123725000Y-115025000D01*
G75*
G02*
X123950000Y-115250000I0J-225000D01*
G01*
G37*
G36*
G01*
X125500000Y-115250000D02*
X125500000Y-115750000D01*
G75*
G02*
X125275000Y-115975000I-225000J0D01*
G01*
X124825000Y-115975000D01*
G75*
G02*
X124600000Y-115750000I0J225000D01*
G01*
X124600000Y-115250000D01*
G75*
G02*
X124825000Y-115025000I225000J0D01*
G01*
X125275000Y-115025000D01*
G75*
G02*
X125500000Y-115250000I0J-225000D01*
G01*
G37*
G36*
G01*
X143350000Y-104100000D02*
X142850000Y-104100000D01*
G75*
G02*
X142625000Y-103875000I0J225000D01*
G01*
X142625000Y-103425000D01*
G75*
G02*
X142850000Y-103200000I225000J0D01*
G01*
X143350000Y-103200000D01*
G75*
G02*
X143575000Y-103425000I0J-225000D01*
G01*
X143575000Y-103875000D01*
G75*
G02*
X143350000Y-104100000I-225000J0D01*
G01*
G37*
G36*
G01*
X143350000Y-105650000D02*
X142850000Y-105650000D01*
G75*
G02*
X142625000Y-105425000I0J225000D01*
G01*
X142625000Y-104975000D01*
G75*
G02*
X142850000Y-104750000I225000J0D01*
G01*
X143350000Y-104750000D01*
G75*
G02*
X143575000Y-104975000I0J-225000D01*
G01*
X143575000Y-105425000D01*
G75*
G02*
X143350000Y-105650000I-225000J0D01*
G01*
G37*
G36*
G01*
X156750000Y-103575000D02*
X157250000Y-103575000D01*
G75*
G02*
X157475000Y-103800000I0J-225000D01*
G01*
X157475000Y-104250000D01*
G75*
G02*
X157250000Y-104475000I-225000J0D01*
G01*
X156750000Y-104475000D01*
G75*
G02*
X156525000Y-104250000I0J225000D01*
G01*
X156525000Y-103800000D01*
G75*
G02*
X156750000Y-103575000I225000J0D01*
G01*
G37*
G36*
G01*
X156750000Y-102025000D02*
X157250000Y-102025000D01*
G75*
G02*
X157475000Y-102250000I0J-225000D01*
G01*
X157475000Y-102700000D01*
G75*
G02*
X157250000Y-102925000I-225000J0D01*
G01*
X156750000Y-102925000D01*
G75*
G02*
X156525000Y-102700000I0J225000D01*
G01*
X156525000Y-102250000D01*
G75*
G02*
X156750000Y-102025000I225000J0D01*
G01*
G37*
G36*
G01*
X142345000Y-112022500D02*
X142035000Y-112022500D01*
G75*
G02*
X141880000Y-111867500I0J155000D01*
G01*
X141880000Y-111442500D01*
G75*
G02*
X142035000Y-111287500I155000J0D01*
G01*
X142345000Y-111287500D01*
G75*
G02*
X142500000Y-111442500I0J-155000D01*
G01*
X142500000Y-111867500D01*
G75*
G02*
X142345000Y-112022500I-155000J0D01*
G01*
G37*
G36*
G01*
X142345000Y-110887500D02*
X142035000Y-110887500D01*
G75*
G02*
X141880000Y-110732500I0J155000D01*
G01*
X141880000Y-110307500D01*
G75*
G02*
X142035000Y-110152500I155000J0D01*
G01*
X142345000Y-110152500D01*
G75*
G02*
X142500000Y-110307500I0J-155000D01*
G01*
X142500000Y-110732500D01*
G75*
G02*
X142345000Y-110887500I-155000J0D01*
G01*
G37*
G36*
G01*
X143232500Y-106345000D02*
X143232500Y-106655000D01*
G75*
G02*
X143077500Y-106810000I-155000J0D01*
G01*
X142652500Y-106810000D01*
G75*
G02*
X142497500Y-106655000I0J155000D01*
G01*
X142497500Y-106345000D01*
G75*
G02*
X142652500Y-106190000I155000J0D01*
G01*
X143077500Y-106190000D01*
G75*
G02*
X143232500Y-106345000I0J-155000D01*
G01*
G37*
G36*
G01*
X144367500Y-106345000D02*
X144367500Y-106655000D01*
G75*
G02*
X144212500Y-106810000I-155000J0D01*
G01*
X143787500Y-106810000D01*
G75*
G02*
X143632500Y-106655000I0J155000D01*
G01*
X143632500Y-106345000D01*
G75*
G02*
X143787500Y-106190000I155000J0D01*
G01*
X144212500Y-106190000D01*
G75*
G02*
X144367500Y-106345000I0J-155000D01*
G01*
G37*
G36*
G01*
X158250000Y-103575000D02*
X158750000Y-103575000D01*
G75*
G02*
X158975000Y-103800000I0J-225000D01*
G01*
X158975000Y-104250000D01*
G75*
G02*
X158750000Y-104475000I-225000J0D01*
G01*
X158250000Y-104475000D01*
G75*
G02*
X158025000Y-104250000I0J225000D01*
G01*
X158025000Y-103800000D01*
G75*
G02*
X158250000Y-103575000I225000J0D01*
G01*
G37*
G36*
G01*
X158250000Y-102025000D02*
X158750000Y-102025000D01*
G75*
G02*
X158975000Y-102250000I0J-225000D01*
G01*
X158975000Y-102700000D01*
G75*
G02*
X158750000Y-102925000I-225000J0D01*
G01*
X158250000Y-102925000D01*
G75*
G02*
X158025000Y-102700000I0J225000D01*
G01*
X158025000Y-102250000D01*
G75*
G02*
X158250000Y-102025000I225000J0D01*
G01*
G37*
G36*
G01*
X159750000Y-103575000D02*
X160250000Y-103575000D01*
G75*
G02*
X160475000Y-103800000I0J-225000D01*
G01*
X160475000Y-104250000D01*
G75*
G02*
X160250000Y-104475000I-225000J0D01*
G01*
X159750000Y-104475000D01*
G75*
G02*
X159525000Y-104250000I0J225000D01*
G01*
X159525000Y-103800000D01*
G75*
G02*
X159750000Y-103575000I225000J0D01*
G01*
G37*
G36*
G01*
X159750000Y-102025000D02*
X160250000Y-102025000D01*
G75*
G02*
X160475000Y-102250000I0J-225000D01*
G01*
X160475000Y-102700000D01*
G75*
G02*
X160250000Y-102925000I-225000J0D01*
G01*
X159750000Y-102925000D01*
G75*
G02*
X159525000Y-102700000I0J225000D01*
G01*
X159525000Y-102250000D01*
G75*
G02*
X159750000Y-102025000I225000J0D01*
G01*
G37*
G36*
G01*
X151750000Y-103550000D02*
X152250000Y-103550000D01*
G75*
G02*
X152475000Y-103775000I0J-225000D01*
G01*
X152475000Y-104225000D01*
G75*
G02*
X152250000Y-104450000I-225000J0D01*
G01*
X151750000Y-104450000D01*
G75*
G02*
X151525000Y-104225000I0J225000D01*
G01*
X151525000Y-103775000D01*
G75*
G02*
X151750000Y-103550000I225000J0D01*
G01*
G37*
G36*
G01*
X151750000Y-102000000D02*
X152250000Y-102000000D01*
G75*
G02*
X152475000Y-102225000I0J-225000D01*
G01*
X152475000Y-102675000D01*
G75*
G02*
X152250000Y-102900000I-225000J0D01*
G01*
X151750000Y-102900000D01*
G75*
G02*
X151525000Y-102675000I0J225000D01*
G01*
X151525000Y-102225000D01*
G75*
G02*
X151750000Y-102000000I225000J0D01*
G01*
G37*
G36*
G01*
X161750000Y-103600000D02*
X162250000Y-103600000D01*
G75*
G02*
X162475000Y-103825000I0J-225000D01*
G01*
X162475000Y-104275000D01*
G75*
G02*
X162250000Y-104500000I-225000J0D01*
G01*
X161750000Y-104500000D01*
G75*
G02*
X161525000Y-104275000I0J225000D01*
G01*
X161525000Y-103825000D01*
G75*
G02*
X161750000Y-103600000I225000J0D01*
G01*
G37*
G36*
G01*
X161750000Y-102050000D02*
X162250000Y-102050000D01*
G75*
G02*
X162475000Y-102275000I0J-225000D01*
G01*
X162475000Y-102725000D01*
G75*
G02*
X162250000Y-102950000I-225000J0D01*
G01*
X161750000Y-102950000D01*
G75*
G02*
X161525000Y-102725000I0J225000D01*
G01*
X161525000Y-102275000D01*
G75*
G02*
X161750000Y-102050000I225000J0D01*
G01*
G37*
G36*
G01*
X130282500Y-105245000D02*
X130282500Y-105555000D01*
G75*
G02*
X130127500Y-105710000I-155000J0D01*
G01*
X129702500Y-105710000D01*
G75*
G02*
X129547500Y-105555000I0J155000D01*
G01*
X129547500Y-105245000D01*
G75*
G02*
X129702500Y-105090000I155000J0D01*
G01*
X130127500Y-105090000D01*
G75*
G02*
X130282500Y-105245000I0J-155000D01*
G01*
G37*
G36*
G01*
X131417500Y-105245000D02*
X131417500Y-105555000D01*
G75*
G02*
X131262500Y-105710000I-155000J0D01*
G01*
X130837500Y-105710000D01*
G75*
G02*
X130682500Y-105555000I0J155000D01*
G01*
X130682500Y-105245000D01*
G75*
G02*
X130837500Y-105090000I155000J0D01*
G01*
X131262500Y-105090000D01*
G75*
G02*
X131417500Y-105245000I0J-155000D01*
G01*
G37*
G36*
G01*
X130450000Y-107900000D02*
X130950000Y-107900000D01*
G75*
G02*
X131175000Y-108125000I0J-225000D01*
G01*
X131175000Y-108575000D01*
G75*
G02*
X130950000Y-108800000I-225000J0D01*
G01*
X130450000Y-108800000D01*
G75*
G02*
X130225000Y-108575000I0J225000D01*
G01*
X130225000Y-108125000D01*
G75*
G02*
X130450000Y-107900000I225000J0D01*
G01*
G37*
G36*
G01*
X130450000Y-106350000D02*
X130950000Y-106350000D01*
G75*
G02*
X131175000Y-106575000I0J-225000D01*
G01*
X131175000Y-107025000D01*
G75*
G02*
X130950000Y-107250000I-225000J0D01*
G01*
X130450000Y-107250000D01*
G75*
G02*
X130225000Y-107025000I0J225000D01*
G01*
X130225000Y-106575000D01*
G75*
G02*
X130450000Y-106350000I225000J0D01*
G01*
G37*
G36*
G01*
X130282500Y-102345000D02*
X130282500Y-102655000D01*
G75*
G02*
X130127500Y-102810000I-155000J0D01*
G01*
X129702500Y-102810000D01*
G75*
G02*
X129547500Y-102655000I0J155000D01*
G01*
X129547500Y-102345000D01*
G75*
G02*
X129702500Y-102190000I155000J0D01*
G01*
X130127500Y-102190000D01*
G75*
G02*
X130282500Y-102345000I0J-155000D01*
G01*
G37*
G36*
G01*
X131417500Y-102345000D02*
X131417500Y-102655000D01*
G75*
G02*
X131262500Y-102810000I-155000J0D01*
G01*
X130837500Y-102810000D01*
G75*
G02*
X130682500Y-102655000I0J155000D01*
G01*
X130682500Y-102345000D01*
G75*
G02*
X130837500Y-102190000I155000J0D01*
G01*
X131262500Y-102190000D01*
G75*
G02*
X131417500Y-102345000I0J-155000D01*
G01*
G37*
G36*
G01*
X156905000Y-108617500D02*
X156595000Y-108617500D01*
G75*
G02*
X156440000Y-108462500I0J155000D01*
G01*
X156440000Y-108037500D01*
G75*
G02*
X156595000Y-107882500I155000J0D01*
G01*
X156905000Y-107882500D01*
G75*
G02*
X157060000Y-108037500I0J-155000D01*
G01*
X157060000Y-108462500D01*
G75*
G02*
X156905000Y-108617500I-155000J0D01*
G01*
G37*
G36*
G01*
X156905000Y-109752500D02*
X156595000Y-109752500D01*
G75*
G02*
X156440000Y-109597500I0J155000D01*
G01*
X156440000Y-109172500D01*
G75*
G02*
X156595000Y-109017500I155000J0D01*
G01*
X156905000Y-109017500D01*
G75*
G02*
X157060000Y-109172500I0J-155000D01*
G01*
X157060000Y-109597500D01*
G75*
G02*
X156905000Y-109752500I-155000J0D01*
G01*
G37*
G36*
G01*
X146400000Y-112250000D02*
X146400000Y-112750000D01*
G75*
G02*
X146175000Y-112975000I-225000J0D01*
G01*
X145725000Y-112975000D01*
G75*
G02*
X145500000Y-112750000I0J225000D01*
G01*
X145500000Y-112250000D01*
G75*
G02*
X145725000Y-112025000I225000J0D01*
G01*
X146175000Y-112025000D01*
G75*
G02*
X146400000Y-112250000I0J-225000D01*
G01*
G37*
G36*
G01*
X147950000Y-112250000D02*
X147950000Y-112750000D01*
G75*
G02*
X147725000Y-112975000I-225000J0D01*
G01*
X147275000Y-112975000D01*
G75*
G02*
X147050000Y-112750000I0J225000D01*
G01*
X147050000Y-112250000D01*
G75*
G02*
X147275000Y-112025000I225000J0D01*
G01*
X147725000Y-112025000D01*
G75*
G02*
X147950000Y-112250000I0J-225000D01*
G01*
G37*
G36*
G01*
X154900000Y-110500000D02*
X154900000Y-111000000D01*
G75*
G02*
X154675000Y-111225000I-225000J0D01*
G01*
X154225000Y-111225000D01*
G75*
G02*
X154000000Y-111000000I0J225000D01*
G01*
X154000000Y-110500000D01*
G75*
G02*
X154225000Y-110275000I225000J0D01*
G01*
X154675000Y-110275000D01*
G75*
G02*
X154900000Y-110500000I0J-225000D01*
G01*
G37*
G36*
G01*
X156450000Y-110500000D02*
X156450000Y-111000000D01*
G75*
G02*
X156225000Y-111225000I-225000J0D01*
G01*
X155775000Y-111225000D01*
G75*
G02*
X155550000Y-111000000I0J225000D01*
G01*
X155550000Y-110500000D01*
G75*
G02*
X155775000Y-110275000I225000J0D01*
G01*
X156225000Y-110275000D01*
G75*
G02*
X156450000Y-110500000I0J-225000D01*
G01*
G37*
M02*
