M48
; DRILL file {KiCad 5.1.10} date Sun Aug  1 14:45:26 2021
; FORMAT={-:-/ absolute / metric / decimal}
; #@! TF.CreationDate,2021-08-01T14:45:26-04:00
; #@! TF.GenerationSoftware,Kicad,Pcbnew,5.1.10
; #@! TF.FileFunction,Plated,1,2,PTH
FMAT,2
METRIC
T1C0.400
T2C0.600
T3C0.838
%
G90
G05
T1
X115.65Y-107.75
X115.65Y-108.75
X115.65Y-109.75
X115.65Y-110.75
X120.175Y-106.025
X120.175Y-106.875
X120.175Y-107.725
X120.175Y-108.575
X120.175Y-109.425
X120.175Y-110.275
X120.175Y-111.125
X120.175Y-111.975
X121.525Y-106.025
X121.525Y-106.875
X121.525Y-107.725
X121.525Y-108.575
X121.525Y-109.425
X121.525Y-110.275
X121.525Y-111.125
X121.525Y-111.975
X122.25Y-107.75
X122.25Y-114.0
X122.25Y-115.0
X122.4Y-102.25
X123.45Y-105.95
X123.708Y-110.859
X124.25Y-112.0
X124.25Y-112.75
X124.792Y-110.859
X125.0Y-103.9
X125.0Y-104.8
X125.0Y-106.25
X125.3Y-102.3
X125.3Y-107.3
X125.75Y-114.75
X126.25Y-106.0
X126.5Y-115.73
X126.8Y-110.025
X126.8Y-110.85
X127.0Y-114.75
X127.3Y-105.9
X128.35Y-106.0
X128.4Y-109.3
X128.7Y-107.3
X129.0Y-114.525
X129.3Y-106.7
X130.0Y-109.35
X131.25Y-112.75
X131.35Y-109.675
X134.493Y-109.518
X134.5Y-111.475
X135.0Y-103.75
X135.1Y-108.4
X136.25Y-105.75
X136.3Y-104.4
X137.3Y-103.5
X137.3Y-106.8
X138.25Y-109.5
X138.325Y-105.05
X138.325Y-105.875
X138.56Y-108.1
X138.631Y-111.74
X139.5Y-114.325
X139.7Y-112.875
X141.9Y-103.6
X144.35Y-104.45
X144.35Y-105.3
X144.8Y-114.875
X145.45Y-113.75
X147.2Y-105.0
X148.0Y-111.4
X148.7Y-112.4
X149.25Y-114.75
X150.1Y-103.8
X151.0Y-109.25
X151.4Y-106.7
X152.1Y-107.1
X152.833Y-108.06
X153.3Y-103.7
X154.2Y-102.5
X155.25Y-114.75
X155.5Y-106.3
X156.3Y-112.3
X156.9Y-105.3
X157.1Y-112.3
X157.5Y-110.634
X158.603Y-113.147
X159.5Y-115.5
X160.3Y-107.785
X160.348Y-110.261
X160.5Y-114.5
X161.8Y-108.3
X162.25Y-115.5
X162.3Y-110.1
X163.0Y-102.5
X163.1Y-110.1
X163.5Y-103.25
X164.0Y-102.5
X164.5Y-103.25
X164.7Y-113.9
X165.0Y-102.5
X165.3Y-113.1
X165.8Y-113.9
X166.4Y-113.1
X166.9Y-113.9
X171.0Y-102.5
T3
X150.75Y-114.8
X153.75Y-114.8
T2
X117.365Y-104.675G85X116.965Y-104.675
G05
X117.365Y-113.325G85X116.965Y-113.325
G05
X120.945Y-104.675G85X120.145Y-104.675
G05
X120.945Y-113.325G85X120.145Y-113.325
G05
X170.3Y-104.775G85X168.4Y-104.775
G05
X170.3Y-113.225G85X168.4Y-113.225
G05
X177.1Y-104.775G85X175.2Y-104.775
G05
X177.1Y-113.225G85X175.2Y-113.225
G05
T0
M30
